%TF.GenerationSoftware,KiCad,Pcbnew,5.1.5+dfsg1-2build2*%
%TF.CreationDate,2021-12-31T02:56:54+01:00*%
%TF.ProjectId,chip-breakout,63686970-2d62-4726-9561-6b6f75742e6b,rev?*%
%TF.SameCoordinates,Original*%
%TF.FileFunction,Copper,L2,Bot*%
%TF.FilePolarity,Positive*%
%FSLAX46Y46*%
G04 Gerber Fmt 4.6, Leading zero omitted, Abs format (unit mm)*
G04 Created by KiCad (PCBNEW 5.1.5+dfsg1-2build2) date 2021-12-31 02:56:54*
%MOMM*%
%LPD*%
G04 APERTURE LIST*
%ADD10O,1.700000X1.700000*%
%ADD11R,1.700000X1.700000*%
%ADD12C,0.100000*%
%ADD13O,2.400000X1.600000*%
%ADD14R,2.400000X1.600000*%
%ADD15C,0.250000*%
G04 APERTURE END LIST*
D10*
X142240000Y-101600000D03*
X139700000Y-101600000D03*
X142240000Y-99060000D03*
X139700000Y-99060000D03*
X142240000Y-96520000D03*
X139700000Y-96520000D03*
X142240000Y-93980000D03*
X139700000Y-93980000D03*
X142240000Y-91440000D03*
X139700000Y-91440000D03*
X142240000Y-88900000D03*
X139700000Y-88900000D03*
X142240000Y-86360000D03*
X139700000Y-86360000D03*
X142240000Y-83820000D03*
X139700000Y-83820000D03*
X142240000Y-81280000D03*
X139700000Y-81280000D03*
X142240000Y-78740000D03*
X139700000Y-78740000D03*
X142240000Y-76200000D03*
X139700000Y-76200000D03*
X142240000Y-73660000D03*
X139700000Y-73660000D03*
X142240000Y-71120000D03*
X139700000Y-71120000D03*
X142240000Y-68580000D03*
X139700000Y-68580000D03*
X142240000Y-66040000D03*
X139700000Y-66040000D03*
X142240000Y-63500000D03*
X139700000Y-63500000D03*
X142240000Y-60960000D03*
X139700000Y-60960000D03*
X142240000Y-58420000D03*
X139700000Y-58420000D03*
X142240000Y-55880000D03*
X139700000Y-55880000D03*
X142240000Y-53340000D03*
X139700000Y-53340000D03*
X142240000Y-50800000D03*
X139700000Y-50800000D03*
X142240000Y-48260000D03*
X139700000Y-48260000D03*
X142240000Y-45720000D03*
X139700000Y-45720000D03*
X142240000Y-43180000D03*
X139700000Y-43180000D03*
X142240000Y-40640000D03*
X139700000Y-40640000D03*
X142240000Y-38100000D03*
X139700000Y-38100000D03*
X142240000Y-35560000D03*
X139700000Y-35560000D03*
X142240000Y-33020000D03*
X139700000Y-33020000D03*
X142240000Y-30480000D03*
X139700000Y-30480000D03*
X142240000Y-27940000D03*
D11*
X139700000Y-27940000D03*
%TA.AperFunction,SMDPad,CuDef*%
D12*
G36*
X124944703Y-69550722D02*
G01*
X124959264Y-69552882D01*
X124973543Y-69556459D01*
X124987403Y-69561418D01*
X125000710Y-69567712D01*
X125013336Y-69575280D01*
X125025159Y-69584048D01*
X125036066Y-69593934D01*
X125045952Y-69604841D01*
X125054720Y-69616664D01*
X125062288Y-69629290D01*
X125068582Y-69642597D01*
X125073541Y-69656457D01*
X125077118Y-69670736D01*
X125079278Y-69685297D01*
X125080000Y-69700000D01*
X125080000Y-70000000D01*
X125079278Y-70014703D01*
X125077118Y-70029264D01*
X125073541Y-70043543D01*
X125068582Y-70057403D01*
X125062288Y-70070710D01*
X125054720Y-70083336D01*
X125045952Y-70095159D01*
X125036066Y-70106066D01*
X125025159Y-70115952D01*
X125013336Y-70124720D01*
X125000710Y-70132288D01*
X124987403Y-70138582D01*
X124973543Y-70143541D01*
X124959264Y-70147118D01*
X124944703Y-70149278D01*
X124930000Y-70150000D01*
X123430000Y-70150000D01*
X123415297Y-70149278D01*
X123400736Y-70147118D01*
X123386457Y-70143541D01*
X123372597Y-70138582D01*
X123359290Y-70132288D01*
X123346664Y-70124720D01*
X123334841Y-70115952D01*
X123323934Y-70106066D01*
X123314048Y-70095159D01*
X123305280Y-70083336D01*
X123297712Y-70070710D01*
X123291418Y-70057403D01*
X123286459Y-70043543D01*
X123282882Y-70029264D01*
X123280722Y-70014703D01*
X123280000Y-70000000D01*
X123280000Y-69700000D01*
X123280722Y-69685297D01*
X123282882Y-69670736D01*
X123286459Y-69656457D01*
X123291418Y-69642597D01*
X123297712Y-69629290D01*
X123305280Y-69616664D01*
X123314048Y-69604841D01*
X123323934Y-69593934D01*
X123334841Y-69584048D01*
X123346664Y-69575280D01*
X123359290Y-69567712D01*
X123372597Y-69561418D01*
X123386457Y-69556459D01*
X123400736Y-69552882D01*
X123415297Y-69550722D01*
X123430000Y-69550000D01*
X124930000Y-69550000D01*
X124944703Y-69550722D01*
G37*
%TD.AperFunction*%
%TA.AperFunction,SMDPad,CuDef*%
G36*
X124944703Y-68280722D02*
G01*
X124959264Y-68282882D01*
X124973543Y-68286459D01*
X124987403Y-68291418D01*
X125000710Y-68297712D01*
X125013336Y-68305280D01*
X125025159Y-68314048D01*
X125036066Y-68323934D01*
X125045952Y-68334841D01*
X125054720Y-68346664D01*
X125062288Y-68359290D01*
X125068582Y-68372597D01*
X125073541Y-68386457D01*
X125077118Y-68400736D01*
X125079278Y-68415297D01*
X125080000Y-68430000D01*
X125080000Y-68730000D01*
X125079278Y-68744703D01*
X125077118Y-68759264D01*
X125073541Y-68773543D01*
X125068582Y-68787403D01*
X125062288Y-68800710D01*
X125054720Y-68813336D01*
X125045952Y-68825159D01*
X125036066Y-68836066D01*
X125025159Y-68845952D01*
X125013336Y-68854720D01*
X125000710Y-68862288D01*
X124987403Y-68868582D01*
X124973543Y-68873541D01*
X124959264Y-68877118D01*
X124944703Y-68879278D01*
X124930000Y-68880000D01*
X123430000Y-68880000D01*
X123415297Y-68879278D01*
X123400736Y-68877118D01*
X123386457Y-68873541D01*
X123372597Y-68868582D01*
X123359290Y-68862288D01*
X123346664Y-68854720D01*
X123334841Y-68845952D01*
X123323934Y-68836066D01*
X123314048Y-68825159D01*
X123305280Y-68813336D01*
X123297712Y-68800710D01*
X123291418Y-68787403D01*
X123286459Y-68773543D01*
X123282882Y-68759264D01*
X123280722Y-68744703D01*
X123280000Y-68730000D01*
X123280000Y-68430000D01*
X123280722Y-68415297D01*
X123282882Y-68400736D01*
X123286459Y-68386457D01*
X123291418Y-68372597D01*
X123297712Y-68359290D01*
X123305280Y-68346664D01*
X123314048Y-68334841D01*
X123323934Y-68323934D01*
X123334841Y-68314048D01*
X123346664Y-68305280D01*
X123359290Y-68297712D01*
X123372597Y-68291418D01*
X123386457Y-68286459D01*
X123400736Y-68282882D01*
X123415297Y-68280722D01*
X123430000Y-68280000D01*
X124930000Y-68280000D01*
X124944703Y-68280722D01*
G37*
%TD.AperFunction*%
%TA.AperFunction,SMDPad,CuDef*%
G36*
X124944703Y-67010722D02*
G01*
X124959264Y-67012882D01*
X124973543Y-67016459D01*
X124987403Y-67021418D01*
X125000710Y-67027712D01*
X125013336Y-67035280D01*
X125025159Y-67044048D01*
X125036066Y-67053934D01*
X125045952Y-67064841D01*
X125054720Y-67076664D01*
X125062288Y-67089290D01*
X125068582Y-67102597D01*
X125073541Y-67116457D01*
X125077118Y-67130736D01*
X125079278Y-67145297D01*
X125080000Y-67160000D01*
X125080000Y-67460000D01*
X125079278Y-67474703D01*
X125077118Y-67489264D01*
X125073541Y-67503543D01*
X125068582Y-67517403D01*
X125062288Y-67530710D01*
X125054720Y-67543336D01*
X125045952Y-67555159D01*
X125036066Y-67566066D01*
X125025159Y-67575952D01*
X125013336Y-67584720D01*
X125000710Y-67592288D01*
X124987403Y-67598582D01*
X124973543Y-67603541D01*
X124959264Y-67607118D01*
X124944703Y-67609278D01*
X124930000Y-67610000D01*
X123430000Y-67610000D01*
X123415297Y-67609278D01*
X123400736Y-67607118D01*
X123386457Y-67603541D01*
X123372597Y-67598582D01*
X123359290Y-67592288D01*
X123346664Y-67584720D01*
X123334841Y-67575952D01*
X123323934Y-67566066D01*
X123314048Y-67555159D01*
X123305280Y-67543336D01*
X123297712Y-67530710D01*
X123291418Y-67517403D01*
X123286459Y-67503543D01*
X123282882Y-67489264D01*
X123280722Y-67474703D01*
X123280000Y-67460000D01*
X123280000Y-67160000D01*
X123280722Y-67145297D01*
X123282882Y-67130736D01*
X123286459Y-67116457D01*
X123291418Y-67102597D01*
X123297712Y-67089290D01*
X123305280Y-67076664D01*
X123314048Y-67064841D01*
X123323934Y-67053934D01*
X123334841Y-67044048D01*
X123346664Y-67035280D01*
X123359290Y-67027712D01*
X123372597Y-67021418D01*
X123386457Y-67016459D01*
X123400736Y-67012882D01*
X123415297Y-67010722D01*
X123430000Y-67010000D01*
X124930000Y-67010000D01*
X124944703Y-67010722D01*
G37*
%TD.AperFunction*%
%TA.AperFunction,SMDPad,CuDef*%
G36*
X124944703Y-65740722D02*
G01*
X124959264Y-65742882D01*
X124973543Y-65746459D01*
X124987403Y-65751418D01*
X125000710Y-65757712D01*
X125013336Y-65765280D01*
X125025159Y-65774048D01*
X125036066Y-65783934D01*
X125045952Y-65794841D01*
X125054720Y-65806664D01*
X125062288Y-65819290D01*
X125068582Y-65832597D01*
X125073541Y-65846457D01*
X125077118Y-65860736D01*
X125079278Y-65875297D01*
X125080000Y-65890000D01*
X125080000Y-66190000D01*
X125079278Y-66204703D01*
X125077118Y-66219264D01*
X125073541Y-66233543D01*
X125068582Y-66247403D01*
X125062288Y-66260710D01*
X125054720Y-66273336D01*
X125045952Y-66285159D01*
X125036066Y-66296066D01*
X125025159Y-66305952D01*
X125013336Y-66314720D01*
X125000710Y-66322288D01*
X124987403Y-66328582D01*
X124973543Y-66333541D01*
X124959264Y-66337118D01*
X124944703Y-66339278D01*
X124930000Y-66340000D01*
X123430000Y-66340000D01*
X123415297Y-66339278D01*
X123400736Y-66337118D01*
X123386457Y-66333541D01*
X123372597Y-66328582D01*
X123359290Y-66322288D01*
X123346664Y-66314720D01*
X123334841Y-66305952D01*
X123323934Y-66296066D01*
X123314048Y-66285159D01*
X123305280Y-66273336D01*
X123297712Y-66260710D01*
X123291418Y-66247403D01*
X123286459Y-66233543D01*
X123282882Y-66219264D01*
X123280722Y-66204703D01*
X123280000Y-66190000D01*
X123280000Y-65890000D01*
X123280722Y-65875297D01*
X123282882Y-65860736D01*
X123286459Y-65846457D01*
X123291418Y-65832597D01*
X123297712Y-65819290D01*
X123305280Y-65806664D01*
X123314048Y-65794841D01*
X123323934Y-65783934D01*
X123334841Y-65774048D01*
X123346664Y-65765280D01*
X123359290Y-65757712D01*
X123372597Y-65751418D01*
X123386457Y-65746459D01*
X123400736Y-65742882D01*
X123415297Y-65740722D01*
X123430000Y-65740000D01*
X124930000Y-65740000D01*
X124944703Y-65740722D01*
G37*
%TD.AperFunction*%
%TA.AperFunction,SMDPad,CuDef*%
G36*
X124944703Y-64470722D02*
G01*
X124959264Y-64472882D01*
X124973543Y-64476459D01*
X124987403Y-64481418D01*
X125000710Y-64487712D01*
X125013336Y-64495280D01*
X125025159Y-64504048D01*
X125036066Y-64513934D01*
X125045952Y-64524841D01*
X125054720Y-64536664D01*
X125062288Y-64549290D01*
X125068582Y-64562597D01*
X125073541Y-64576457D01*
X125077118Y-64590736D01*
X125079278Y-64605297D01*
X125080000Y-64620000D01*
X125080000Y-64920000D01*
X125079278Y-64934703D01*
X125077118Y-64949264D01*
X125073541Y-64963543D01*
X125068582Y-64977403D01*
X125062288Y-64990710D01*
X125054720Y-65003336D01*
X125045952Y-65015159D01*
X125036066Y-65026066D01*
X125025159Y-65035952D01*
X125013336Y-65044720D01*
X125000710Y-65052288D01*
X124987403Y-65058582D01*
X124973543Y-65063541D01*
X124959264Y-65067118D01*
X124944703Y-65069278D01*
X124930000Y-65070000D01*
X123430000Y-65070000D01*
X123415297Y-65069278D01*
X123400736Y-65067118D01*
X123386457Y-65063541D01*
X123372597Y-65058582D01*
X123359290Y-65052288D01*
X123346664Y-65044720D01*
X123334841Y-65035952D01*
X123323934Y-65026066D01*
X123314048Y-65015159D01*
X123305280Y-65003336D01*
X123297712Y-64990710D01*
X123291418Y-64977403D01*
X123286459Y-64963543D01*
X123282882Y-64949264D01*
X123280722Y-64934703D01*
X123280000Y-64920000D01*
X123280000Y-64620000D01*
X123280722Y-64605297D01*
X123282882Y-64590736D01*
X123286459Y-64576457D01*
X123291418Y-64562597D01*
X123297712Y-64549290D01*
X123305280Y-64536664D01*
X123314048Y-64524841D01*
X123323934Y-64513934D01*
X123334841Y-64504048D01*
X123346664Y-64495280D01*
X123359290Y-64487712D01*
X123372597Y-64481418D01*
X123386457Y-64476459D01*
X123400736Y-64472882D01*
X123415297Y-64470722D01*
X123430000Y-64470000D01*
X124930000Y-64470000D01*
X124944703Y-64470722D01*
G37*
%TD.AperFunction*%
%TA.AperFunction,SMDPad,CuDef*%
G36*
X124944703Y-63200722D02*
G01*
X124959264Y-63202882D01*
X124973543Y-63206459D01*
X124987403Y-63211418D01*
X125000710Y-63217712D01*
X125013336Y-63225280D01*
X125025159Y-63234048D01*
X125036066Y-63243934D01*
X125045952Y-63254841D01*
X125054720Y-63266664D01*
X125062288Y-63279290D01*
X125068582Y-63292597D01*
X125073541Y-63306457D01*
X125077118Y-63320736D01*
X125079278Y-63335297D01*
X125080000Y-63350000D01*
X125080000Y-63650000D01*
X125079278Y-63664703D01*
X125077118Y-63679264D01*
X125073541Y-63693543D01*
X125068582Y-63707403D01*
X125062288Y-63720710D01*
X125054720Y-63733336D01*
X125045952Y-63745159D01*
X125036066Y-63756066D01*
X125025159Y-63765952D01*
X125013336Y-63774720D01*
X125000710Y-63782288D01*
X124987403Y-63788582D01*
X124973543Y-63793541D01*
X124959264Y-63797118D01*
X124944703Y-63799278D01*
X124930000Y-63800000D01*
X123430000Y-63800000D01*
X123415297Y-63799278D01*
X123400736Y-63797118D01*
X123386457Y-63793541D01*
X123372597Y-63788582D01*
X123359290Y-63782288D01*
X123346664Y-63774720D01*
X123334841Y-63765952D01*
X123323934Y-63756066D01*
X123314048Y-63745159D01*
X123305280Y-63733336D01*
X123297712Y-63720710D01*
X123291418Y-63707403D01*
X123286459Y-63693543D01*
X123282882Y-63679264D01*
X123280722Y-63664703D01*
X123280000Y-63650000D01*
X123280000Y-63350000D01*
X123280722Y-63335297D01*
X123282882Y-63320736D01*
X123286459Y-63306457D01*
X123291418Y-63292597D01*
X123297712Y-63279290D01*
X123305280Y-63266664D01*
X123314048Y-63254841D01*
X123323934Y-63243934D01*
X123334841Y-63234048D01*
X123346664Y-63225280D01*
X123359290Y-63217712D01*
X123372597Y-63211418D01*
X123386457Y-63206459D01*
X123400736Y-63202882D01*
X123415297Y-63200722D01*
X123430000Y-63200000D01*
X124930000Y-63200000D01*
X124944703Y-63200722D01*
G37*
%TD.AperFunction*%
%TA.AperFunction,SMDPad,CuDef*%
G36*
X124944703Y-61930722D02*
G01*
X124959264Y-61932882D01*
X124973543Y-61936459D01*
X124987403Y-61941418D01*
X125000710Y-61947712D01*
X125013336Y-61955280D01*
X125025159Y-61964048D01*
X125036066Y-61973934D01*
X125045952Y-61984841D01*
X125054720Y-61996664D01*
X125062288Y-62009290D01*
X125068582Y-62022597D01*
X125073541Y-62036457D01*
X125077118Y-62050736D01*
X125079278Y-62065297D01*
X125080000Y-62080000D01*
X125080000Y-62380000D01*
X125079278Y-62394703D01*
X125077118Y-62409264D01*
X125073541Y-62423543D01*
X125068582Y-62437403D01*
X125062288Y-62450710D01*
X125054720Y-62463336D01*
X125045952Y-62475159D01*
X125036066Y-62486066D01*
X125025159Y-62495952D01*
X125013336Y-62504720D01*
X125000710Y-62512288D01*
X124987403Y-62518582D01*
X124973543Y-62523541D01*
X124959264Y-62527118D01*
X124944703Y-62529278D01*
X124930000Y-62530000D01*
X123430000Y-62530000D01*
X123415297Y-62529278D01*
X123400736Y-62527118D01*
X123386457Y-62523541D01*
X123372597Y-62518582D01*
X123359290Y-62512288D01*
X123346664Y-62504720D01*
X123334841Y-62495952D01*
X123323934Y-62486066D01*
X123314048Y-62475159D01*
X123305280Y-62463336D01*
X123297712Y-62450710D01*
X123291418Y-62437403D01*
X123286459Y-62423543D01*
X123282882Y-62409264D01*
X123280722Y-62394703D01*
X123280000Y-62380000D01*
X123280000Y-62080000D01*
X123280722Y-62065297D01*
X123282882Y-62050736D01*
X123286459Y-62036457D01*
X123291418Y-62022597D01*
X123297712Y-62009290D01*
X123305280Y-61996664D01*
X123314048Y-61984841D01*
X123323934Y-61973934D01*
X123334841Y-61964048D01*
X123346664Y-61955280D01*
X123359290Y-61947712D01*
X123372597Y-61941418D01*
X123386457Y-61936459D01*
X123400736Y-61932882D01*
X123415297Y-61930722D01*
X123430000Y-61930000D01*
X124930000Y-61930000D01*
X124944703Y-61930722D01*
G37*
%TD.AperFunction*%
%TA.AperFunction,SMDPad,CuDef*%
G36*
X124944703Y-60660722D02*
G01*
X124959264Y-60662882D01*
X124973543Y-60666459D01*
X124987403Y-60671418D01*
X125000710Y-60677712D01*
X125013336Y-60685280D01*
X125025159Y-60694048D01*
X125036066Y-60703934D01*
X125045952Y-60714841D01*
X125054720Y-60726664D01*
X125062288Y-60739290D01*
X125068582Y-60752597D01*
X125073541Y-60766457D01*
X125077118Y-60780736D01*
X125079278Y-60795297D01*
X125080000Y-60810000D01*
X125080000Y-61110000D01*
X125079278Y-61124703D01*
X125077118Y-61139264D01*
X125073541Y-61153543D01*
X125068582Y-61167403D01*
X125062288Y-61180710D01*
X125054720Y-61193336D01*
X125045952Y-61205159D01*
X125036066Y-61216066D01*
X125025159Y-61225952D01*
X125013336Y-61234720D01*
X125000710Y-61242288D01*
X124987403Y-61248582D01*
X124973543Y-61253541D01*
X124959264Y-61257118D01*
X124944703Y-61259278D01*
X124930000Y-61260000D01*
X123430000Y-61260000D01*
X123415297Y-61259278D01*
X123400736Y-61257118D01*
X123386457Y-61253541D01*
X123372597Y-61248582D01*
X123359290Y-61242288D01*
X123346664Y-61234720D01*
X123334841Y-61225952D01*
X123323934Y-61216066D01*
X123314048Y-61205159D01*
X123305280Y-61193336D01*
X123297712Y-61180710D01*
X123291418Y-61167403D01*
X123286459Y-61153543D01*
X123282882Y-61139264D01*
X123280722Y-61124703D01*
X123280000Y-61110000D01*
X123280000Y-60810000D01*
X123280722Y-60795297D01*
X123282882Y-60780736D01*
X123286459Y-60766457D01*
X123291418Y-60752597D01*
X123297712Y-60739290D01*
X123305280Y-60726664D01*
X123314048Y-60714841D01*
X123323934Y-60703934D01*
X123334841Y-60694048D01*
X123346664Y-60685280D01*
X123359290Y-60677712D01*
X123372597Y-60671418D01*
X123386457Y-60666459D01*
X123400736Y-60662882D01*
X123415297Y-60660722D01*
X123430000Y-60660000D01*
X124930000Y-60660000D01*
X124944703Y-60660722D01*
G37*
%TD.AperFunction*%
%TA.AperFunction,SMDPad,CuDef*%
G36*
X124944703Y-59390722D02*
G01*
X124959264Y-59392882D01*
X124973543Y-59396459D01*
X124987403Y-59401418D01*
X125000710Y-59407712D01*
X125013336Y-59415280D01*
X125025159Y-59424048D01*
X125036066Y-59433934D01*
X125045952Y-59444841D01*
X125054720Y-59456664D01*
X125062288Y-59469290D01*
X125068582Y-59482597D01*
X125073541Y-59496457D01*
X125077118Y-59510736D01*
X125079278Y-59525297D01*
X125080000Y-59540000D01*
X125080000Y-59840000D01*
X125079278Y-59854703D01*
X125077118Y-59869264D01*
X125073541Y-59883543D01*
X125068582Y-59897403D01*
X125062288Y-59910710D01*
X125054720Y-59923336D01*
X125045952Y-59935159D01*
X125036066Y-59946066D01*
X125025159Y-59955952D01*
X125013336Y-59964720D01*
X125000710Y-59972288D01*
X124987403Y-59978582D01*
X124973543Y-59983541D01*
X124959264Y-59987118D01*
X124944703Y-59989278D01*
X124930000Y-59990000D01*
X123430000Y-59990000D01*
X123415297Y-59989278D01*
X123400736Y-59987118D01*
X123386457Y-59983541D01*
X123372597Y-59978582D01*
X123359290Y-59972288D01*
X123346664Y-59964720D01*
X123334841Y-59955952D01*
X123323934Y-59946066D01*
X123314048Y-59935159D01*
X123305280Y-59923336D01*
X123297712Y-59910710D01*
X123291418Y-59897403D01*
X123286459Y-59883543D01*
X123282882Y-59869264D01*
X123280722Y-59854703D01*
X123280000Y-59840000D01*
X123280000Y-59540000D01*
X123280722Y-59525297D01*
X123282882Y-59510736D01*
X123286459Y-59496457D01*
X123291418Y-59482597D01*
X123297712Y-59469290D01*
X123305280Y-59456664D01*
X123314048Y-59444841D01*
X123323934Y-59433934D01*
X123334841Y-59424048D01*
X123346664Y-59415280D01*
X123359290Y-59407712D01*
X123372597Y-59401418D01*
X123386457Y-59396459D01*
X123400736Y-59392882D01*
X123415297Y-59390722D01*
X123430000Y-59390000D01*
X124930000Y-59390000D01*
X124944703Y-59390722D01*
G37*
%TD.AperFunction*%
%TA.AperFunction,SMDPad,CuDef*%
G36*
X124944703Y-58120722D02*
G01*
X124959264Y-58122882D01*
X124973543Y-58126459D01*
X124987403Y-58131418D01*
X125000710Y-58137712D01*
X125013336Y-58145280D01*
X125025159Y-58154048D01*
X125036066Y-58163934D01*
X125045952Y-58174841D01*
X125054720Y-58186664D01*
X125062288Y-58199290D01*
X125068582Y-58212597D01*
X125073541Y-58226457D01*
X125077118Y-58240736D01*
X125079278Y-58255297D01*
X125080000Y-58270000D01*
X125080000Y-58570000D01*
X125079278Y-58584703D01*
X125077118Y-58599264D01*
X125073541Y-58613543D01*
X125068582Y-58627403D01*
X125062288Y-58640710D01*
X125054720Y-58653336D01*
X125045952Y-58665159D01*
X125036066Y-58676066D01*
X125025159Y-58685952D01*
X125013336Y-58694720D01*
X125000710Y-58702288D01*
X124987403Y-58708582D01*
X124973543Y-58713541D01*
X124959264Y-58717118D01*
X124944703Y-58719278D01*
X124930000Y-58720000D01*
X123430000Y-58720000D01*
X123415297Y-58719278D01*
X123400736Y-58717118D01*
X123386457Y-58713541D01*
X123372597Y-58708582D01*
X123359290Y-58702288D01*
X123346664Y-58694720D01*
X123334841Y-58685952D01*
X123323934Y-58676066D01*
X123314048Y-58665159D01*
X123305280Y-58653336D01*
X123297712Y-58640710D01*
X123291418Y-58627403D01*
X123286459Y-58613543D01*
X123282882Y-58599264D01*
X123280722Y-58584703D01*
X123280000Y-58570000D01*
X123280000Y-58270000D01*
X123280722Y-58255297D01*
X123282882Y-58240736D01*
X123286459Y-58226457D01*
X123291418Y-58212597D01*
X123297712Y-58199290D01*
X123305280Y-58186664D01*
X123314048Y-58174841D01*
X123323934Y-58163934D01*
X123334841Y-58154048D01*
X123346664Y-58145280D01*
X123359290Y-58137712D01*
X123372597Y-58131418D01*
X123386457Y-58126459D01*
X123400736Y-58122882D01*
X123415297Y-58120722D01*
X123430000Y-58120000D01*
X124930000Y-58120000D01*
X124944703Y-58120722D01*
G37*
%TD.AperFunction*%
%TA.AperFunction,SMDPad,CuDef*%
G36*
X124944703Y-56850722D02*
G01*
X124959264Y-56852882D01*
X124973543Y-56856459D01*
X124987403Y-56861418D01*
X125000710Y-56867712D01*
X125013336Y-56875280D01*
X125025159Y-56884048D01*
X125036066Y-56893934D01*
X125045952Y-56904841D01*
X125054720Y-56916664D01*
X125062288Y-56929290D01*
X125068582Y-56942597D01*
X125073541Y-56956457D01*
X125077118Y-56970736D01*
X125079278Y-56985297D01*
X125080000Y-57000000D01*
X125080000Y-57300000D01*
X125079278Y-57314703D01*
X125077118Y-57329264D01*
X125073541Y-57343543D01*
X125068582Y-57357403D01*
X125062288Y-57370710D01*
X125054720Y-57383336D01*
X125045952Y-57395159D01*
X125036066Y-57406066D01*
X125025159Y-57415952D01*
X125013336Y-57424720D01*
X125000710Y-57432288D01*
X124987403Y-57438582D01*
X124973543Y-57443541D01*
X124959264Y-57447118D01*
X124944703Y-57449278D01*
X124930000Y-57450000D01*
X123430000Y-57450000D01*
X123415297Y-57449278D01*
X123400736Y-57447118D01*
X123386457Y-57443541D01*
X123372597Y-57438582D01*
X123359290Y-57432288D01*
X123346664Y-57424720D01*
X123334841Y-57415952D01*
X123323934Y-57406066D01*
X123314048Y-57395159D01*
X123305280Y-57383336D01*
X123297712Y-57370710D01*
X123291418Y-57357403D01*
X123286459Y-57343543D01*
X123282882Y-57329264D01*
X123280722Y-57314703D01*
X123280000Y-57300000D01*
X123280000Y-57000000D01*
X123280722Y-56985297D01*
X123282882Y-56970736D01*
X123286459Y-56956457D01*
X123291418Y-56942597D01*
X123297712Y-56929290D01*
X123305280Y-56916664D01*
X123314048Y-56904841D01*
X123323934Y-56893934D01*
X123334841Y-56884048D01*
X123346664Y-56875280D01*
X123359290Y-56867712D01*
X123372597Y-56861418D01*
X123386457Y-56856459D01*
X123400736Y-56852882D01*
X123415297Y-56850722D01*
X123430000Y-56850000D01*
X124930000Y-56850000D01*
X124944703Y-56850722D01*
G37*
%TD.AperFunction*%
%TA.AperFunction,SMDPad,CuDef*%
G36*
X124944703Y-55580722D02*
G01*
X124959264Y-55582882D01*
X124973543Y-55586459D01*
X124987403Y-55591418D01*
X125000710Y-55597712D01*
X125013336Y-55605280D01*
X125025159Y-55614048D01*
X125036066Y-55623934D01*
X125045952Y-55634841D01*
X125054720Y-55646664D01*
X125062288Y-55659290D01*
X125068582Y-55672597D01*
X125073541Y-55686457D01*
X125077118Y-55700736D01*
X125079278Y-55715297D01*
X125080000Y-55730000D01*
X125080000Y-56030000D01*
X125079278Y-56044703D01*
X125077118Y-56059264D01*
X125073541Y-56073543D01*
X125068582Y-56087403D01*
X125062288Y-56100710D01*
X125054720Y-56113336D01*
X125045952Y-56125159D01*
X125036066Y-56136066D01*
X125025159Y-56145952D01*
X125013336Y-56154720D01*
X125000710Y-56162288D01*
X124987403Y-56168582D01*
X124973543Y-56173541D01*
X124959264Y-56177118D01*
X124944703Y-56179278D01*
X124930000Y-56180000D01*
X123430000Y-56180000D01*
X123415297Y-56179278D01*
X123400736Y-56177118D01*
X123386457Y-56173541D01*
X123372597Y-56168582D01*
X123359290Y-56162288D01*
X123346664Y-56154720D01*
X123334841Y-56145952D01*
X123323934Y-56136066D01*
X123314048Y-56125159D01*
X123305280Y-56113336D01*
X123297712Y-56100710D01*
X123291418Y-56087403D01*
X123286459Y-56073543D01*
X123282882Y-56059264D01*
X123280722Y-56044703D01*
X123280000Y-56030000D01*
X123280000Y-55730000D01*
X123280722Y-55715297D01*
X123282882Y-55700736D01*
X123286459Y-55686457D01*
X123291418Y-55672597D01*
X123297712Y-55659290D01*
X123305280Y-55646664D01*
X123314048Y-55634841D01*
X123323934Y-55623934D01*
X123334841Y-55614048D01*
X123346664Y-55605280D01*
X123359290Y-55597712D01*
X123372597Y-55591418D01*
X123386457Y-55586459D01*
X123400736Y-55582882D01*
X123415297Y-55580722D01*
X123430000Y-55580000D01*
X124930000Y-55580000D01*
X124944703Y-55580722D01*
G37*
%TD.AperFunction*%
%TA.AperFunction,SMDPad,CuDef*%
G36*
X124944703Y-54310722D02*
G01*
X124959264Y-54312882D01*
X124973543Y-54316459D01*
X124987403Y-54321418D01*
X125000710Y-54327712D01*
X125013336Y-54335280D01*
X125025159Y-54344048D01*
X125036066Y-54353934D01*
X125045952Y-54364841D01*
X125054720Y-54376664D01*
X125062288Y-54389290D01*
X125068582Y-54402597D01*
X125073541Y-54416457D01*
X125077118Y-54430736D01*
X125079278Y-54445297D01*
X125080000Y-54460000D01*
X125080000Y-54760000D01*
X125079278Y-54774703D01*
X125077118Y-54789264D01*
X125073541Y-54803543D01*
X125068582Y-54817403D01*
X125062288Y-54830710D01*
X125054720Y-54843336D01*
X125045952Y-54855159D01*
X125036066Y-54866066D01*
X125025159Y-54875952D01*
X125013336Y-54884720D01*
X125000710Y-54892288D01*
X124987403Y-54898582D01*
X124973543Y-54903541D01*
X124959264Y-54907118D01*
X124944703Y-54909278D01*
X124930000Y-54910000D01*
X123430000Y-54910000D01*
X123415297Y-54909278D01*
X123400736Y-54907118D01*
X123386457Y-54903541D01*
X123372597Y-54898582D01*
X123359290Y-54892288D01*
X123346664Y-54884720D01*
X123334841Y-54875952D01*
X123323934Y-54866066D01*
X123314048Y-54855159D01*
X123305280Y-54843336D01*
X123297712Y-54830710D01*
X123291418Y-54817403D01*
X123286459Y-54803543D01*
X123282882Y-54789264D01*
X123280722Y-54774703D01*
X123280000Y-54760000D01*
X123280000Y-54460000D01*
X123280722Y-54445297D01*
X123282882Y-54430736D01*
X123286459Y-54416457D01*
X123291418Y-54402597D01*
X123297712Y-54389290D01*
X123305280Y-54376664D01*
X123314048Y-54364841D01*
X123323934Y-54353934D01*
X123334841Y-54344048D01*
X123346664Y-54335280D01*
X123359290Y-54327712D01*
X123372597Y-54321418D01*
X123386457Y-54316459D01*
X123400736Y-54312882D01*
X123415297Y-54310722D01*
X123430000Y-54310000D01*
X124930000Y-54310000D01*
X124944703Y-54310722D01*
G37*
%TD.AperFunction*%
%TA.AperFunction,SMDPad,CuDef*%
G36*
X124944703Y-53040722D02*
G01*
X124959264Y-53042882D01*
X124973543Y-53046459D01*
X124987403Y-53051418D01*
X125000710Y-53057712D01*
X125013336Y-53065280D01*
X125025159Y-53074048D01*
X125036066Y-53083934D01*
X125045952Y-53094841D01*
X125054720Y-53106664D01*
X125062288Y-53119290D01*
X125068582Y-53132597D01*
X125073541Y-53146457D01*
X125077118Y-53160736D01*
X125079278Y-53175297D01*
X125080000Y-53190000D01*
X125080000Y-53490000D01*
X125079278Y-53504703D01*
X125077118Y-53519264D01*
X125073541Y-53533543D01*
X125068582Y-53547403D01*
X125062288Y-53560710D01*
X125054720Y-53573336D01*
X125045952Y-53585159D01*
X125036066Y-53596066D01*
X125025159Y-53605952D01*
X125013336Y-53614720D01*
X125000710Y-53622288D01*
X124987403Y-53628582D01*
X124973543Y-53633541D01*
X124959264Y-53637118D01*
X124944703Y-53639278D01*
X124930000Y-53640000D01*
X123430000Y-53640000D01*
X123415297Y-53639278D01*
X123400736Y-53637118D01*
X123386457Y-53633541D01*
X123372597Y-53628582D01*
X123359290Y-53622288D01*
X123346664Y-53614720D01*
X123334841Y-53605952D01*
X123323934Y-53596066D01*
X123314048Y-53585159D01*
X123305280Y-53573336D01*
X123297712Y-53560710D01*
X123291418Y-53547403D01*
X123286459Y-53533543D01*
X123282882Y-53519264D01*
X123280722Y-53504703D01*
X123280000Y-53490000D01*
X123280000Y-53190000D01*
X123280722Y-53175297D01*
X123282882Y-53160736D01*
X123286459Y-53146457D01*
X123291418Y-53132597D01*
X123297712Y-53119290D01*
X123305280Y-53106664D01*
X123314048Y-53094841D01*
X123323934Y-53083934D01*
X123334841Y-53074048D01*
X123346664Y-53065280D01*
X123359290Y-53057712D01*
X123372597Y-53051418D01*
X123386457Y-53046459D01*
X123400736Y-53042882D01*
X123415297Y-53040722D01*
X123430000Y-53040000D01*
X124930000Y-53040000D01*
X124944703Y-53040722D01*
G37*
%TD.AperFunction*%
%TA.AperFunction,SMDPad,CuDef*%
G36*
X115344703Y-53040722D02*
G01*
X115359264Y-53042882D01*
X115373543Y-53046459D01*
X115387403Y-53051418D01*
X115400710Y-53057712D01*
X115413336Y-53065280D01*
X115425159Y-53074048D01*
X115436066Y-53083934D01*
X115445952Y-53094841D01*
X115454720Y-53106664D01*
X115462288Y-53119290D01*
X115468582Y-53132597D01*
X115473541Y-53146457D01*
X115477118Y-53160736D01*
X115479278Y-53175297D01*
X115480000Y-53190000D01*
X115480000Y-53490000D01*
X115479278Y-53504703D01*
X115477118Y-53519264D01*
X115473541Y-53533543D01*
X115468582Y-53547403D01*
X115462288Y-53560710D01*
X115454720Y-53573336D01*
X115445952Y-53585159D01*
X115436066Y-53596066D01*
X115425159Y-53605952D01*
X115413336Y-53614720D01*
X115400710Y-53622288D01*
X115387403Y-53628582D01*
X115373543Y-53633541D01*
X115359264Y-53637118D01*
X115344703Y-53639278D01*
X115330000Y-53640000D01*
X113830000Y-53640000D01*
X113815297Y-53639278D01*
X113800736Y-53637118D01*
X113786457Y-53633541D01*
X113772597Y-53628582D01*
X113759290Y-53622288D01*
X113746664Y-53614720D01*
X113734841Y-53605952D01*
X113723934Y-53596066D01*
X113714048Y-53585159D01*
X113705280Y-53573336D01*
X113697712Y-53560710D01*
X113691418Y-53547403D01*
X113686459Y-53533543D01*
X113682882Y-53519264D01*
X113680722Y-53504703D01*
X113680000Y-53490000D01*
X113680000Y-53190000D01*
X113680722Y-53175297D01*
X113682882Y-53160736D01*
X113686459Y-53146457D01*
X113691418Y-53132597D01*
X113697712Y-53119290D01*
X113705280Y-53106664D01*
X113714048Y-53094841D01*
X113723934Y-53083934D01*
X113734841Y-53074048D01*
X113746664Y-53065280D01*
X113759290Y-53057712D01*
X113772597Y-53051418D01*
X113786457Y-53046459D01*
X113800736Y-53042882D01*
X113815297Y-53040722D01*
X113830000Y-53040000D01*
X115330000Y-53040000D01*
X115344703Y-53040722D01*
G37*
%TD.AperFunction*%
%TA.AperFunction,SMDPad,CuDef*%
G36*
X115344703Y-54310722D02*
G01*
X115359264Y-54312882D01*
X115373543Y-54316459D01*
X115387403Y-54321418D01*
X115400710Y-54327712D01*
X115413336Y-54335280D01*
X115425159Y-54344048D01*
X115436066Y-54353934D01*
X115445952Y-54364841D01*
X115454720Y-54376664D01*
X115462288Y-54389290D01*
X115468582Y-54402597D01*
X115473541Y-54416457D01*
X115477118Y-54430736D01*
X115479278Y-54445297D01*
X115480000Y-54460000D01*
X115480000Y-54760000D01*
X115479278Y-54774703D01*
X115477118Y-54789264D01*
X115473541Y-54803543D01*
X115468582Y-54817403D01*
X115462288Y-54830710D01*
X115454720Y-54843336D01*
X115445952Y-54855159D01*
X115436066Y-54866066D01*
X115425159Y-54875952D01*
X115413336Y-54884720D01*
X115400710Y-54892288D01*
X115387403Y-54898582D01*
X115373543Y-54903541D01*
X115359264Y-54907118D01*
X115344703Y-54909278D01*
X115330000Y-54910000D01*
X113830000Y-54910000D01*
X113815297Y-54909278D01*
X113800736Y-54907118D01*
X113786457Y-54903541D01*
X113772597Y-54898582D01*
X113759290Y-54892288D01*
X113746664Y-54884720D01*
X113734841Y-54875952D01*
X113723934Y-54866066D01*
X113714048Y-54855159D01*
X113705280Y-54843336D01*
X113697712Y-54830710D01*
X113691418Y-54817403D01*
X113686459Y-54803543D01*
X113682882Y-54789264D01*
X113680722Y-54774703D01*
X113680000Y-54760000D01*
X113680000Y-54460000D01*
X113680722Y-54445297D01*
X113682882Y-54430736D01*
X113686459Y-54416457D01*
X113691418Y-54402597D01*
X113697712Y-54389290D01*
X113705280Y-54376664D01*
X113714048Y-54364841D01*
X113723934Y-54353934D01*
X113734841Y-54344048D01*
X113746664Y-54335280D01*
X113759290Y-54327712D01*
X113772597Y-54321418D01*
X113786457Y-54316459D01*
X113800736Y-54312882D01*
X113815297Y-54310722D01*
X113830000Y-54310000D01*
X115330000Y-54310000D01*
X115344703Y-54310722D01*
G37*
%TD.AperFunction*%
%TA.AperFunction,SMDPad,CuDef*%
G36*
X115344703Y-55580722D02*
G01*
X115359264Y-55582882D01*
X115373543Y-55586459D01*
X115387403Y-55591418D01*
X115400710Y-55597712D01*
X115413336Y-55605280D01*
X115425159Y-55614048D01*
X115436066Y-55623934D01*
X115445952Y-55634841D01*
X115454720Y-55646664D01*
X115462288Y-55659290D01*
X115468582Y-55672597D01*
X115473541Y-55686457D01*
X115477118Y-55700736D01*
X115479278Y-55715297D01*
X115480000Y-55730000D01*
X115480000Y-56030000D01*
X115479278Y-56044703D01*
X115477118Y-56059264D01*
X115473541Y-56073543D01*
X115468582Y-56087403D01*
X115462288Y-56100710D01*
X115454720Y-56113336D01*
X115445952Y-56125159D01*
X115436066Y-56136066D01*
X115425159Y-56145952D01*
X115413336Y-56154720D01*
X115400710Y-56162288D01*
X115387403Y-56168582D01*
X115373543Y-56173541D01*
X115359264Y-56177118D01*
X115344703Y-56179278D01*
X115330000Y-56180000D01*
X113830000Y-56180000D01*
X113815297Y-56179278D01*
X113800736Y-56177118D01*
X113786457Y-56173541D01*
X113772597Y-56168582D01*
X113759290Y-56162288D01*
X113746664Y-56154720D01*
X113734841Y-56145952D01*
X113723934Y-56136066D01*
X113714048Y-56125159D01*
X113705280Y-56113336D01*
X113697712Y-56100710D01*
X113691418Y-56087403D01*
X113686459Y-56073543D01*
X113682882Y-56059264D01*
X113680722Y-56044703D01*
X113680000Y-56030000D01*
X113680000Y-55730000D01*
X113680722Y-55715297D01*
X113682882Y-55700736D01*
X113686459Y-55686457D01*
X113691418Y-55672597D01*
X113697712Y-55659290D01*
X113705280Y-55646664D01*
X113714048Y-55634841D01*
X113723934Y-55623934D01*
X113734841Y-55614048D01*
X113746664Y-55605280D01*
X113759290Y-55597712D01*
X113772597Y-55591418D01*
X113786457Y-55586459D01*
X113800736Y-55582882D01*
X113815297Y-55580722D01*
X113830000Y-55580000D01*
X115330000Y-55580000D01*
X115344703Y-55580722D01*
G37*
%TD.AperFunction*%
%TA.AperFunction,SMDPad,CuDef*%
G36*
X115344703Y-56850722D02*
G01*
X115359264Y-56852882D01*
X115373543Y-56856459D01*
X115387403Y-56861418D01*
X115400710Y-56867712D01*
X115413336Y-56875280D01*
X115425159Y-56884048D01*
X115436066Y-56893934D01*
X115445952Y-56904841D01*
X115454720Y-56916664D01*
X115462288Y-56929290D01*
X115468582Y-56942597D01*
X115473541Y-56956457D01*
X115477118Y-56970736D01*
X115479278Y-56985297D01*
X115480000Y-57000000D01*
X115480000Y-57300000D01*
X115479278Y-57314703D01*
X115477118Y-57329264D01*
X115473541Y-57343543D01*
X115468582Y-57357403D01*
X115462288Y-57370710D01*
X115454720Y-57383336D01*
X115445952Y-57395159D01*
X115436066Y-57406066D01*
X115425159Y-57415952D01*
X115413336Y-57424720D01*
X115400710Y-57432288D01*
X115387403Y-57438582D01*
X115373543Y-57443541D01*
X115359264Y-57447118D01*
X115344703Y-57449278D01*
X115330000Y-57450000D01*
X113830000Y-57450000D01*
X113815297Y-57449278D01*
X113800736Y-57447118D01*
X113786457Y-57443541D01*
X113772597Y-57438582D01*
X113759290Y-57432288D01*
X113746664Y-57424720D01*
X113734841Y-57415952D01*
X113723934Y-57406066D01*
X113714048Y-57395159D01*
X113705280Y-57383336D01*
X113697712Y-57370710D01*
X113691418Y-57357403D01*
X113686459Y-57343543D01*
X113682882Y-57329264D01*
X113680722Y-57314703D01*
X113680000Y-57300000D01*
X113680000Y-57000000D01*
X113680722Y-56985297D01*
X113682882Y-56970736D01*
X113686459Y-56956457D01*
X113691418Y-56942597D01*
X113697712Y-56929290D01*
X113705280Y-56916664D01*
X113714048Y-56904841D01*
X113723934Y-56893934D01*
X113734841Y-56884048D01*
X113746664Y-56875280D01*
X113759290Y-56867712D01*
X113772597Y-56861418D01*
X113786457Y-56856459D01*
X113800736Y-56852882D01*
X113815297Y-56850722D01*
X113830000Y-56850000D01*
X115330000Y-56850000D01*
X115344703Y-56850722D01*
G37*
%TD.AperFunction*%
%TA.AperFunction,SMDPad,CuDef*%
G36*
X115344703Y-58120722D02*
G01*
X115359264Y-58122882D01*
X115373543Y-58126459D01*
X115387403Y-58131418D01*
X115400710Y-58137712D01*
X115413336Y-58145280D01*
X115425159Y-58154048D01*
X115436066Y-58163934D01*
X115445952Y-58174841D01*
X115454720Y-58186664D01*
X115462288Y-58199290D01*
X115468582Y-58212597D01*
X115473541Y-58226457D01*
X115477118Y-58240736D01*
X115479278Y-58255297D01*
X115480000Y-58270000D01*
X115480000Y-58570000D01*
X115479278Y-58584703D01*
X115477118Y-58599264D01*
X115473541Y-58613543D01*
X115468582Y-58627403D01*
X115462288Y-58640710D01*
X115454720Y-58653336D01*
X115445952Y-58665159D01*
X115436066Y-58676066D01*
X115425159Y-58685952D01*
X115413336Y-58694720D01*
X115400710Y-58702288D01*
X115387403Y-58708582D01*
X115373543Y-58713541D01*
X115359264Y-58717118D01*
X115344703Y-58719278D01*
X115330000Y-58720000D01*
X113830000Y-58720000D01*
X113815297Y-58719278D01*
X113800736Y-58717118D01*
X113786457Y-58713541D01*
X113772597Y-58708582D01*
X113759290Y-58702288D01*
X113746664Y-58694720D01*
X113734841Y-58685952D01*
X113723934Y-58676066D01*
X113714048Y-58665159D01*
X113705280Y-58653336D01*
X113697712Y-58640710D01*
X113691418Y-58627403D01*
X113686459Y-58613543D01*
X113682882Y-58599264D01*
X113680722Y-58584703D01*
X113680000Y-58570000D01*
X113680000Y-58270000D01*
X113680722Y-58255297D01*
X113682882Y-58240736D01*
X113686459Y-58226457D01*
X113691418Y-58212597D01*
X113697712Y-58199290D01*
X113705280Y-58186664D01*
X113714048Y-58174841D01*
X113723934Y-58163934D01*
X113734841Y-58154048D01*
X113746664Y-58145280D01*
X113759290Y-58137712D01*
X113772597Y-58131418D01*
X113786457Y-58126459D01*
X113800736Y-58122882D01*
X113815297Y-58120722D01*
X113830000Y-58120000D01*
X115330000Y-58120000D01*
X115344703Y-58120722D01*
G37*
%TD.AperFunction*%
%TA.AperFunction,SMDPad,CuDef*%
G36*
X115344703Y-59390722D02*
G01*
X115359264Y-59392882D01*
X115373543Y-59396459D01*
X115387403Y-59401418D01*
X115400710Y-59407712D01*
X115413336Y-59415280D01*
X115425159Y-59424048D01*
X115436066Y-59433934D01*
X115445952Y-59444841D01*
X115454720Y-59456664D01*
X115462288Y-59469290D01*
X115468582Y-59482597D01*
X115473541Y-59496457D01*
X115477118Y-59510736D01*
X115479278Y-59525297D01*
X115480000Y-59540000D01*
X115480000Y-59840000D01*
X115479278Y-59854703D01*
X115477118Y-59869264D01*
X115473541Y-59883543D01*
X115468582Y-59897403D01*
X115462288Y-59910710D01*
X115454720Y-59923336D01*
X115445952Y-59935159D01*
X115436066Y-59946066D01*
X115425159Y-59955952D01*
X115413336Y-59964720D01*
X115400710Y-59972288D01*
X115387403Y-59978582D01*
X115373543Y-59983541D01*
X115359264Y-59987118D01*
X115344703Y-59989278D01*
X115330000Y-59990000D01*
X113830000Y-59990000D01*
X113815297Y-59989278D01*
X113800736Y-59987118D01*
X113786457Y-59983541D01*
X113772597Y-59978582D01*
X113759290Y-59972288D01*
X113746664Y-59964720D01*
X113734841Y-59955952D01*
X113723934Y-59946066D01*
X113714048Y-59935159D01*
X113705280Y-59923336D01*
X113697712Y-59910710D01*
X113691418Y-59897403D01*
X113686459Y-59883543D01*
X113682882Y-59869264D01*
X113680722Y-59854703D01*
X113680000Y-59840000D01*
X113680000Y-59540000D01*
X113680722Y-59525297D01*
X113682882Y-59510736D01*
X113686459Y-59496457D01*
X113691418Y-59482597D01*
X113697712Y-59469290D01*
X113705280Y-59456664D01*
X113714048Y-59444841D01*
X113723934Y-59433934D01*
X113734841Y-59424048D01*
X113746664Y-59415280D01*
X113759290Y-59407712D01*
X113772597Y-59401418D01*
X113786457Y-59396459D01*
X113800736Y-59392882D01*
X113815297Y-59390722D01*
X113830000Y-59390000D01*
X115330000Y-59390000D01*
X115344703Y-59390722D01*
G37*
%TD.AperFunction*%
%TA.AperFunction,SMDPad,CuDef*%
G36*
X115344703Y-60660722D02*
G01*
X115359264Y-60662882D01*
X115373543Y-60666459D01*
X115387403Y-60671418D01*
X115400710Y-60677712D01*
X115413336Y-60685280D01*
X115425159Y-60694048D01*
X115436066Y-60703934D01*
X115445952Y-60714841D01*
X115454720Y-60726664D01*
X115462288Y-60739290D01*
X115468582Y-60752597D01*
X115473541Y-60766457D01*
X115477118Y-60780736D01*
X115479278Y-60795297D01*
X115480000Y-60810000D01*
X115480000Y-61110000D01*
X115479278Y-61124703D01*
X115477118Y-61139264D01*
X115473541Y-61153543D01*
X115468582Y-61167403D01*
X115462288Y-61180710D01*
X115454720Y-61193336D01*
X115445952Y-61205159D01*
X115436066Y-61216066D01*
X115425159Y-61225952D01*
X115413336Y-61234720D01*
X115400710Y-61242288D01*
X115387403Y-61248582D01*
X115373543Y-61253541D01*
X115359264Y-61257118D01*
X115344703Y-61259278D01*
X115330000Y-61260000D01*
X113830000Y-61260000D01*
X113815297Y-61259278D01*
X113800736Y-61257118D01*
X113786457Y-61253541D01*
X113772597Y-61248582D01*
X113759290Y-61242288D01*
X113746664Y-61234720D01*
X113734841Y-61225952D01*
X113723934Y-61216066D01*
X113714048Y-61205159D01*
X113705280Y-61193336D01*
X113697712Y-61180710D01*
X113691418Y-61167403D01*
X113686459Y-61153543D01*
X113682882Y-61139264D01*
X113680722Y-61124703D01*
X113680000Y-61110000D01*
X113680000Y-60810000D01*
X113680722Y-60795297D01*
X113682882Y-60780736D01*
X113686459Y-60766457D01*
X113691418Y-60752597D01*
X113697712Y-60739290D01*
X113705280Y-60726664D01*
X113714048Y-60714841D01*
X113723934Y-60703934D01*
X113734841Y-60694048D01*
X113746664Y-60685280D01*
X113759290Y-60677712D01*
X113772597Y-60671418D01*
X113786457Y-60666459D01*
X113800736Y-60662882D01*
X113815297Y-60660722D01*
X113830000Y-60660000D01*
X115330000Y-60660000D01*
X115344703Y-60660722D01*
G37*
%TD.AperFunction*%
%TA.AperFunction,SMDPad,CuDef*%
G36*
X115344703Y-61930722D02*
G01*
X115359264Y-61932882D01*
X115373543Y-61936459D01*
X115387403Y-61941418D01*
X115400710Y-61947712D01*
X115413336Y-61955280D01*
X115425159Y-61964048D01*
X115436066Y-61973934D01*
X115445952Y-61984841D01*
X115454720Y-61996664D01*
X115462288Y-62009290D01*
X115468582Y-62022597D01*
X115473541Y-62036457D01*
X115477118Y-62050736D01*
X115479278Y-62065297D01*
X115480000Y-62080000D01*
X115480000Y-62380000D01*
X115479278Y-62394703D01*
X115477118Y-62409264D01*
X115473541Y-62423543D01*
X115468582Y-62437403D01*
X115462288Y-62450710D01*
X115454720Y-62463336D01*
X115445952Y-62475159D01*
X115436066Y-62486066D01*
X115425159Y-62495952D01*
X115413336Y-62504720D01*
X115400710Y-62512288D01*
X115387403Y-62518582D01*
X115373543Y-62523541D01*
X115359264Y-62527118D01*
X115344703Y-62529278D01*
X115330000Y-62530000D01*
X113830000Y-62530000D01*
X113815297Y-62529278D01*
X113800736Y-62527118D01*
X113786457Y-62523541D01*
X113772597Y-62518582D01*
X113759290Y-62512288D01*
X113746664Y-62504720D01*
X113734841Y-62495952D01*
X113723934Y-62486066D01*
X113714048Y-62475159D01*
X113705280Y-62463336D01*
X113697712Y-62450710D01*
X113691418Y-62437403D01*
X113686459Y-62423543D01*
X113682882Y-62409264D01*
X113680722Y-62394703D01*
X113680000Y-62380000D01*
X113680000Y-62080000D01*
X113680722Y-62065297D01*
X113682882Y-62050736D01*
X113686459Y-62036457D01*
X113691418Y-62022597D01*
X113697712Y-62009290D01*
X113705280Y-61996664D01*
X113714048Y-61984841D01*
X113723934Y-61973934D01*
X113734841Y-61964048D01*
X113746664Y-61955280D01*
X113759290Y-61947712D01*
X113772597Y-61941418D01*
X113786457Y-61936459D01*
X113800736Y-61932882D01*
X113815297Y-61930722D01*
X113830000Y-61930000D01*
X115330000Y-61930000D01*
X115344703Y-61930722D01*
G37*
%TD.AperFunction*%
%TA.AperFunction,SMDPad,CuDef*%
G36*
X115344703Y-63200722D02*
G01*
X115359264Y-63202882D01*
X115373543Y-63206459D01*
X115387403Y-63211418D01*
X115400710Y-63217712D01*
X115413336Y-63225280D01*
X115425159Y-63234048D01*
X115436066Y-63243934D01*
X115445952Y-63254841D01*
X115454720Y-63266664D01*
X115462288Y-63279290D01*
X115468582Y-63292597D01*
X115473541Y-63306457D01*
X115477118Y-63320736D01*
X115479278Y-63335297D01*
X115480000Y-63350000D01*
X115480000Y-63650000D01*
X115479278Y-63664703D01*
X115477118Y-63679264D01*
X115473541Y-63693543D01*
X115468582Y-63707403D01*
X115462288Y-63720710D01*
X115454720Y-63733336D01*
X115445952Y-63745159D01*
X115436066Y-63756066D01*
X115425159Y-63765952D01*
X115413336Y-63774720D01*
X115400710Y-63782288D01*
X115387403Y-63788582D01*
X115373543Y-63793541D01*
X115359264Y-63797118D01*
X115344703Y-63799278D01*
X115330000Y-63800000D01*
X113830000Y-63800000D01*
X113815297Y-63799278D01*
X113800736Y-63797118D01*
X113786457Y-63793541D01*
X113772597Y-63788582D01*
X113759290Y-63782288D01*
X113746664Y-63774720D01*
X113734841Y-63765952D01*
X113723934Y-63756066D01*
X113714048Y-63745159D01*
X113705280Y-63733336D01*
X113697712Y-63720710D01*
X113691418Y-63707403D01*
X113686459Y-63693543D01*
X113682882Y-63679264D01*
X113680722Y-63664703D01*
X113680000Y-63650000D01*
X113680000Y-63350000D01*
X113680722Y-63335297D01*
X113682882Y-63320736D01*
X113686459Y-63306457D01*
X113691418Y-63292597D01*
X113697712Y-63279290D01*
X113705280Y-63266664D01*
X113714048Y-63254841D01*
X113723934Y-63243934D01*
X113734841Y-63234048D01*
X113746664Y-63225280D01*
X113759290Y-63217712D01*
X113772597Y-63211418D01*
X113786457Y-63206459D01*
X113800736Y-63202882D01*
X113815297Y-63200722D01*
X113830000Y-63200000D01*
X115330000Y-63200000D01*
X115344703Y-63200722D01*
G37*
%TD.AperFunction*%
%TA.AperFunction,SMDPad,CuDef*%
G36*
X115344703Y-64470722D02*
G01*
X115359264Y-64472882D01*
X115373543Y-64476459D01*
X115387403Y-64481418D01*
X115400710Y-64487712D01*
X115413336Y-64495280D01*
X115425159Y-64504048D01*
X115436066Y-64513934D01*
X115445952Y-64524841D01*
X115454720Y-64536664D01*
X115462288Y-64549290D01*
X115468582Y-64562597D01*
X115473541Y-64576457D01*
X115477118Y-64590736D01*
X115479278Y-64605297D01*
X115480000Y-64620000D01*
X115480000Y-64920000D01*
X115479278Y-64934703D01*
X115477118Y-64949264D01*
X115473541Y-64963543D01*
X115468582Y-64977403D01*
X115462288Y-64990710D01*
X115454720Y-65003336D01*
X115445952Y-65015159D01*
X115436066Y-65026066D01*
X115425159Y-65035952D01*
X115413336Y-65044720D01*
X115400710Y-65052288D01*
X115387403Y-65058582D01*
X115373543Y-65063541D01*
X115359264Y-65067118D01*
X115344703Y-65069278D01*
X115330000Y-65070000D01*
X113830000Y-65070000D01*
X113815297Y-65069278D01*
X113800736Y-65067118D01*
X113786457Y-65063541D01*
X113772597Y-65058582D01*
X113759290Y-65052288D01*
X113746664Y-65044720D01*
X113734841Y-65035952D01*
X113723934Y-65026066D01*
X113714048Y-65015159D01*
X113705280Y-65003336D01*
X113697712Y-64990710D01*
X113691418Y-64977403D01*
X113686459Y-64963543D01*
X113682882Y-64949264D01*
X113680722Y-64934703D01*
X113680000Y-64920000D01*
X113680000Y-64620000D01*
X113680722Y-64605297D01*
X113682882Y-64590736D01*
X113686459Y-64576457D01*
X113691418Y-64562597D01*
X113697712Y-64549290D01*
X113705280Y-64536664D01*
X113714048Y-64524841D01*
X113723934Y-64513934D01*
X113734841Y-64504048D01*
X113746664Y-64495280D01*
X113759290Y-64487712D01*
X113772597Y-64481418D01*
X113786457Y-64476459D01*
X113800736Y-64472882D01*
X113815297Y-64470722D01*
X113830000Y-64470000D01*
X115330000Y-64470000D01*
X115344703Y-64470722D01*
G37*
%TD.AperFunction*%
%TA.AperFunction,SMDPad,CuDef*%
G36*
X115344703Y-65740722D02*
G01*
X115359264Y-65742882D01*
X115373543Y-65746459D01*
X115387403Y-65751418D01*
X115400710Y-65757712D01*
X115413336Y-65765280D01*
X115425159Y-65774048D01*
X115436066Y-65783934D01*
X115445952Y-65794841D01*
X115454720Y-65806664D01*
X115462288Y-65819290D01*
X115468582Y-65832597D01*
X115473541Y-65846457D01*
X115477118Y-65860736D01*
X115479278Y-65875297D01*
X115480000Y-65890000D01*
X115480000Y-66190000D01*
X115479278Y-66204703D01*
X115477118Y-66219264D01*
X115473541Y-66233543D01*
X115468582Y-66247403D01*
X115462288Y-66260710D01*
X115454720Y-66273336D01*
X115445952Y-66285159D01*
X115436066Y-66296066D01*
X115425159Y-66305952D01*
X115413336Y-66314720D01*
X115400710Y-66322288D01*
X115387403Y-66328582D01*
X115373543Y-66333541D01*
X115359264Y-66337118D01*
X115344703Y-66339278D01*
X115330000Y-66340000D01*
X113830000Y-66340000D01*
X113815297Y-66339278D01*
X113800736Y-66337118D01*
X113786457Y-66333541D01*
X113772597Y-66328582D01*
X113759290Y-66322288D01*
X113746664Y-66314720D01*
X113734841Y-66305952D01*
X113723934Y-66296066D01*
X113714048Y-66285159D01*
X113705280Y-66273336D01*
X113697712Y-66260710D01*
X113691418Y-66247403D01*
X113686459Y-66233543D01*
X113682882Y-66219264D01*
X113680722Y-66204703D01*
X113680000Y-66190000D01*
X113680000Y-65890000D01*
X113680722Y-65875297D01*
X113682882Y-65860736D01*
X113686459Y-65846457D01*
X113691418Y-65832597D01*
X113697712Y-65819290D01*
X113705280Y-65806664D01*
X113714048Y-65794841D01*
X113723934Y-65783934D01*
X113734841Y-65774048D01*
X113746664Y-65765280D01*
X113759290Y-65757712D01*
X113772597Y-65751418D01*
X113786457Y-65746459D01*
X113800736Y-65742882D01*
X113815297Y-65740722D01*
X113830000Y-65740000D01*
X115330000Y-65740000D01*
X115344703Y-65740722D01*
G37*
%TD.AperFunction*%
%TA.AperFunction,SMDPad,CuDef*%
G36*
X115344703Y-67010722D02*
G01*
X115359264Y-67012882D01*
X115373543Y-67016459D01*
X115387403Y-67021418D01*
X115400710Y-67027712D01*
X115413336Y-67035280D01*
X115425159Y-67044048D01*
X115436066Y-67053934D01*
X115445952Y-67064841D01*
X115454720Y-67076664D01*
X115462288Y-67089290D01*
X115468582Y-67102597D01*
X115473541Y-67116457D01*
X115477118Y-67130736D01*
X115479278Y-67145297D01*
X115480000Y-67160000D01*
X115480000Y-67460000D01*
X115479278Y-67474703D01*
X115477118Y-67489264D01*
X115473541Y-67503543D01*
X115468582Y-67517403D01*
X115462288Y-67530710D01*
X115454720Y-67543336D01*
X115445952Y-67555159D01*
X115436066Y-67566066D01*
X115425159Y-67575952D01*
X115413336Y-67584720D01*
X115400710Y-67592288D01*
X115387403Y-67598582D01*
X115373543Y-67603541D01*
X115359264Y-67607118D01*
X115344703Y-67609278D01*
X115330000Y-67610000D01*
X113830000Y-67610000D01*
X113815297Y-67609278D01*
X113800736Y-67607118D01*
X113786457Y-67603541D01*
X113772597Y-67598582D01*
X113759290Y-67592288D01*
X113746664Y-67584720D01*
X113734841Y-67575952D01*
X113723934Y-67566066D01*
X113714048Y-67555159D01*
X113705280Y-67543336D01*
X113697712Y-67530710D01*
X113691418Y-67517403D01*
X113686459Y-67503543D01*
X113682882Y-67489264D01*
X113680722Y-67474703D01*
X113680000Y-67460000D01*
X113680000Y-67160000D01*
X113680722Y-67145297D01*
X113682882Y-67130736D01*
X113686459Y-67116457D01*
X113691418Y-67102597D01*
X113697712Y-67089290D01*
X113705280Y-67076664D01*
X113714048Y-67064841D01*
X113723934Y-67053934D01*
X113734841Y-67044048D01*
X113746664Y-67035280D01*
X113759290Y-67027712D01*
X113772597Y-67021418D01*
X113786457Y-67016459D01*
X113800736Y-67012882D01*
X113815297Y-67010722D01*
X113830000Y-67010000D01*
X115330000Y-67010000D01*
X115344703Y-67010722D01*
G37*
%TD.AperFunction*%
%TA.AperFunction,SMDPad,CuDef*%
G36*
X115344703Y-68280722D02*
G01*
X115359264Y-68282882D01*
X115373543Y-68286459D01*
X115387403Y-68291418D01*
X115400710Y-68297712D01*
X115413336Y-68305280D01*
X115425159Y-68314048D01*
X115436066Y-68323934D01*
X115445952Y-68334841D01*
X115454720Y-68346664D01*
X115462288Y-68359290D01*
X115468582Y-68372597D01*
X115473541Y-68386457D01*
X115477118Y-68400736D01*
X115479278Y-68415297D01*
X115480000Y-68430000D01*
X115480000Y-68730000D01*
X115479278Y-68744703D01*
X115477118Y-68759264D01*
X115473541Y-68773543D01*
X115468582Y-68787403D01*
X115462288Y-68800710D01*
X115454720Y-68813336D01*
X115445952Y-68825159D01*
X115436066Y-68836066D01*
X115425159Y-68845952D01*
X115413336Y-68854720D01*
X115400710Y-68862288D01*
X115387403Y-68868582D01*
X115373543Y-68873541D01*
X115359264Y-68877118D01*
X115344703Y-68879278D01*
X115330000Y-68880000D01*
X113830000Y-68880000D01*
X113815297Y-68879278D01*
X113800736Y-68877118D01*
X113786457Y-68873541D01*
X113772597Y-68868582D01*
X113759290Y-68862288D01*
X113746664Y-68854720D01*
X113734841Y-68845952D01*
X113723934Y-68836066D01*
X113714048Y-68825159D01*
X113705280Y-68813336D01*
X113697712Y-68800710D01*
X113691418Y-68787403D01*
X113686459Y-68773543D01*
X113682882Y-68759264D01*
X113680722Y-68744703D01*
X113680000Y-68730000D01*
X113680000Y-68430000D01*
X113680722Y-68415297D01*
X113682882Y-68400736D01*
X113686459Y-68386457D01*
X113691418Y-68372597D01*
X113697712Y-68359290D01*
X113705280Y-68346664D01*
X113714048Y-68334841D01*
X113723934Y-68323934D01*
X113734841Y-68314048D01*
X113746664Y-68305280D01*
X113759290Y-68297712D01*
X113772597Y-68291418D01*
X113786457Y-68286459D01*
X113800736Y-68282882D01*
X113815297Y-68280722D01*
X113830000Y-68280000D01*
X115330000Y-68280000D01*
X115344703Y-68280722D01*
G37*
%TD.AperFunction*%
%TA.AperFunction,SMDPad,CuDef*%
G36*
X115344703Y-69550722D02*
G01*
X115359264Y-69552882D01*
X115373543Y-69556459D01*
X115387403Y-69561418D01*
X115400710Y-69567712D01*
X115413336Y-69575280D01*
X115425159Y-69584048D01*
X115436066Y-69593934D01*
X115445952Y-69604841D01*
X115454720Y-69616664D01*
X115462288Y-69629290D01*
X115468582Y-69642597D01*
X115473541Y-69656457D01*
X115477118Y-69670736D01*
X115479278Y-69685297D01*
X115480000Y-69700000D01*
X115480000Y-70000000D01*
X115479278Y-70014703D01*
X115477118Y-70029264D01*
X115473541Y-70043543D01*
X115468582Y-70057403D01*
X115462288Y-70070710D01*
X115454720Y-70083336D01*
X115445952Y-70095159D01*
X115436066Y-70106066D01*
X115425159Y-70115952D01*
X115413336Y-70124720D01*
X115400710Y-70132288D01*
X115387403Y-70138582D01*
X115373543Y-70143541D01*
X115359264Y-70147118D01*
X115344703Y-70149278D01*
X115330000Y-70150000D01*
X113830000Y-70150000D01*
X113815297Y-70149278D01*
X113800736Y-70147118D01*
X113786457Y-70143541D01*
X113772597Y-70138582D01*
X113759290Y-70132288D01*
X113746664Y-70124720D01*
X113734841Y-70115952D01*
X113723934Y-70106066D01*
X113714048Y-70095159D01*
X113705280Y-70083336D01*
X113697712Y-70070710D01*
X113691418Y-70057403D01*
X113686459Y-70043543D01*
X113682882Y-70029264D01*
X113680722Y-70014703D01*
X113680000Y-70000000D01*
X113680000Y-69700000D01*
X113680722Y-69685297D01*
X113682882Y-69670736D01*
X113686459Y-69656457D01*
X113691418Y-69642597D01*
X113697712Y-69629290D01*
X113705280Y-69616664D01*
X113714048Y-69604841D01*
X113723934Y-69593934D01*
X113734841Y-69584048D01*
X113746664Y-69575280D01*
X113759290Y-69567712D01*
X113772597Y-69561418D01*
X113786457Y-69556459D01*
X113800736Y-69552882D01*
X113815297Y-69550722D01*
X113830000Y-69550000D01*
X115330000Y-69550000D01*
X115344703Y-69550722D01*
G37*
%TD.AperFunction*%
%TA.AperFunction,SMDPad,CuDef*%
G36*
X122187351Y-35890361D02*
G01*
X122194632Y-35891441D01*
X122201771Y-35893229D01*
X122208701Y-35895709D01*
X122215355Y-35898856D01*
X122221668Y-35902640D01*
X122227579Y-35907024D01*
X122233033Y-35911967D01*
X122237976Y-35917421D01*
X122242360Y-35923332D01*
X122246144Y-35929645D01*
X122249291Y-35936299D01*
X122251771Y-35943229D01*
X122253559Y-35950368D01*
X122254639Y-35957649D01*
X122255000Y-35965000D01*
X122255000Y-36115000D01*
X122254639Y-36122351D01*
X122253559Y-36129632D01*
X122251771Y-36136771D01*
X122249291Y-36143701D01*
X122246144Y-36150355D01*
X122242360Y-36156668D01*
X122237976Y-36162579D01*
X122233033Y-36168033D01*
X122227579Y-36172976D01*
X122221668Y-36177360D01*
X122215355Y-36181144D01*
X122208701Y-36184291D01*
X122201771Y-36186771D01*
X122194632Y-36188559D01*
X122187351Y-36189639D01*
X122180000Y-36190000D01*
X120880000Y-36190000D01*
X120872649Y-36189639D01*
X120865368Y-36188559D01*
X120858229Y-36186771D01*
X120851299Y-36184291D01*
X120844645Y-36181144D01*
X120838332Y-36177360D01*
X120832421Y-36172976D01*
X120826967Y-36168033D01*
X120822024Y-36162579D01*
X120817640Y-36156668D01*
X120813856Y-36150355D01*
X120810709Y-36143701D01*
X120808229Y-36136771D01*
X120806441Y-36129632D01*
X120805361Y-36122351D01*
X120805000Y-36115000D01*
X120805000Y-35965000D01*
X120805361Y-35957649D01*
X120806441Y-35950368D01*
X120808229Y-35943229D01*
X120810709Y-35936299D01*
X120813856Y-35929645D01*
X120817640Y-35923332D01*
X120822024Y-35917421D01*
X120826967Y-35911967D01*
X120832421Y-35907024D01*
X120838332Y-35902640D01*
X120844645Y-35898856D01*
X120851299Y-35895709D01*
X120858229Y-35893229D01*
X120865368Y-35891441D01*
X120872649Y-35890361D01*
X120880000Y-35890000D01*
X122180000Y-35890000D01*
X122187351Y-35890361D01*
G37*
%TD.AperFunction*%
%TA.AperFunction,SMDPad,CuDef*%
G36*
X122187351Y-35390361D02*
G01*
X122194632Y-35391441D01*
X122201771Y-35393229D01*
X122208701Y-35395709D01*
X122215355Y-35398856D01*
X122221668Y-35402640D01*
X122227579Y-35407024D01*
X122233033Y-35411967D01*
X122237976Y-35417421D01*
X122242360Y-35423332D01*
X122246144Y-35429645D01*
X122249291Y-35436299D01*
X122251771Y-35443229D01*
X122253559Y-35450368D01*
X122254639Y-35457649D01*
X122255000Y-35465000D01*
X122255000Y-35615000D01*
X122254639Y-35622351D01*
X122253559Y-35629632D01*
X122251771Y-35636771D01*
X122249291Y-35643701D01*
X122246144Y-35650355D01*
X122242360Y-35656668D01*
X122237976Y-35662579D01*
X122233033Y-35668033D01*
X122227579Y-35672976D01*
X122221668Y-35677360D01*
X122215355Y-35681144D01*
X122208701Y-35684291D01*
X122201771Y-35686771D01*
X122194632Y-35688559D01*
X122187351Y-35689639D01*
X122180000Y-35690000D01*
X120880000Y-35690000D01*
X120872649Y-35689639D01*
X120865368Y-35688559D01*
X120858229Y-35686771D01*
X120851299Y-35684291D01*
X120844645Y-35681144D01*
X120838332Y-35677360D01*
X120832421Y-35672976D01*
X120826967Y-35668033D01*
X120822024Y-35662579D01*
X120817640Y-35656668D01*
X120813856Y-35650355D01*
X120810709Y-35643701D01*
X120808229Y-35636771D01*
X120806441Y-35629632D01*
X120805361Y-35622351D01*
X120805000Y-35615000D01*
X120805000Y-35465000D01*
X120805361Y-35457649D01*
X120806441Y-35450368D01*
X120808229Y-35443229D01*
X120810709Y-35436299D01*
X120813856Y-35429645D01*
X120817640Y-35423332D01*
X120822024Y-35417421D01*
X120826967Y-35411967D01*
X120832421Y-35407024D01*
X120838332Y-35402640D01*
X120844645Y-35398856D01*
X120851299Y-35395709D01*
X120858229Y-35393229D01*
X120865368Y-35391441D01*
X120872649Y-35390361D01*
X120880000Y-35390000D01*
X122180000Y-35390000D01*
X122187351Y-35390361D01*
G37*
%TD.AperFunction*%
%TA.AperFunction,SMDPad,CuDef*%
G36*
X122187351Y-34890361D02*
G01*
X122194632Y-34891441D01*
X122201771Y-34893229D01*
X122208701Y-34895709D01*
X122215355Y-34898856D01*
X122221668Y-34902640D01*
X122227579Y-34907024D01*
X122233033Y-34911967D01*
X122237976Y-34917421D01*
X122242360Y-34923332D01*
X122246144Y-34929645D01*
X122249291Y-34936299D01*
X122251771Y-34943229D01*
X122253559Y-34950368D01*
X122254639Y-34957649D01*
X122255000Y-34965000D01*
X122255000Y-35115000D01*
X122254639Y-35122351D01*
X122253559Y-35129632D01*
X122251771Y-35136771D01*
X122249291Y-35143701D01*
X122246144Y-35150355D01*
X122242360Y-35156668D01*
X122237976Y-35162579D01*
X122233033Y-35168033D01*
X122227579Y-35172976D01*
X122221668Y-35177360D01*
X122215355Y-35181144D01*
X122208701Y-35184291D01*
X122201771Y-35186771D01*
X122194632Y-35188559D01*
X122187351Y-35189639D01*
X122180000Y-35190000D01*
X120880000Y-35190000D01*
X120872649Y-35189639D01*
X120865368Y-35188559D01*
X120858229Y-35186771D01*
X120851299Y-35184291D01*
X120844645Y-35181144D01*
X120838332Y-35177360D01*
X120832421Y-35172976D01*
X120826967Y-35168033D01*
X120822024Y-35162579D01*
X120817640Y-35156668D01*
X120813856Y-35150355D01*
X120810709Y-35143701D01*
X120808229Y-35136771D01*
X120806441Y-35129632D01*
X120805361Y-35122351D01*
X120805000Y-35115000D01*
X120805000Y-34965000D01*
X120805361Y-34957649D01*
X120806441Y-34950368D01*
X120808229Y-34943229D01*
X120810709Y-34936299D01*
X120813856Y-34929645D01*
X120817640Y-34923332D01*
X120822024Y-34917421D01*
X120826967Y-34911967D01*
X120832421Y-34907024D01*
X120838332Y-34902640D01*
X120844645Y-34898856D01*
X120851299Y-34895709D01*
X120858229Y-34893229D01*
X120865368Y-34891441D01*
X120872649Y-34890361D01*
X120880000Y-34890000D01*
X122180000Y-34890000D01*
X122187351Y-34890361D01*
G37*
%TD.AperFunction*%
%TA.AperFunction,SMDPad,CuDef*%
G36*
X122187351Y-34390361D02*
G01*
X122194632Y-34391441D01*
X122201771Y-34393229D01*
X122208701Y-34395709D01*
X122215355Y-34398856D01*
X122221668Y-34402640D01*
X122227579Y-34407024D01*
X122233033Y-34411967D01*
X122237976Y-34417421D01*
X122242360Y-34423332D01*
X122246144Y-34429645D01*
X122249291Y-34436299D01*
X122251771Y-34443229D01*
X122253559Y-34450368D01*
X122254639Y-34457649D01*
X122255000Y-34465000D01*
X122255000Y-34615000D01*
X122254639Y-34622351D01*
X122253559Y-34629632D01*
X122251771Y-34636771D01*
X122249291Y-34643701D01*
X122246144Y-34650355D01*
X122242360Y-34656668D01*
X122237976Y-34662579D01*
X122233033Y-34668033D01*
X122227579Y-34672976D01*
X122221668Y-34677360D01*
X122215355Y-34681144D01*
X122208701Y-34684291D01*
X122201771Y-34686771D01*
X122194632Y-34688559D01*
X122187351Y-34689639D01*
X122180000Y-34690000D01*
X120880000Y-34690000D01*
X120872649Y-34689639D01*
X120865368Y-34688559D01*
X120858229Y-34686771D01*
X120851299Y-34684291D01*
X120844645Y-34681144D01*
X120838332Y-34677360D01*
X120832421Y-34672976D01*
X120826967Y-34668033D01*
X120822024Y-34662579D01*
X120817640Y-34656668D01*
X120813856Y-34650355D01*
X120810709Y-34643701D01*
X120808229Y-34636771D01*
X120806441Y-34629632D01*
X120805361Y-34622351D01*
X120805000Y-34615000D01*
X120805000Y-34465000D01*
X120805361Y-34457649D01*
X120806441Y-34450368D01*
X120808229Y-34443229D01*
X120810709Y-34436299D01*
X120813856Y-34429645D01*
X120817640Y-34423332D01*
X120822024Y-34417421D01*
X120826967Y-34411967D01*
X120832421Y-34407024D01*
X120838332Y-34402640D01*
X120844645Y-34398856D01*
X120851299Y-34395709D01*
X120858229Y-34393229D01*
X120865368Y-34391441D01*
X120872649Y-34390361D01*
X120880000Y-34390000D01*
X122180000Y-34390000D01*
X122187351Y-34390361D01*
G37*
%TD.AperFunction*%
%TA.AperFunction,SMDPad,CuDef*%
G36*
X122187351Y-33890361D02*
G01*
X122194632Y-33891441D01*
X122201771Y-33893229D01*
X122208701Y-33895709D01*
X122215355Y-33898856D01*
X122221668Y-33902640D01*
X122227579Y-33907024D01*
X122233033Y-33911967D01*
X122237976Y-33917421D01*
X122242360Y-33923332D01*
X122246144Y-33929645D01*
X122249291Y-33936299D01*
X122251771Y-33943229D01*
X122253559Y-33950368D01*
X122254639Y-33957649D01*
X122255000Y-33965000D01*
X122255000Y-34115000D01*
X122254639Y-34122351D01*
X122253559Y-34129632D01*
X122251771Y-34136771D01*
X122249291Y-34143701D01*
X122246144Y-34150355D01*
X122242360Y-34156668D01*
X122237976Y-34162579D01*
X122233033Y-34168033D01*
X122227579Y-34172976D01*
X122221668Y-34177360D01*
X122215355Y-34181144D01*
X122208701Y-34184291D01*
X122201771Y-34186771D01*
X122194632Y-34188559D01*
X122187351Y-34189639D01*
X122180000Y-34190000D01*
X120880000Y-34190000D01*
X120872649Y-34189639D01*
X120865368Y-34188559D01*
X120858229Y-34186771D01*
X120851299Y-34184291D01*
X120844645Y-34181144D01*
X120838332Y-34177360D01*
X120832421Y-34172976D01*
X120826967Y-34168033D01*
X120822024Y-34162579D01*
X120817640Y-34156668D01*
X120813856Y-34150355D01*
X120810709Y-34143701D01*
X120808229Y-34136771D01*
X120806441Y-34129632D01*
X120805361Y-34122351D01*
X120805000Y-34115000D01*
X120805000Y-33965000D01*
X120805361Y-33957649D01*
X120806441Y-33950368D01*
X120808229Y-33943229D01*
X120810709Y-33936299D01*
X120813856Y-33929645D01*
X120817640Y-33923332D01*
X120822024Y-33917421D01*
X120826967Y-33911967D01*
X120832421Y-33907024D01*
X120838332Y-33902640D01*
X120844645Y-33898856D01*
X120851299Y-33895709D01*
X120858229Y-33893229D01*
X120865368Y-33891441D01*
X120872649Y-33890361D01*
X120880000Y-33890000D01*
X122180000Y-33890000D01*
X122187351Y-33890361D01*
G37*
%TD.AperFunction*%
%TA.AperFunction,SMDPad,CuDef*%
G36*
X122187351Y-33390361D02*
G01*
X122194632Y-33391441D01*
X122201771Y-33393229D01*
X122208701Y-33395709D01*
X122215355Y-33398856D01*
X122221668Y-33402640D01*
X122227579Y-33407024D01*
X122233033Y-33411967D01*
X122237976Y-33417421D01*
X122242360Y-33423332D01*
X122246144Y-33429645D01*
X122249291Y-33436299D01*
X122251771Y-33443229D01*
X122253559Y-33450368D01*
X122254639Y-33457649D01*
X122255000Y-33465000D01*
X122255000Y-33615000D01*
X122254639Y-33622351D01*
X122253559Y-33629632D01*
X122251771Y-33636771D01*
X122249291Y-33643701D01*
X122246144Y-33650355D01*
X122242360Y-33656668D01*
X122237976Y-33662579D01*
X122233033Y-33668033D01*
X122227579Y-33672976D01*
X122221668Y-33677360D01*
X122215355Y-33681144D01*
X122208701Y-33684291D01*
X122201771Y-33686771D01*
X122194632Y-33688559D01*
X122187351Y-33689639D01*
X122180000Y-33690000D01*
X120880000Y-33690000D01*
X120872649Y-33689639D01*
X120865368Y-33688559D01*
X120858229Y-33686771D01*
X120851299Y-33684291D01*
X120844645Y-33681144D01*
X120838332Y-33677360D01*
X120832421Y-33672976D01*
X120826967Y-33668033D01*
X120822024Y-33662579D01*
X120817640Y-33656668D01*
X120813856Y-33650355D01*
X120810709Y-33643701D01*
X120808229Y-33636771D01*
X120806441Y-33629632D01*
X120805361Y-33622351D01*
X120805000Y-33615000D01*
X120805000Y-33465000D01*
X120805361Y-33457649D01*
X120806441Y-33450368D01*
X120808229Y-33443229D01*
X120810709Y-33436299D01*
X120813856Y-33429645D01*
X120817640Y-33423332D01*
X120822024Y-33417421D01*
X120826967Y-33411967D01*
X120832421Y-33407024D01*
X120838332Y-33402640D01*
X120844645Y-33398856D01*
X120851299Y-33395709D01*
X120858229Y-33393229D01*
X120865368Y-33391441D01*
X120872649Y-33390361D01*
X120880000Y-33390000D01*
X122180000Y-33390000D01*
X122187351Y-33390361D01*
G37*
%TD.AperFunction*%
%TA.AperFunction,SMDPad,CuDef*%
G36*
X122187351Y-32890361D02*
G01*
X122194632Y-32891441D01*
X122201771Y-32893229D01*
X122208701Y-32895709D01*
X122215355Y-32898856D01*
X122221668Y-32902640D01*
X122227579Y-32907024D01*
X122233033Y-32911967D01*
X122237976Y-32917421D01*
X122242360Y-32923332D01*
X122246144Y-32929645D01*
X122249291Y-32936299D01*
X122251771Y-32943229D01*
X122253559Y-32950368D01*
X122254639Y-32957649D01*
X122255000Y-32965000D01*
X122255000Y-33115000D01*
X122254639Y-33122351D01*
X122253559Y-33129632D01*
X122251771Y-33136771D01*
X122249291Y-33143701D01*
X122246144Y-33150355D01*
X122242360Y-33156668D01*
X122237976Y-33162579D01*
X122233033Y-33168033D01*
X122227579Y-33172976D01*
X122221668Y-33177360D01*
X122215355Y-33181144D01*
X122208701Y-33184291D01*
X122201771Y-33186771D01*
X122194632Y-33188559D01*
X122187351Y-33189639D01*
X122180000Y-33190000D01*
X120880000Y-33190000D01*
X120872649Y-33189639D01*
X120865368Y-33188559D01*
X120858229Y-33186771D01*
X120851299Y-33184291D01*
X120844645Y-33181144D01*
X120838332Y-33177360D01*
X120832421Y-33172976D01*
X120826967Y-33168033D01*
X120822024Y-33162579D01*
X120817640Y-33156668D01*
X120813856Y-33150355D01*
X120810709Y-33143701D01*
X120808229Y-33136771D01*
X120806441Y-33129632D01*
X120805361Y-33122351D01*
X120805000Y-33115000D01*
X120805000Y-32965000D01*
X120805361Y-32957649D01*
X120806441Y-32950368D01*
X120808229Y-32943229D01*
X120810709Y-32936299D01*
X120813856Y-32929645D01*
X120817640Y-32923332D01*
X120822024Y-32917421D01*
X120826967Y-32911967D01*
X120832421Y-32907024D01*
X120838332Y-32902640D01*
X120844645Y-32898856D01*
X120851299Y-32895709D01*
X120858229Y-32893229D01*
X120865368Y-32891441D01*
X120872649Y-32890361D01*
X120880000Y-32890000D01*
X122180000Y-32890000D01*
X122187351Y-32890361D01*
G37*
%TD.AperFunction*%
%TA.AperFunction,SMDPad,CuDef*%
G36*
X122187351Y-32390361D02*
G01*
X122194632Y-32391441D01*
X122201771Y-32393229D01*
X122208701Y-32395709D01*
X122215355Y-32398856D01*
X122221668Y-32402640D01*
X122227579Y-32407024D01*
X122233033Y-32411967D01*
X122237976Y-32417421D01*
X122242360Y-32423332D01*
X122246144Y-32429645D01*
X122249291Y-32436299D01*
X122251771Y-32443229D01*
X122253559Y-32450368D01*
X122254639Y-32457649D01*
X122255000Y-32465000D01*
X122255000Y-32615000D01*
X122254639Y-32622351D01*
X122253559Y-32629632D01*
X122251771Y-32636771D01*
X122249291Y-32643701D01*
X122246144Y-32650355D01*
X122242360Y-32656668D01*
X122237976Y-32662579D01*
X122233033Y-32668033D01*
X122227579Y-32672976D01*
X122221668Y-32677360D01*
X122215355Y-32681144D01*
X122208701Y-32684291D01*
X122201771Y-32686771D01*
X122194632Y-32688559D01*
X122187351Y-32689639D01*
X122180000Y-32690000D01*
X120880000Y-32690000D01*
X120872649Y-32689639D01*
X120865368Y-32688559D01*
X120858229Y-32686771D01*
X120851299Y-32684291D01*
X120844645Y-32681144D01*
X120838332Y-32677360D01*
X120832421Y-32672976D01*
X120826967Y-32668033D01*
X120822024Y-32662579D01*
X120817640Y-32656668D01*
X120813856Y-32650355D01*
X120810709Y-32643701D01*
X120808229Y-32636771D01*
X120806441Y-32629632D01*
X120805361Y-32622351D01*
X120805000Y-32615000D01*
X120805000Y-32465000D01*
X120805361Y-32457649D01*
X120806441Y-32450368D01*
X120808229Y-32443229D01*
X120810709Y-32436299D01*
X120813856Y-32429645D01*
X120817640Y-32423332D01*
X120822024Y-32417421D01*
X120826967Y-32411967D01*
X120832421Y-32407024D01*
X120838332Y-32402640D01*
X120844645Y-32398856D01*
X120851299Y-32395709D01*
X120858229Y-32393229D01*
X120865368Y-32391441D01*
X120872649Y-32390361D01*
X120880000Y-32390000D01*
X122180000Y-32390000D01*
X122187351Y-32390361D01*
G37*
%TD.AperFunction*%
%TA.AperFunction,SMDPad,CuDef*%
G36*
X117887351Y-32390361D02*
G01*
X117894632Y-32391441D01*
X117901771Y-32393229D01*
X117908701Y-32395709D01*
X117915355Y-32398856D01*
X117921668Y-32402640D01*
X117927579Y-32407024D01*
X117933033Y-32411967D01*
X117937976Y-32417421D01*
X117942360Y-32423332D01*
X117946144Y-32429645D01*
X117949291Y-32436299D01*
X117951771Y-32443229D01*
X117953559Y-32450368D01*
X117954639Y-32457649D01*
X117955000Y-32465000D01*
X117955000Y-32615000D01*
X117954639Y-32622351D01*
X117953559Y-32629632D01*
X117951771Y-32636771D01*
X117949291Y-32643701D01*
X117946144Y-32650355D01*
X117942360Y-32656668D01*
X117937976Y-32662579D01*
X117933033Y-32668033D01*
X117927579Y-32672976D01*
X117921668Y-32677360D01*
X117915355Y-32681144D01*
X117908701Y-32684291D01*
X117901771Y-32686771D01*
X117894632Y-32688559D01*
X117887351Y-32689639D01*
X117880000Y-32690000D01*
X116580000Y-32690000D01*
X116572649Y-32689639D01*
X116565368Y-32688559D01*
X116558229Y-32686771D01*
X116551299Y-32684291D01*
X116544645Y-32681144D01*
X116538332Y-32677360D01*
X116532421Y-32672976D01*
X116526967Y-32668033D01*
X116522024Y-32662579D01*
X116517640Y-32656668D01*
X116513856Y-32650355D01*
X116510709Y-32643701D01*
X116508229Y-32636771D01*
X116506441Y-32629632D01*
X116505361Y-32622351D01*
X116505000Y-32615000D01*
X116505000Y-32465000D01*
X116505361Y-32457649D01*
X116506441Y-32450368D01*
X116508229Y-32443229D01*
X116510709Y-32436299D01*
X116513856Y-32429645D01*
X116517640Y-32423332D01*
X116522024Y-32417421D01*
X116526967Y-32411967D01*
X116532421Y-32407024D01*
X116538332Y-32402640D01*
X116544645Y-32398856D01*
X116551299Y-32395709D01*
X116558229Y-32393229D01*
X116565368Y-32391441D01*
X116572649Y-32390361D01*
X116580000Y-32390000D01*
X117880000Y-32390000D01*
X117887351Y-32390361D01*
G37*
%TD.AperFunction*%
%TA.AperFunction,SMDPad,CuDef*%
G36*
X117887351Y-32890361D02*
G01*
X117894632Y-32891441D01*
X117901771Y-32893229D01*
X117908701Y-32895709D01*
X117915355Y-32898856D01*
X117921668Y-32902640D01*
X117927579Y-32907024D01*
X117933033Y-32911967D01*
X117937976Y-32917421D01*
X117942360Y-32923332D01*
X117946144Y-32929645D01*
X117949291Y-32936299D01*
X117951771Y-32943229D01*
X117953559Y-32950368D01*
X117954639Y-32957649D01*
X117955000Y-32965000D01*
X117955000Y-33115000D01*
X117954639Y-33122351D01*
X117953559Y-33129632D01*
X117951771Y-33136771D01*
X117949291Y-33143701D01*
X117946144Y-33150355D01*
X117942360Y-33156668D01*
X117937976Y-33162579D01*
X117933033Y-33168033D01*
X117927579Y-33172976D01*
X117921668Y-33177360D01*
X117915355Y-33181144D01*
X117908701Y-33184291D01*
X117901771Y-33186771D01*
X117894632Y-33188559D01*
X117887351Y-33189639D01*
X117880000Y-33190000D01*
X116580000Y-33190000D01*
X116572649Y-33189639D01*
X116565368Y-33188559D01*
X116558229Y-33186771D01*
X116551299Y-33184291D01*
X116544645Y-33181144D01*
X116538332Y-33177360D01*
X116532421Y-33172976D01*
X116526967Y-33168033D01*
X116522024Y-33162579D01*
X116517640Y-33156668D01*
X116513856Y-33150355D01*
X116510709Y-33143701D01*
X116508229Y-33136771D01*
X116506441Y-33129632D01*
X116505361Y-33122351D01*
X116505000Y-33115000D01*
X116505000Y-32965000D01*
X116505361Y-32957649D01*
X116506441Y-32950368D01*
X116508229Y-32943229D01*
X116510709Y-32936299D01*
X116513856Y-32929645D01*
X116517640Y-32923332D01*
X116522024Y-32917421D01*
X116526967Y-32911967D01*
X116532421Y-32907024D01*
X116538332Y-32902640D01*
X116544645Y-32898856D01*
X116551299Y-32895709D01*
X116558229Y-32893229D01*
X116565368Y-32891441D01*
X116572649Y-32890361D01*
X116580000Y-32890000D01*
X117880000Y-32890000D01*
X117887351Y-32890361D01*
G37*
%TD.AperFunction*%
%TA.AperFunction,SMDPad,CuDef*%
G36*
X117887351Y-33390361D02*
G01*
X117894632Y-33391441D01*
X117901771Y-33393229D01*
X117908701Y-33395709D01*
X117915355Y-33398856D01*
X117921668Y-33402640D01*
X117927579Y-33407024D01*
X117933033Y-33411967D01*
X117937976Y-33417421D01*
X117942360Y-33423332D01*
X117946144Y-33429645D01*
X117949291Y-33436299D01*
X117951771Y-33443229D01*
X117953559Y-33450368D01*
X117954639Y-33457649D01*
X117955000Y-33465000D01*
X117955000Y-33615000D01*
X117954639Y-33622351D01*
X117953559Y-33629632D01*
X117951771Y-33636771D01*
X117949291Y-33643701D01*
X117946144Y-33650355D01*
X117942360Y-33656668D01*
X117937976Y-33662579D01*
X117933033Y-33668033D01*
X117927579Y-33672976D01*
X117921668Y-33677360D01*
X117915355Y-33681144D01*
X117908701Y-33684291D01*
X117901771Y-33686771D01*
X117894632Y-33688559D01*
X117887351Y-33689639D01*
X117880000Y-33690000D01*
X116580000Y-33690000D01*
X116572649Y-33689639D01*
X116565368Y-33688559D01*
X116558229Y-33686771D01*
X116551299Y-33684291D01*
X116544645Y-33681144D01*
X116538332Y-33677360D01*
X116532421Y-33672976D01*
X116526967Y-33668033D01*
X116522024Y-33662579D01*
X116517640Y-33656668D01*
X116513856Y-33650355D01*
X116510709Y-33643701D01*
X116508229Y-33636771D01*
X116506441Y-33629632D01*
X116505361Y-33622351D01*
X116505000Y-33615000D01*
X116505000Y-33465000D01*
X116505361Y-33457649D01*
X116506441Y-33450368D01*
X116508229Y-33443229D01*
X116510709Y-33436299D01*
X116513856Y-33429645D01*
X116517640Y-33423332D01*
X116522024Y-33417421D01*
X116526967Y-33411967D01*
X116532421Y-33407024D01*
X116538332Y-33402640D01*
X116544645Y-33398856D01*
X116551299Y-33395709D01*
X116558229Y-33393229D01*
X116565368Y-33391441D01*
X116572649Y-33390361D01*
X116580000Y-33390000D01*
X117880000Y-33390000D01*
X117887351Y-33390361D01*
G37*
%TD.AperFunction*%
%TA.AperFunction,SMDPad,CuDef*%
G36*
X117887351Y-33890361D02*
G01*
X117894632Y-33891441D01*
X117901771Y-33893229D01*
X117908701Y-33895709D01*
X117915355Y-33898856D01*
X117921668Y-33902640D01*
X117927579Y-33907024D01*
X117933033Y-33911967D01*
X117937976Y-33917421D01*
X117942360Y-33923332D01*
X117946144Y-33929645D01*
X117949291Y-33936299D01*
X117951771Y-33943229D01*
X117953559Y-33950368D01*
X117954639Y-33957649D01*
X117955000Y-33965000D01*
X117955000Y-34115000D01*
X117954639Y-34122351D01*
X117953559Y-34129632D01*
X117951771Y-34136771D01*
X117949291Y-34143701D01*
X117946144Y-34150355D01*
X117942360Y-34156668D01*
X117937976Y-34162579D01*
X117933033Y-34168033D01*
X117927579Y-34172976D01*
X117921668Y-34177360D01*
X117915355Y-34181144D01*
X117908701Y-34184291D01*
X117901771Y-34186771D01*
X117894632Y-34188559D01*
X117887351Y-34189639D01*
X117880000Y-34190000D01*
X116580000Y-34190000D01*
X116572649Y-34189639D01*
X116565368Y-34188559D01*
X116558229Y-34186771D01*
X116551299Y-34184291D01*
X116544645Y-34181144D01*
X116538332Y-34177360D01*
X116532421Y-34172976D01*
X116526967Y-34168033D01*
X116522024Y-34162579D01*
X116517640Y-34156668D01*
X116513856Y-34150355D01*
X116510709Y-34143701D01*
X116508229Y-34136771D01*
X116506441Y-34129632D01*
X116505361Y-34122351D01*
X116505000Y-34115000D01*
X116505000Y-33965000D01*
X116505361Y-33957649D01*
X116506441Y-33950368D01*
X116508229Y-33943229D01*
X116510709Y-33936299D01*
X116513856Y-33929645D01*
X116517640Y-33923332D01*
X116522024Y-33917421D01*
X116526967Y-33911967D01*
X116532421Y-33907024D01*
X116538332Y-33902640D01*
X116544645Y-33898856D01*
X116551299Y-33895709D01*
X116558229Y-33893229D01*
X116565368Y-33891441D01*
X116572649Y-33890361D01*
X116580000Y-33890000D01*
X117880000Y-33890000D01*
X117887351Y-33890361D01*
G37*
%TD.AperFunction*%
%TA.AperFunction,SMDPad,CuDef*%
G36*
X117887351Y-34390361D02*
G01*
X117894632Y-34391441D01*
X117901771Y-34393229D01*
X117908701Y-34395709D01*
X117915355Y-34398856D01*
X117921668Y-34402640D01*
X117927579Y-34407024D01*
X117933033Y-34411967D01*
X117937976Y-34417421D01*
X117942360Y-34423332D01*
X117946144Y-34429645D01*
X117949291Y-34436299D01*
X117951771Y-34443229D01*
X117953559Y-34450368D01*
X117954639Y-34457649D01*
X117955000Y-34465000D01*
X117955000Y-34615000D01*
X117954639Y-34622351D01*
X117953559Y-34629632D01*
X117951771Y-34636771D01*
X117949291Y-34643701D01*
X117946144Y-34650355D01*
X117942360Y-34656668D01*
X117937976Y-34662579D01*
X117933033Y-34668033D01*
X117927579Y-34672976D01*
X117921668Y-34677360D01*
X117915355Y-34681144D01*
X117908701Y-34684291D01*
X117901771Y-34686771D01*
X117894632Y-34688559D01*
X117887351Y-34689639D01*
X117880000Y-34690000D01*
X116580000Y-34690000D01*
X116572649Y-34689639D01*
X116565368Y-34688559D01*
X116558229Y-34686771D01*
X116551299Y-34684291D01*
X116544645Y-34681144D01*
X116538332Y-34677360D01*
X116532421Y-34672976D01*
X116526967Y-34668033D01*
X116522024Y-34662579D01*
X116517640Y-34656668D01*
X116513856Y-34650355D01*
X116510709Y-34643701D01*
X116508229Y-34636771D01*
X116506441Y-34629632D01*
X116505361Y-34622351D01*
X116505000Y-34615000D01*
X116505000Y-34465000D01*
X116505361Y-34457649D01*
X116506441Y-34450368D01*
X116508229Y-34443229D01*
X116510709Y-34436299D01*
X116513856Y-34429645D01*
X116517640Y-34423332D01*
X116522024Y-34417421D01*
X116526967Y-34411967D01*
X116532421Y-34407024D01*
X116538332Y-34402640D01*
X116544645Y-34398856D01*
X116551299Y-34395709D01*
X116558229Y-34393229D01*
X116565368Y-34391441D01*
X116572649Y-34390361D01*
X116580000Y-34390000D01*
X117880000Y-34390000D01*
X117887351Y-34390361D01*
G37*
%TD.AperFunction*%
%TA.AperFunction,SMDPad,CuDef*%
G36*
X117887351Y-34890361D02*
G01*
X117894632Y-34891441D01*
X117901771Y-34893229D01*
X117908701Y-34895709D01*
X117915355Y-34898856D01*
X117921668Y-34902640D01*
X117927579Y-34907024D01*
X117933033Y-34911967D01*
X117937976Y-34917421D01*
X117942360Y-34923332D01*
X117946144Y-34929645D01*
X117949291Y-34936299D01*
X117951771Y-34943229D01*
X117953559Y-34950368D01*
X117954639Y-34957649D01*
X117955000Y-34965000D01*
X117955000Y-35115000D01*
X117954639Y-35122351D01*
X117953559Y-35129632D01*
X117951771Y-35136771D01*
X117949291Y-35143701D01*
X117946144Y-35150355D01*
X117942360Y-35156668D01*
X117937976Y-35162579D01*
X117933033Y-35168033D01*
X117927579Y-35172976D01*
X117921668Y-35177360D01*
X117915355Y-35181144D01*
X117908701Y-35184291D01*
X117901771Y-35186771D01*
X117894632Y-35188559D01*
X117887351Y-35189639D01*
X117880000Y-35190000D01*
X116580000Y-35190000D01*
X116572649Y-35189639D01*
X116565368Y-35188559D01*
X116558229Y-35186771D01*
X116551299Y-35184291D01*
X116544645Y-35181144D01*
X116538332Y-35177360D01*
X116532421Y-35172976D01*
X116526967Y-35168033D01*
X116522024Y-35162579D01*
X116517640Y-35156668D01*
X116513856Y-35150355D01*
X116510709Y-35143701D01*
X116508229Y-35136771D01*
X116506441Y-35129632D01*
X116505361Y-35122351D01*
X116505000Y-35115000D01*
X116505000Y-34965000D01*
X116505361Y-34957649D01*
X116506441Y-34950368D01*
X116508229Y-34943229D01*
X116510709Y-34936299D01*
X116513856Y-34929645D01*
X116517640Y-34923332D01*
X116522024Y-34917421D01*
X116526967Y-34911967D01*
X116532421Y-34907024D01*
X116538332Y-34902640D01*
X116544645Y-34898856D01*
X116551299Y-34895709D01*
X116558229Y-34893229D01*
X116565368Y-34891441D01*
X116572649Y-34890361D01*
X116580000Y-34890000D01*
X117880000Y-34890000D01*
X117887351Y-34890361D01*
G37*
%TD.AperFunction*%
%TA.AperFunction,SMDPad,CuDef*%
G36*
X117887351Y-35390361D02*
G01*
X117894632Y-35391441D01*
X117901771Y-35393229D01*
X117908701Y-35395709D01*
X117915355Y-35398856D01*
X117921668Y-35402640D01*
X117927579Y-35407024D01*
X117933033Y-35411967D01*
X117937976Y-35417421D01*
X117942360Y-35423332D01*
X117946144Y-35429645D01*
X117949291Y-35436299D01*
X117951771Y-35443229D01*
X117953559Y-35450368D01*
X117954639Y-35457649D01*
X117955000Y-35465000D01*
X117955000Y-35615000D01*
X117954639Y-35622351D01*
X117953559Y-35629632D01*
X117951771Y-35636771D01*
X117949291Y-35643701D01*
X117946144Y-35650355D01*
X117942360Y-35656668D01*
X117937976Y-35662579D01*
X117933033Y-35668033D01*
X117927579Y-35672976D01*
X117921668Y-35677360D01*
X117915355Y-35681144D01*
X117908701Y-35684291D01*
X117901771Y-35686771D01*
X117894632Y-35688559D01*
X117887351Y-35689639D01*
X117880000Y-35690000D01*
X116580000Y-35690000D01*
X116572649Y-35689639D01*
X116565368Y-35688559D01*
X116558229Y-35686771D01*
X116551299Y-35684291D01*
X116544645Y-35681144D01*
X116538332Y-35677360D01*
X116532421Y-35672976D01*
X116526967Y-35668033D01*
X116522024Y-35662579D01*
X116517640Y-35656668D01*
X116513856Y-35650355D01*
X116510709Y-35643701D01*
X116508229Y-35636771D01*
X116506441Y-35629632D01*
X116505361Y-35622351D01*
X116505000Y-35615000D01*
X116505000Y-35465000D01*
X116505361Y-35457649D01*
X116506441Y-35450368D01*
X116508229Y-35443229D01*
X116510709Y-35436299D01*
X116513856Y-35429645D01*
X116517640Y-35423332D01*
X116522024Y-35417421D01*
X116526967Y-35411967D01*
X116532421Y-35407024D01*
X116538332Y-35402640D01*
X116544645Y-35398856D01*
X116551299Y-35395709D01*
X116558229Y-35393229D01*
X116565368Y-35391441D01*
X116572649Y-35390361D01*
X116580000Y-35390000D01*
X117880000Y-35390000D01*
X117887351Y-35390361D01*
G37*
%TD.AperFunction*%
%TA.AperFunction,SMDPad,CuDef*%
G36*
X117887351Y-35890361D02*
G01*
X117894632Y-35891441D01*
X117901771Y-35893229D01*
X117908701Y-35895709D01*
X117915355Y-35898856D01*
X117921668Y-35902640D01*
X117927579Y-35907024D01*
X117933033Y-35911967D01*
X117937976Y-35917421D01*
X117942360Y-35923332D01*
X117946144Y-35929645D01*
X117949291Y-35936299D01*
X117951771Y-35943229D01*
X117953559Y-35950368D01*
X117954639Y-35957649D01*
X117955000Y-35965000D01*
X117955000Y-36115000D01*
X117954639Y-36122351D01*
X117953559Y-36129632D01*
X117951771Y-36136771D01*
X117949291Y-36143701D01*
X117946144Y-36150355D01*
X117942360Y-36156668D01*
X117937976Y-36162579D01*
X117933033Y-36168033D01*
X117927579Y-36172976D01*
X117921668Y-36177360D01*
X117915355Y-36181144D01*
X117908701Y-36184291D01*
X117901771Y-36186771D01*
X117894632Y-36188559D01*
X117887351Y-36189639D01*
X117880000Y-36190000D01*
X116580000Y-36190000D01*
X116572649Y-36189639D01*
X116565368Y-36188559D01*
X116558229Y-36186771D01*
X116551299Y-36184291D01*
X116544645Y-36181144D01*
X116538332Y-36177360D01*
X116532421Y-36172976D01*
X116526967Y-36168033D01*
X116522024Y-36162579D01*
X116517640Y-36156668D01*
X116513856Y-36150355D01*
X116510709Y-36143701D01*
X116508229Y-36136771D01*
X116506441Y-36129632D01*
X116505361Y-36122351D01*
X116505000Y-36115000D01*
X116505000Y-35965000D01*
X116505361Y-35957649D01*
X116506441Y-35950368D01*
X116508229Y-35943229D01*
X116510709Y-35936299D01*
X116513856Y-35929645D01*
X116517640Y-35923332D01*
X116522024Y-35917421D01*
X116526967Y-35911967D01*
X116532421Y-35907024D01*
X116538332Y-35902640D01*
X116544645Y-35898856D01*
X116551299Y-35895709D01*
X116558229Y-35893229D01*
X116565368Y-35891441D01*
X116572649Y-35890361D01*
X116580000Y-35890000D01*
X117880000Y-35890000D01*
X117887351Y-35890361D01*
G37*
%TD.AperFunction*%
D13*
X77470000Y-27940000D03*
X69850000Y-60960000D03*
X77470000Y-30480000D03*
X69850000Y-58420000D03*
X77470000Y-33020000D03*
X69850000Y-55880000D03*
X77470000Y-35560000D03*
X69850000Y-53340000D03*
X77470000Y-38100000D03*
X69850000Y-50800000D03*
X77470000Y-40640000D03*
X69850000Y-48260000D03*
X77470000Y-43180000D03*
X69850000Y-45720000D03*
X77470000Y-45720000D03*
X69850000Y-43180000D03*
X77470000Y-48260000D03*
X69850000Y-40640000D03*
X77470000Y-50800000D03*
X69850000Y-38100000D03*
X77470000Y-53340000D03*
X69850000Y-35560000D03*
X77470000Y-55880000D03*
X69850000Y-33020000D03*
X77470000Y-58420000D03*
X69850000Y-30480000D03*
X77470000Y-60960000D03*
D14*
X69850000Y-27940000D03*
D10*
X99060000Y-101600000D03*
X96520000Y-101600000D03*
X99060000Y-99060000D03*
X96520000Y-99060000D03*
X99060000Y-96520000D03*
X96520000Y-96520000D03*
X99060000Y-93980000D03*
X96520000Y-93980000D03*
X99060000Y-91440000D03*
X96520000Y-91440000D03*
X99060000Y-88900000D03*
X96520000Y-88900000D03*
X99060000Y-86360000D03*
X96520000Y-86360000D03*
X99060000Y-83820000D03*
X96520000Y-83820000D03*
X99060000Y-81280000D03*
X96520000Y-81280000D03*
X99060000Y-78740000D03*
X96520000Y-78740000D03*
X99060000Y-76200000D03*
X96520000Y-76200000D03*
X99060000Y-73660000D03*
X96520000Y-73660000D03*
X99060000Y-71120000D03*
X96520000Y-71120000D03*
X99060000Y-68580000D03*
X96520000Y-68580000D03*
X99060000Y-66040000D03*
X96520000Y-66040000D03*
X99060000Y-63500000D03*
X96520000Y-63500000D03*
X99060000Y-60960000D03*
X96520000Y-60960000D03*
X99060000Y-58420000D03*
X96520000Y-58420000D03*
X99060000Y-55880000D03*
X96520000Y-55880000D03*
X99060000Y-53340000D03*
X96520000Y-53340000D03*
X99060000Y-50800000D03*
X96520000Y-50800000D03*
X99060000Y-48260000D03*
X96520000Y-48260000D03*
X99060000Y-45720000D03*
X96520000Y-45720000D03*
X99060000Y-43180000D03*
X96520000Y-43180000D03*
X99060000Y-40640000D03*
X96520000Y-40640000D03*
X99060000Y-38100000D03*
X96520000Y-38100000D03*
X99060000Y-35560000D03*
X96520000Y-35560000D03*
X99060000Y-33020000D03*
X96520000Y-33020000D03*
X99060000Y-30480000D03*
X96520000Y-30480000D03*
X99060000Y-27940000D03*
D11*
X96520000Y-27940000D03*
D10*
X53340000Y-101600000D03*
X50800000Y-101600000D03*
X53340000Y-99060000D03*
X50800000Y-99060000D03*
X53340000Y-96520000D03*
X50800000Y-96520000D03*
X53340000Y-93980000D03*
X50800000Y-93980000D03*
X53340000Y-91440000D03*
X50800000Y-91440000D03*
X53340000Y-88900000D03*
X50800000Y-88900000D03*
X53340000Y-86360000D03*
X50800000Y-86360000D03*
X53340000Y-83820000D03*
X50800000Y-83820000D03*
X53340000Y-81280000D03*
X50800000Y-81280000D03*
X53340000Y-78740000D03*
X50800000Y-78740000D03*
X53340000Y-76200000D03*
X50800000Y-76200000D03*
X53340000Y-73660000D03*
X50800000Y-73660000D03*
X53340000Y-71120000D03*
X50800000Y-71120000D03*
X53340000Y-68580000D03*
X50800000Y-68580000D03*
X53340000Y-66040000D03*
X50800000Y-66040000D03*
X53340000Y-63500000D03*
X50800000Y-63500000D03*
X53340000Y-60960000D03*
X50800000Y-60960000D03*
X53340000Y-58420000D03*
X50800000Y-58420000D03*
X53340000Y-55880000D03*
X50800000Y-55880000D03*
X53340000Y-53340000D03*
X50800000Y-53340000D03*
X53340000Y-50800000D03*
X50800000Y-50800000D03*
X53340000Y-48260000D03*
X50800000Y-48260000D03*
X53340000Y-45720000D03*
X50800000Y-45720000D03*
X53340000Y-43180000D03*
X50800000Y-43180000D03*
X53340000Y-40640000D03*
X50800000Y-40640000D03*
X53340000Y-38100000D03*
X50800000Y-38100000D03*
X53340000Y-35560000D03*
X50800000Y-35560000D03*
X53340000Y-33020000D03*
X50800000Y-33020000D03*
X53340000Y-30480000D03*
X50800000Y-30480000D03*
X53340000Y-27940000D03*
D11*
X50800000Y-27940000D03*
D15*
X96520000Y-27940000D02*
X77470000Y-27940000D01*
X53340000Y-60960000D02*
X69850000Y-60960000D01*
X77470000Y-30480000D02*
X96520000Y-30480000D01*
X69850000Y-58420000D02*
X53340000Y-58420000D01*
X96520000Y-33020000D02*
X77470000Y-33020000D01*
X53340000Y-55880000D02*
X69850000Y-55880000D01*
X77470000Y-35560000D02*
X96520000Y-35560000D01*
X69850000Y-53340000D02*
X53340000Y-53340000D01*
X77470000Y-38100000D02*
X96520000Y-38100000D01*
X53340000Y-50800000D02*
X69850000Y-50800000D01*
X77470000Y-40640000D02*
X96520000Y-40640000D01*
X69850000Y-48260000D02*
X53340000Y-48260000D01*
X96520000Y-43180000D02*
X77470000Y-43180000D01*
X69850000Y-45720000D02*
X53340000Y-45720000D01*
X77470000Y-45720000D02*
X96520000Y-45720000D01*
X53340000Y-43180000D02*
X69850000Y-43180000D01*
X96520000Y-48260000D02*
X77470000Y-48260000D01*
X69850000Y-40640000D02*
X53340000Y-40640000D01*
X77470000Y-50800000D02*
X96520000Y-50800000D01*
X53340000Y-38100000D02*
X69850000Y-38100000D01*
X96520000Y-53340000D02*
X77470000Y-53340000D01*
X69850000Y-35560000D02*
X53340000Y-35560000D01*
X77470000Y-55880000D02*
X96520000Y-55880000D01*
X69850000Y-33020000D02*
X53340000Y-33020000D01*
X77470000Y-58420000D02*
X96520000Y-58420000D01*
X53340000Y-30480000D02*
X69850000Y-30480000D01*
X77470000Y-60960000D02*
X96520000Y-60960000D01*
X69850000Y-27940000D02*
X53340000Y-27940000D01*
X138850001Y-39790001D02*
X139700000Y-40640000D01*
X53340000Y-96520000D02*
X50800000Y-96520000D01*
X50800000Y-93980000D02*
X53340000Y-93980000D01*
X53340000Y-91440000D02*
X50800000Y-91440000D01*
X50800000Y-88900000D02*
X53340000Y-88900000D01*
X52137919Y-86360000D02*
X50800000Y-86360000D01*
X53340000Y-86360000D02*
X52137919Y-86360000D01*
X50800000Y-83820000D02*
X53340000Y-83820000D01*
X50800000Y-81280000D02*
X53340000Y-81280000D01*
X50800000Y-78740000D02*
X53340000Y-78740000D01*
X53340000Y-76200000D02*
X50800000Y-76200000D01*
X50800000Y-73660000D02*
X53340000Y-73660000D01*
X53340000Y-71120000D02*
X50800000Y-71120000D01*
X52137919Y-68580000D02*
X50800000Y-68580000D01*
X53340000Y-68580000D02*
X52137919Y-68580000D01*
X52137919Y-66040000D02*
X50800000Y-66040000D01*
X53340000Y-66040000D02*
X52137919Y-66040000D01*
X52002081Y-63500000D02*
X53340000Y-63500000D01*
X50800000Y-63500000D02*
X52002081Y-63500000D01*
X107950000Y-69850000D02*
X99060000Y-78740000D01*
X114580000Y-69850000D02*
X107950000Y-69850000D01*
X106680000Y-68580000D02*
X99060000Y-76200000D01*
X114580000Y-68580000D02*
X106680000Y-68580000D01*
X105410000Y-67310000D02*
X99060000Y-73660000D01*
X114580000Y-67310000D02*
X105410000Y-67310000D01*
X104140000Y-66040000D02*
X99060000Y-71120000D01*
X114580000Y-66040000D02*
X104140000Y-66040000D01*
X102870000Y-64770000D02*
X99060000Y-68580000D01*
X114580000Y-64770000D02*
X102870000Y-64770000D01*
X101600000Y-63500000D02*
X99060000Y-66040000D01*
X114580000Y-63500000D02*
X101600000Y-63500000D01*
X100330000Y-62230000D02*
X99060000Y-63500000D01*
X114580000Y-62230000D02*
X100330000Y-62230000D01*
X114580000Y-60960000D02*
X99060000Y-60960000D01*
X100330000Y-59690000D02*
X99060000Y-58420000D01*
X114580000Y-59690000D02*
X100330000Y-59690000D01*
X101600000Y-58420000D02*
X99060000Y-55880000D01*
X114580000Y-58420000D02*
X101600000Y-58420000D01*
X114580000Y-57150000D02*
X102870000Y-57150000D01*
X102870000Y-57150000D02*
X99060000Y-53340000D01*
X104140000Y-55880000D02*
X99060000Y-50800000D01*
X114580000Y-55880000D02*
X104140000Y-55880000D01*
X105410000Y-54610000D02*
X99060000Y-48260000D01*
X114580000Y-54610000D02*
X105410000Y-54610000D01*
X106680000Y-53340000D02*
X99060000Y-45720000D01*
X114580000Y-53340000D02*
X106680000Y-53340000D01*
X108740000Y-36040000D02*
X99060000Y-45720000D01*
X117230000Y-36040000D02*
X108740000Y-36040000D01*
X106700000Y-35540000D02*
X99060000Y-43180000D01*
X117230000Y-35540000D02*
X106700000Y-35540000D01*
X104660000Y-35040000D02*
X99060000Y-40640000D01*
X117230000Y-35040000D02*
X104660000Y-35040000D01*
X99909999Y-37250001D02*
X99060000Y-38100000D01*
X102644990Y-34515010D02*
X99909999Y-37250001D01*
X117210010Y-34515010D02*
X102644990Y-34515010D01*
X117230000Y-34535000D02*
X117210010Y-34515010D01*
X117230000Y-34540000D02*
X117230000Y-34535000D01*
X100580000Y-34040000D02*
X99060000Y-35560000D01*
X117230000Y-34040000D02*
X100580000Y-34040000D01*
X99580000Y-33540000D02*
X99060000Y-33020000D01*
X117230000Y-33540000D02*
X99580000Y-33540000D01*
X101620000Y-33040000D02*
X99060000Y-30480000D01*
X117230000Y-33040000D02*
X101620000Y-33040000D01*
X103660000Y-32540000D02*
X99060000Y-27940000D01*
X117230000Y-32540000D02*
X103660000Y-32540000D01*
X140902081Y-101600000D02*
X142240000Y-101600000D01*
X139700000Y-101600000D02*
X140902081Y-101600000D01*
X139700000Y-99060000D02*
X142240000Y-99060000D01*
X139700000Y-96520000D02*
X142240000Y-96520000D01*
X139700000Y-93980000D02*
X142240000Y-93980000D01*
X140902081Y-91440000D02*
X142240000Y-91440000D01*
X139700000Y-91440000D02*
X140902081Y-91440000D01*
X142240000Y-88900000D02*
X139700000Y-88900000D01*
X139700000Y-86360000D02*
X142240000Y-86360000D01*
X142240000Y-83820000D02*
X139700000Y-83820000D01*
X139700000Y-81280000D02*
X142240000Y-81280000D01*
X139700000Y-78740000D02*
X142240000Y-78740000D01*
X130810000Y-69850000D02*
X139700000Y-78740000D01*
X124180000Y-69850000D02*
X130810000Y-69850000D01*
X140902081Y-76200000D02*
X142240000Y-76200000D01*
X139700000Y-76200000D02*
X140902081Y-76200000D01*
X132080000Y-68580000D02*
X139700000Y-76200000D01*
X124180000Y-68580000D02*
X132080000Y-68580000D01*
X140902081Y-73660000D02*
X142240000Y-73660000D01*
X139700000Y-73660000D02*
X140902081Y-73660000D01*
X138850001Y-72810001D02*
X139700000Y-73660000D01*
X133350000Y-67310000D02*
X138850001Y-72810001D01*
X124180000Y-67310000D02*
X133350000Y-67310000D01*
X140902081Y-71120000D02*
X142240000Y-71120000D01*
X139700000Y-71120000D02*
X140902081Y-71120000D01*
X134620000Y-66040000D02*
X139700000Y-71120000D01*
X124180000Y-66040000D02*
X134620000Y-66040000D01*
X140902081Y-68580000D02*
X142240000Y-68580000D01*
X139700000Y-68580000D02*
X140902081Y-68580000D01*
X135890000Y-64770000D02*
X139700000Y-68580000D01*
X124180000Y-64770000D02*
X135890000Y-64770000D01*
X139700000Y-66040000D02*
X142240000Y-66040000D01*
X137160000Y-63500000D02*
X139700000Y-66040000D01*
X124180000Y-63500000D02*
X137160000Y-63500000D01*
X140902081Y-63500000D02*
X142240000Y-63500000D01*
X139700000Y-63500000D02*
X140902081Y-63500000D01*
X138430000Y-62230000D02*
X139700000Y-63500000D01*
X124180000Y-62230000D02*
X138430000Y-62230000D01*
X140902081Y-60960000D02*
X142240000Y-60960000D01*
X139700000Y-60960000D02*
X140902081Y-60960000D01*
X124180000Y-60960000D02*
X139700000Y-60960000D01*
X140902081Y-58420000D02*
X142240000Y-58420000D01*
X139700000Y-58420000D02*
X140902081Y-58420000D01*
X138430000Y-59690000D02*
X139700000Y-58420000D01*
X124180000Y-59690000D02*
X138430000Y-59690000D01*
X139700000Y-55880000D02*
X142240000Y-55880000D01*
X137160000Y-58420000D02*
X139700000Y-55880000D01*
X124180000Y-58420000D02*
X137160000Y-58420000D01*
X139700000Y-53340000D02*
X142240000Y-53340000D01*
X135890000Y-57150000D02*
X139700000Y-53340000D01*
X124180000Y-57150000D02*
X135890000Y-57150000D01*
X139700000Y-50800000D02*
X142240000Y-50800000D01*
X134620000Y-55880000D02*
X139700000Y-50800000D01*
X124180000Y-55880000D02*
X134620000Y-55880000D01*
X139700000Y-48260000D02*
X142240000Y-48260000D01*
X133350000Y-54610000D02*
X139700000Y-48260000D01*
X124180000Y-54610000D02*
X133350000Y-54610000D01*
X139700000Y-45720000D02*
X142240000Y-45720000D01*
X132080000Y-53340000D02*
X139700000Y-45720000D01*
X124180000Y-53340000D02*
X132080000Y-53340000D01*
X130020000Y-36040000D02*
X139700000Y-45720000D01*
X121530000Y-36040000D02*
X130020000Y-36040000D01*
X139700000Y-43180000D02*
X142240000Y-43180000D01*
X132060000Y-35540000D02*
X139700000Y-43180000D01*
X121530000Y-35540000D02*
X132060000Y-35540000D01*
X139700000Y-40640000D02*
X142240000Y-40640000D01*
X134100000Y-35040000D02*
X139700000Y-40640000D01*
X121530000Y-35040000D02*
X134100000Y-35040000D01*
X139700000Y-38100000D02*
X142240000Y-38100000D01*
X136140000Y-34540000D02*
X139700000Y-38100000D01*
X121530000Y-34540000D02*
X136140000Y-34540000D01*
X139700000Y-35560000D02*
X142240000Y-35560000D01*
X138850001Y-34710001D02*
X139700000Y-35560000D01*
X138204990Y-34064990D02*
X138850001Y-34710001D01*
X121549990Y-34064990D02*
X138204990Y-34064990D01*
X121530000Y-34045000D02*
X121549990Y-34064990D01*
X121530000Y-34040000D02*
X121530000Y-34045000D01*
X139700000Y-33020000D02*
X142240000Y-33020000D01*
X139180000Y-33540000D02*
X139700000Y-33020000D01*
X121530000Y-33540000D02*
X139180000Y-33540000D01*
X139700000Y-30480000D02*
X142240000Y-30480000D01*
X137140000Y-33040000D02*
X139700000Y-30480000D01*
X121530000Y-33040000D02*
X137140000Y-33040000D01*
X140800000Y-27940000D02*
X142240000Y-27940000D01*
X139700000Y-27940000D02*
X140800000Y-27940000D01*
X135100000Y-32540000D02*
X139700000Y-27940000D01*
X121530000Y-32540000D02*
X135100000Y-32540000D01*
X53340000Y-60960000D02*
X50800000Y-60960000D01*
X52002081Y-58420000D02*
X53340000Y-58420000D01*
X50800000Y-58420000D02*
X52002081Y-58420000D01*
X53340000Y-55880000D02*
X50800000Y-55880000D01*
X50800000Y-53340000D02*
X53340000Y-53340000D01*
X52137919Y-50800000D02*
X50800000Y-50800000D01*
X53340000Y-50800000D02*
X52137919Y-50800000D01*
X50800000Y-48260000D02*
X53340000Y-48260000D01*
X52137919Y-45720000D02*
X50800000Y-45720000D01*
X53340000Y-45720000D02*
X52137919Y-45720000D01*
X52002081Y-43180000D02*
X53340000Y-43180000D01*
X50800000Y-43180000D02*
X52002081Y-43180000D01*
X53340000Y-40640000D02*
X50800000Y-40640000D01*
X52002081Y-38100000D02*
X53340000Y-38100000D01*
X50800000Y-38100000D02*
X52002081Y-38100000D01*
X52002081Y-35560000D02*
X53340000Y-35560000D01*
X50800000Y-35560000D02*
X52002081Y-35560000D01*
X52002081Y-33020000D02*
X53340000Y-33020000D01*
X50800000Y-33020000D02*
X52002081Y-33020000D01*
X52137919Y-30480000D02*
X50800000Y-30480000D01*
X53340000Y-30480000D02*
X52137919Y-30480000D01*
X50800000Y-27940000D02*
X53340000Y-27940000D01*
M02*
