%TF.GenerationSoftware,KiCad,Pcbnew,5.1.5+dfsg1-2build2*%
%TF.CreationDate,2021-12-31T02:56:54+01:00*%
%TF.ProjectId,chip-breakout,63686970-2d62-4726-9561-6b6f75742e6b,rev?*%
%TF.SameCoordinates,Original*%
%TF.FileFunction,Legend,Bot*%
%TF.FilePolarity,Positive*%
%FSLAX46Y46*%
G04 Gerber Fmt 4.6, Leading zero omitted, Abs format (unit mm)*
G04 Created by KiCad (PCBNEW 5.1.5+dfsg1-2build2) date 2021-12-31 02:56:54*
%MOMM*%
%LPD*%
G04 APERTURE LIST*
%ADD10C,0.150000*%
%ADD11C,0.120000*%
%ADD12O,1.802000X1.802000*%
%ADD13R,1.802000X1.802000*%
%ADD14C,0.100000*%
%ADD15C,3.302000*%
%ADD16O,2.502000X1.702000*%
%ADD17R,2.502000X1.702000*%
G04 APERTURE END LIST*
D10*
X137022857Y-84907380D02*
X137022857Y-83907380D01*
X136594285Y-84907380D02*
X136594285Y-84383571D01*
X136641904Y-84288333D01*
X136737142Y-84240714D01*
X136880000Y-84240714D01*
X136975238Y-84288333D01*
X137022857Y-84335952D01*
X136260952Y-84240714D02*
X135880000Y-84240714D01*
X136118095Y-83907380D02*
X136118095Y-84764523D01*
X136070476Y-84859761D01*
X135975238Y-84907380D01*
X135880000Y-84907380D01*
X135689523Y-84240714D02*
X135308571Y-84240714D01*
X135546666Y-83907380D02*
X135546666Y-84764523D01*
X135499047Y-84859761D01*
X135403809Y-84907380D01*
X135308571Y-84907380D01*
X134975238Y-84240714D02*
X134975238Y-85240714D01*
X134975238Y-84288333D02*
X134880000Y-84240714D01*
X134689523Y-84240714D01*
X134594285Y-84288333D01*
X134546666Y-84335952D01*
X134499047Y-84431190D01*
X134499047Y-84716904D01*
X134546666Y-84812142D01*
X134594285Y-84859761D01*
X134689523Y-84907380D01*
X134880000Y-84907380D01*
X134975238Y-84859761D01*
X134118095Y-84859761D02*
X134022857Y-84907380D01*
X133832380Y-84907380D01*
X133737142Y-84859761D01*
X133689523Y-84764523D01*
X133689523Y-84716904D01*
X133737142Y-84621666D01*
X133832380Y-84574047D01*
X133975238Y-84574047D01*
X134070476Y-84526428D01*
X134118095Y-84431190D01*
X134118095Y-84383571D01*
X134070476Y-84288333D01*
X133975238Y-84240714D01*
X133832380Y-84240714D01*
X133737142Y-84288333D01*
X133260952Y-84812142D02*
X133213333Y-84859761D01*
X133260952Y-84907380D01*
X133308571Y-84859761D01*
X133260952Y-84812142D01*
X133260952Y-84907380D01*
X133260952Y-84288333D02*
X133213333Y-84335952D01*
X133260952Y-84383571D01*
X133308571Y-84335952D01*
X133260952Y-84288333D01*
X133260952Y-84383571D01*
X132070476Y-83859761D02*
X132927619Y-85145476D01*
X131022857Y-83859761D02*
X131880000Y-85145476D01*
X130260952Y-84240714D02*
X130260952Y-85050238D01*
X130308571Y-85145476D01*
X130356190Y-85193095D01*
X130451428Y-85240714D01*
X130594285Y-85240714D01*
X130689523Y-85193095D01*
X130260952Y-84859761D02*
X130356190Y-84907380D01*
X130546666Y-84907380D01*
X130641904Y-84859761D01*
X130689523Y-84812142D01*
X130737142Y-84716904D01*
X130737142Y-84431190D01*
X130689523Y-84335952D01*
X130641904Y-84288333D01*
X130546666Y-84240714D01*
X130356190Y-84240714D01*
X130260952Y-84288333D01*
X129784761Y-84907380D02*
X129784761Y-84240714D01*
X129784761Y-83907380D02*
X129832380Y-83955000D01*
X129784761Y-84002619D01*
X129737142Y-83955000D01*
X129784761Y-83907380D01*
X129784761Y-84002619D01*
X129451428Y-84240714D02*
X129070476Y-84240714D01*
X129308571Y-83907380D02*
X129308571Y-84764523D01*
X129260952Y-84859761D01*
X129165714Y-84907380D01*
X129070476Y-84907380D01*
X128737142Y-84907380D02*
X128737142Y-83907380D01*
X128308571Y-84907380D02*
X128308571Y-84383571D01*
X128356190Y-84288333D01*
X128451428Y-84240714D01*
X128594285Y-84240714D01*
X128689523Y-84288333D01*
X128737142Y-84335952D01*
X127403809Y-84240714D02*
X127403809Y-84907380D01*
X127832380Y-84240714D02*
X127832380Y-84764523D01*
X127784761Y-84859761D01*
X127689523Y-84907380D01*
X127546666Y-84907380D01*
X127451428Y-84859761D01*
X127403809Y-84812142D01*
X126927619Y-84907380D02*
X126927619Y-83907380D01*
X126927619Y-84288333D02*
X126832380Y-84240714D01*
X126641904Y-84240714D01*
X126546666Y-84288333D01*
X126499047Y-84335952D01*
X126451428Y-84431190D01*
X126451428Y-84716904D01*
X126499047Y-84812142D01*
X126546666Y-84859761D01*
X126641904Y-84907380D01*
X126832380Y-84907380D01*
X126927619Y-84859761D01*
X126022857Y-84812142D02*
X125975238Y-84859761D01*
X126022857Y-84907380D01*
X126070476Y-84859761D01*
X126022857Y-84812142D01*
X126022857Y-84907380D01*
X125118095Y-84859761D02*
X125213333Y-84907380D01*
X125403809Y-84907380D01*
X125499047Y-84859761D01*
X125546666Y-84812142D01*
X125594285Y-84716904D01*
X125594285Y-84431190D01*
X125546666Y-84335952D01*
X125499047Y-84288333D01*
X125403809Y-84240714D01*
X125213333Y-84240714D01*
X125118095Y-84288333D01*
X124546666Y-84907380D02*
X124641904Y-84859761D01*
X124689523Y-84812142D01*
X124737142Y-84716904D01*
X124737142Y-84431190D01*
X124689523Y-84335952D01*
X124641904Y-84288333D01*
X124546666Y-84240714D01*
X124403809Y-84240714D01*
X124308571Y-84288333D01*
X124260952Y-84335952D01*
X124213333Y-84431190D01*
X124213333Y-84716904D01*
X124260952Y-84812142D01*
X124308571Y-84859761D01*
X124403809Y-84907380D01*
X124546666Y-84907380D01*
X123784761Y-84907380D02*
X123784761Y-84240714D01*
X123784761Y-84335952D02*
X123737142Y-84288333D01*
X123641904Y-84240714D01*
X123499047Y-84240714D01*
X123403809Y-84288333D01*
X123356190Y-84383571D01*
X123356190Y-84907380D01*
X123356190Y-84383571D02*
X123308571Y-84288333D01*
X123213333Y-84240714D01*
X123070476Y-84240714D01*
X122975238Y-84288333D01*
X122927619Y-84383571D01*
X122927619Y-84907380D01*
X121737142Y-83859761D02*
X122594285Y-85145476D01*
X120975238Y-84859761D02*
X121070476Y-84907380D01*
X121260952Y-84907380D01*
X121356190Y-84859761D01*
X121403809Y-84812142D01*
X121451428Y-84716904D01*
X121451428Y-84431190D01*
X121403809Y-84335952D01*
X121356190Y-84288333D01*
X121260952Y-84240714D01*
X121070476Y-84240714D01*
X120975238Y-84288333D01*
X120546666Y-84907380D02*
X120546666Y-83907380D01*
X120546666Y-84288333D02*
X120451428Y-84240714D01*
X120260952Y-84240714D01*
X120165714Y-84288333D01*
X120118095Y-84335952D01*
X120070476Y-84431190D01*
X120070476Y-84716904D01*
X120118095Y-84812142D01*
X120165714Y-84859761D01*
X120260952Y-84907380D01*
X120451428Y-84907380D01*
X120546666Y-84859761D01*
X119499047Y-84907380D02*
X119594285Y-84859761D01*
X119641904Y-84764523D01*
X119641904Y-83907380D01*
X118689523Y-84240714D02*
X118689523Y-84907380D01*
X119118095Y-84240714D02*
X119118095Y-84764523D01*
X119070476Y-84859761D01*
X118975238Y-84907380D01*
X118832380Y-84907380D01*
X118737142Y-84859761D01*
X118689523Y-84812142D01*
X118070476Y-84907380D02*
X118165714Y-84859761D01*
X118213333Y-84812142D01*
X118260952Y-84716904D01*
X118260952Y-84431190D01*
X118213333Y-84335952D01*
X118165714Y-84288333D01*
X118070476Y-84240714D01*
X117927619Y-84240714D01*
X117832380Y-84288333D01*
X117784761Y-84335952D01*
X117737142Y-84431190D01*
X117737142Y-84716904D01*
X117784761Y-84812142D01*
X117832380Y-84859761D01*
X117927619Y-84907380D01*
X118070476Y-84907380D01*
X117356190Y-84859761D02*
X117260952Y-84907380D01*
X117070476Y-84907380D01*
X116975238Y-84859761D01*
X116927619Y-84764523D01*
X116927619Y-84716904D01*
X116975238Y-84621666D01*
X117070476Y-84574047D01*
X117213333Y-84574047D01*
X117308571Y-84526428D01*
X117356190Y-84431190D01*
X117356190Y-84383571D01*
X117308571Y-84288333D01*
X117213333Y-84240714D01*
X117070476Y-84240714D01*
X116975238Y-84288333D01*
X116546666Y-84859761D02*
X116451428Y-84907380D01*
X116260952Y-84907380D01*
X116165714Y-84859761D01*
X116118095Y-84764523D01*
X116118095Y-84716904D01*
X116165714Y-84621666D01*
X116260952Y-84574047D01*
X116403809Y-84574047D01*
X116499047Y-84526428D01*
X116546666Y-84431190D01*
X116546666Y-84383571D01*
X116499047Y-84288333D01*
X116403809Y-84240714D01*
X116260952Y-84240714D01*
X116165714Y-84288333D01*
X114975238Y-83859761D02*
X115832380Y-85145476D01*
X114641904Y-84240714D02*
X114641904Y-85240714D01*
X114641904Y-84288333D02*
X114546666Y-84240714D01*
X114356190Y-84240714D01*
X114260952Y-84288333D01*
X114213333Y-84335952D01*
X114165714Y-84431190D01*
X114165714Y-84716904D01*
X114213333Y-84812142D01*
X114260952Y-84859761D01*
X114356190Y-84907380D01*
X114546666Y-84907380D01*
X114641904Y-84859761D01*
X113308571Y-84907380D02*
X113308571Y-84383571D01*
X113356190Y-84288333D01*
X113451428Y-84240714D01*
X113641904Y-84240714D01*
X113737142Y-84288333D01*
X113308571Y-84859761D02*
X113403809Y-84907380D01*
X113641904Y-84907380D01*
X113737142Y-84859761D01*
X113784761Y-84764523D01*
X113784761Y-84669285D01*
X113737142Y-84574047D01*
X113641904Y-84526428D01*
X113403809Y-84526428D01*
X113308571Y-84478809D01*
X112403809Y-84859761D02*
X112499047Y-84907380D01*
X112689523Y-84907380D01*
X112784761Y-84859761D01*
X112832380Y-84812142D01*
X112880000Y-84716904D01*
X112880000Y-84431190D01*
X112832380Y-84335952D01*
X112784761Y-84288333D01*
X112689523Y-84240714D01*
X112499047Y-84240714D01*
X112403809Y-84288333D01*
X111975238Y-84907380D02*
X111975238Y-83907380D01*
X111880000Y-84526428D02*
X111594285Y-84907380D01*
X111594285Y-84240714D02*
X111975238Y-84621666D01*
X110737142Y-84907380D02*
X110737142Y-84383571D01*
X110784761Y-84288333D01*
X110880000Y-84240714D01*
X111070476Y-84240714D01*
X111165714Y-84288333D01*
X110737142Y-84859761D02*
X110832380Y-84907380D01*
X111070476Y-84907380D01*
X111165714Y-84859761D01*
X111213333Y-84764523D01*
X111213333Y-84669285D01*
X111165714Y-84574047D01*
X111070476Y-84526428D01*
X110832380Y-84526428D01*
X110737142Y-84478809D01*
X109832380Y-84240714D02*
X109832380Y-85050238D01*
X109880000Y-85145476D01*
X109927619Y-85193095D01*
X110022857Y-85240714D01*
X110165714Y-85240714D01*
X110260952Y-85193095D01*
X109832380Y-84859761D02*
X109927619Y-84907380D01*
X110118095Y-84907380D01*
X110213333Y-84859761D01*
X110260952Y-84812142D01*
X110308571Y-84716904D01*
X110308571Y-84431190D01*
X110260952Y-84335952D01*
X110213333Y-84288333D01*
X110118095Y-84240714D01*
X109927619Y-84240714D01*
X109832380Y-84288333D01*
X108975238Y-84859761D02*
X109070476Y-84907380D01*
X109260952Y-84907380D01*
X109356190Y-84859761D01*
X109403809Y-84764523D01*
X109403809Y-84383571D01*
X109356190Y-84288333D01*
X109260952Y-84240714D01*
X109070476Y-84240714D01*
X108975238Y-84288333D01*
X108927619Y-84383571D01*
X108927619Y-84478809D01*
X109403809Y-84574047D01*
X108737142Y-85002619D02*
X107975238Y-85002619D01*
X107737142Y-84907380D02*
X107737142Y-83907380D01*
X107737142Y-84288333D02*
X107641904Y-84240714D01*
X107451428Y-84240714D01*
X107356190Y-84288333D01*
X107308571Y-84335952D01*
X107260952Y-84431190D01*
X107260952Y-84716904D01*
X107308571Y-84812142D01*
X107356190Y-84859761D01*
X107451428Y-84907380D01*
X107641904Y-84907380D01*
X107737142Y-84859761D01*
X106832380Y-84907380D02*
X106832380Y-84240714D01*
X106832380Y-84431190D02*
X106784761Y-84335952D01*
X106737142Y-84288333D01*
X106641904Y-84240714D01*
X106546666Y-84240714D01*
X105832380Y-84859761D02*
X105927619Y-84907380D01*
X106118095Y-84907380D01*
X106213333Y-84859761D01*
X106260952Y-84764523D01*
X106260952Y-84383571D01*
X106213333Y-84288333D01*
X106118095Y-84240714D01*
X105927619Y-84240714D01*
X105832380Y-84288333D01*
X105784761Y-84383571D01*
X105784761Y-84478809D01*
X106260952Y-84574047D01*
X104927619Y-84907380D02*
X104927619Y-84383571D01*
X104975238Y-84288333D01*
X105070476Y-84240714D01*
X105260952Y-84240714D01*
X105356190Y-84288333D01*
X104927619Y-84859761D02*
X105022857Y-84907380D01*
X105260952Y-84907380D01*
X105356190Y-84859761D01*
X105403809Y-84764523D01*
X105403809Y-84669285D01*
X105356190Y-84574047D01*
X105260952Y-84526428D01*
X105022857Y-84526428D01*
X104927619Y-84478809D01*
X104451428Y-84907380D02*
X104451428Y-83907380D01*
X104356190Y-84526428D02*
X104070476Y-84907380D01*
X104070476Y-84240714D02*
X104451428Y-84621666D01*
X103499047Y-84907380D02*
X103594285Y-84859761D01*
X103641904Y-84812142D01*
X103689523Y-84716904D01*
X103689523Y-84431190D01*
X103641904Y-84335952D01*
X103594285Y-84288333D01*
X103499047Y-84240714D01*
X103356190Y-84240714D01*
X103260952Y-84288333D01*
X103213333Y-84335952D01*
X103165714Y-84431190D01*
X103165714Y-84716904D01*
X103213333Y-84812142D01*
X103260952Y-84859761D01*
X103356190Y-84907380D01*
X103499047Y-84907380D01*
X102308571Y-84240714D02*
X102308571Y-84907380D01*
X102737142Y-84240714D02*
X102737142Y-84764523D01*
X102689523Y-84859761D01*
X102594285Y-84907380D01*
X102451428Y-84907380D01*
X102356190Y-84859761D01*
X102308571Y-84812142D01*
X101975238Y-84240714D02*
X101594285Y-84240714D01*
X101832380Y-83907380D02*
X101832380Y-84764523D01*
X101784761Y-84859761D01*
X101689523Y-84907380D01*
X101594285Y-84907380D01*
D11*
X115520000Y-70410000D02*
X113680000Y-70410000D01*
X115520000Y-71055000D02*
X115520000Y-70410000D01*
X119380000Y-71055000D02*
X115520000Y-71055000D01*
X123240000Y-71055000D02*
X123240000Y-70410000D01*
X119380000Y-71055000D02*
X123240000Y-71055000D01*
X115520000Y-52135000D02*
X115520000Y-52780000D01*
X119380000Y-52135000D02*
X115520000Y-52135000D01*
X123240000Y-52135000D02*
X123240000Y-52780000D01*
X119380000Y-52135000D02*
X123240000Y-52135000D01*
X119380000Y-36450000D02*
X116505000Y-36450000D01*
X119380000Y-36450000D02*
X120880000Y-36450000D01*
X119380000Y-32130000D02*
X117880000Y-32130000D01*
X119380000Y-32130000D02*
X120880000Y-32130000D01*
D10*
X122499047Y-72299761D02*
X122356190Y-72347380D01*
X122118095Y-72347380D01*
X122022857Y-72299761D01*
X121975238Y-72252142D01*
X121927619Y-72156904D01*
X121927619Y-72061666D01*
X121975238Y-71966428D01*
X122022857Y-71918809D01*
X122118095Y-71871190D01*
X122308571Y-71823571D01*
X122403809Y-71775952D01*
X122451428Y-71728333D01*
X122499047Y-71633095D01*
X122499047Y-71537857D01*
X122451428Y-71442619D01*
X122403809Y-71395000D01*
X122308571Y-71347380D01*
X122070476Y-71347380D01*
X121927619Y-71395000D01*
X121308571Y-71347380D02*
X121118095Y-71347380D01*
X121022857Y-71395000D01*
X120927619Y-71490238D01*
X120880000Y-71680714D01*
X120880000Y-72014047D01*
X120927619Y-72204523D01*
X121022857Y-72299761D01*
X121118095Y-72347380D01*
X121308571Y-72347380D01*
X121403809Y-72299761D01*
X121499047Y-72204523D01*
X121546666Y-72014047D01*
X121546666Y-71680714D01*
X121499047Y-71490238D01*
X121403809Y-71395000D01*
X121308571Y-71347380D01*
X120451428Y-72347380D02*
X120451428Y-71347380D01*
X119403809Y-72252142D02*
X119451428Y-72299761D01*
X119594285Y-72347380D01*
X119689523Y-72347380D01*
X119832380Y-72299761D01*
X119927619Y-72204523D01*
X119975238Y-72109285D01*
X120022857Y-71918809D01*
X120022857Y-71775952D01*
X119975238Y-71585476D01*
X119927619Y-71490238D01*
X119832380Y-71395000D01*
X119689523Y-71347380D01*
X119594285Y-71347380D01*
X119451428Y-71395000D01*
X119403809Y-71442619D01*
X118975238Y-71966428D02*
X118213333Y-71966428D01*
X117784761Y-71442619D02*
X117737142Y-71395000D01*
X117641904Y-71347380D01*
X117403809Y-71347380D01*
X117308571Y-71395000D01*
X117260952Y-71442619D01*
X117213333Y-71537857D01*
X117213333Y-71633095D01*
X117260952Y-71775952D01*
X117832380Y-72347380D01*
X117213333Y-72347380D01*
X116641904Y-71775952D02*
X116737142Y-71728333D01*
X116784761Y-71680714D01*
X116832380Y-71585476D01*
X116832380Y-71537857D01*
X116784761Y-71442619D01*
X116737142Y-71395000D01*
X116641904Y-71347380D01*
X116451428Y-71347380D01*
X116356190Y-71395000D01*
X116308571Y-71442619D01*
X116260952Y-71537857D01*
X116260952Y-71585476D01*
X116308571Y-71680714D01*
X116356190Y-71728333D01*
X116451428Y-71775952D01*
X116641904Y-71775952D01*
X116737142Y-71823571D01*
X116784761Y-71871190D01*
X116832380Y-71966428D01*
X116832380Y-72156904D01*
X116784761Y-72252142D01*
X116737142Y-72299761D01*
X116641904Y-72347380D01*
X116451428Y-72347380D01*
X116356190Y-72299761D01*
X116308571Y-72252142D01*
X116260952Y-72156904D01*
X116260952Y-71966428D01*
X116308571Y-71871190D01*
X116356190Y-71823571D01*
X116451428Y-71775952D01*
X122784761Y-37712380D02*
X122784761Y-36712380D01*
X122451428Y-37426666D01*
X122118095Y-36712380D01*
X122118095Y-37712380D01*
X121689523Y-37664761D02*
X121546666Y-37712380D01*
X121308571Y-37712380D01*
X121213333Y-37664761D01*
X121165714Y-37617142D01*
X121118095Y-37521904D01*
X121118095Y-37426666D01*
X121165714Y-37331428D01*
X121213333Y-37283809D01*
X121308571Y-37236190D01*
X121499047Y-37188571D01*
X121594285Y-37140952D01*
X121641904Y-37093333D01*
X121689523Y-36998095D01*
X121689523Y-36902857D01*
X121641904Y-36807619D01*
X121594285Y-36760000D01*
X121499047Y-36712380D01*
X121260952Y-36712380D01*
X121118095Y-36760000D01*
X120499047Y-36712380D02*
X120308571Y-36712380D01*
X120213333Y-36760000D01*
X120118095Y-36855238D01*
X120070476Y-37045714D01*
X120070476Y-37379047D01*
X120118095Y-37569523D01*
X120213333Y-37664761D01*
X120308571Y-37712380D01*
X120499047Y-37712380D01*
X120594285Y-37664761D01*
X120689523Y-37569523D01*
X120737142Y-37379047D01*
X120737142Y-37045714D01*
X120689523Y-36855238D01*
X120594285Y-36760000D01*
X120499047Y-36712380D01*
X119641904Y-37712380D02*
X119641904Y-36712380D01*
X119260952Y-36712380D01*
X119165714Y-36760000D01*
X119118095Y-36807619D01*
X119070476Y-36902857D01*
X119070476Y-37045714D01*
X119118095Y-37140952D01*
X119165714Y-37188571D01*
X119260952Y-37236190D01*
X119641904Y-37236190D01*
X118641904Y-37331428D02*
X117880000Y-37331428D01*
X116880000Y-37712380D02*
X117451428Y-37712380D01*
X117165714Y-37712380D02*
X117165714Y-36712380D01*
X117260952Y-36855238D01*
X117356190Y-36950476D01*
X117451428Y-36998095D01*
X116022857Y-36712380D02*
X116213333Y-36712380D01*
X116308571Y-36760000D01*
X116356190Y-36807619D01*
X116451428Y-36950476D01*
X116499047Y-37140952D01*
X116499047Y-37521904D01*
X116451428Y-37617142D01*
X116403809Y-37664761D01*
X116308571Y-37712380D01*
X116118095Y-37712380D01*
X116022857Y-37664761D01*
X115975238Y-37617142D01*
X115927619Y-37521904D01*
X115927619Y-37283809D01*
X115975238Y-37188571D01*
X116022857Y-37140952D01*
X116118095Y-37093333D01*
X116308571Y-37093333D01*
X116403809Y-37140952D01*
X116451428Y-37188571D01*
X116499047Y-37283809D01*
%LPC*%
D12*
X142240000Y-101600000D03*
X139700000Y-101600000D03*
X142240000Y-99060000D03*
X139700000Y-99060000D03*
X142240000Y-96520000D03*
X139700000Y-96520000D03*
X142240000Y-93980000D03*
X139700000Y-93980000D03*
X142240000Y-91440000D03*
X139700000Y-91440000D03*
X142240000Y-88900000D03*
X139700000Y-88900000D03*
X142240000Y-86360000D03*
X139700000Y-86360000D03*
X142240000Y-83820000D03*
X139700000Y-83820000D03*
X142240000Y-81280000D03*
X139700000Y-81280000D03*
X142240000Y-78740000D03*
X139700000Y-78740000D03*
X142240000Y-76200000D03*
X139700000Y-76200000D03*
X142240000Y-73660000D03*
X139700000Y-73660000D03*
X142240000Y-71120000D03*
X139700000Y-71120000D03*
X142240000Y-68580000D03*
X139700000Y-68580000D03*
X142240000Y-66040000D03*
X139700000Y-66040000D03*
X142240000Y-63500000D03*
X139700000Y-63500000D03*
X142240000Y-60960000D03*
X139700000Y-60960000D03*
X142240000Y-58420000D03*
X139700000Y-58420000D03*
X142240000Y-55880000D03*
X139700000Y-55880000D03*
X142240000Y-53340000D03*
X139700000Y-53340000D03*
X142240000Y-50800000D03*
X139700000Y-50800000D03*
X142240000Y-48260000D03*
X139700000Y-48260000D03*
X142240000Y-45720000D03*
X139700000Y-45720000D03*
X142240000Y-43180000D03*
X139700000Y-43180000D03*
X142240000Y-40640000D03*
X139700000Y-40640000D03*
X142240000Y-38100000D03*
X139700000Y-38100000D03*
X142240000Y-35560000D03*
X139700000Y-35560000D03*
X142240000Y-33020000D03*
X139700000Y-33020000D03*
X142240000Y-30480000D03*
X139700000Y-30480000D03*
X142240000Y-27940000D03*
D13*
X139700000Y-27940000D03*
D14*
G36*
X124972702Y-69499845D02*
G01*
X124989738Y-69502372D01*
X125006445Y-69506557D01*
X125022661Y-69512359D01*
X125038230Y-69519723D01*
X125053003Y-69528577D01*
X125066836Y-69538837D01*
X125079597Y-69550403D01*
X125091163Y-69563164D01*
X125101423Y-69576997D01*
X125110277Y-69591770D01*
X125117641Y-69607339D01*
X125123443Y-69623555D01*
X125127628Y-69640262D01*
X125130155Y-69657298D01*
X125131000Y-69674500D01*
X125131000Y-70025500D01*
X125130155Y-70042702D01*
X125127628Y-70059738D01*
X125123443Y-70076445D01*
X125117641Y-70092661D01*
X125110277Y-70108230D01*
X125101423Y-70123003D01*
X125091163Y-70136836D01*
X125079597Y-70149597D01*
X125066836Y-70161163D01*
X125053003Y-70171423D01*
X125038230Y-70180277D01*
X125022661Y-70187641D01*
X125006445Y-70193443D01*
X124989738Y-70197628D01*
X124972702Y-70200155D01*
X124955500Y-70201000D01*
X123404500Y-70201000D01*
X123387298Y-70200155D01*
X123370262Y-70197628D01*
X123353555Y-70193443D01*
X123337339Y-70187641D01*
X123321770Y-70180277D01*
X123306997Y-70171423D01*
X123293164Y-70161163D01*
X123280403Y-70149597D01*
X123268837Y-70136836D01*
X123258577Y-70123003D01*
X123249723Y-70108230D01*
X123242359Y-70092661D01*
X123236557Y-70076445D01*
X123232372Y-70059738D01*
X123229845Y-70042702D01*
X123229000Y-70025500D01*
X123229000Y-69674500D01*
X123229845Y-69657298D01*
X123232372Y-69640262D01*
X123236557Y-69623555D01*
X123242359Y-69607339D01*
X123249723Y-69591770D01*
X123258577Y-69576997D01*
X123268837Y-69563164D01*
X123280403Y-69550403D01*
X123293164Y-69538837D01*
X123306997Y-69528577D01*
X123321770Y-69519723D01*
X123337339Y-69512359D01*
X123353555Y-69506557D01*
X123370262Y-69502372D01*
X123387298Y-69499845D01*
X123404500Y-69499000D01*
X124955500Y-69499000D01*
X124972702Y-69499845D01*
G37*
G36*
X124972702Y-68229845D02*
G01*
X124989738Y-68232372D01*
X125006445Y-68236557D01*
X125022661Y-68242359D01*
X125038230Y-68249723D01*
X125053003Y-68258577D01*
X125066836Y-68268837D01*
X125079597Y-68280403D01*
X125091163Y-68293164D01*
X125101423Y-68306997D01*
X125110277Y-68321770D01*
X125117641Y-68337339D01*
X125123443Y-68353555D01*
X125127628Y-68370262D01*
X125130155Y-68387298D01*
X125131000Y-68404500D01*
X125131000Y-68755500D01*
X125130155Y-68772702D01*
X125127628Y-68789738D01*
X125123443Y-68806445D01*
X125117641Y-68822661D01*
X125110277Y-68838230D01*
X125101423Y-68853003D01*
X125091163Y-68866836D01*
X125079597Y-68879597D01*
X125066836Y-68891163D01*
X125053003Y-68901423D01*
X125038230Y-68910277D01*
X125022661Y-68917641D01*
X125006445Y-68923443D01*
X124989738Y-68927628D01*
X124972702Y-68930155D01*
X124955500Y-68931000D01*
X123404500Y-68931000D01*
X123387298Y-68930155D01*
X123370262Y-68927628D01*
X123353555Y-68923443D01*
X123337339Y-68917641D01*
X123321770Y-68910277D01*
X123306997Y-68901423D01*
X123293164Y-68891163D01*
X123280403Y-68879597D01*
X123268837Y-68866836D01*
X123258577Y-68853003D01*
X123249723Y-68838230D01*
X123242359Y-68822661D01*
X123236557Y-68806445D01*
X123232372Y-68789738D01*
X123229845Y-68772702D01*
X123229000Y-68755500D01*
X123229000Y-68404500D01*
X123229845Y-68387298D01*
X123232372Y-68370262D01*
X123236557Y-68353555D01*
X123242359Y-68337339D01*
X123249723Y-68321770D01*
X123258577Y-68306997D01*
X123268837Y-68293164D01*
X123280403Y-68280403D01*
X123293164Y-68268837D01*
X123306997Y-68258577D01*
X123321770Y-68249723D01*
X123337339Y-68242359D01*
X123353555Y-68236557D01*
X123370262Y-68232372D01*
X123387298Y-68229845D01*
X123404500Y-68229000D01*
X124955500Y-68229000D01*
X124972702Y-68229845D01*
G37*
G36*
X124972702Y-66959845D02*
G01*
X124989738Y-66962372D01*
X125006445Y-66966557D01*
X125022661Y-66972359D01*
X125038230Y-66979723D01*
X125053003Y-66988577D01*
X125066836Y-66998837D01*
X125079597Y-67010403D01*
X125091163Y-67023164D01*
X125101423Y-67036997D01*
X125110277Y-67051770D01*
X125117641Y-67067339D01*
X125123443Y-67083555D01*
X125127628Y-67100262D01*
X125130155Y-67117298D01*
X125131000Y-67134500D01*
X125131000Y-67485500D01*
X125130155Y-67502702D01*
X125127628Y-67519738D01*
X125123443Y-67536445D01*
X125117641Y-67552661D01*
X125110277Y-67568230D01*
X125101423Y-67583003D01*
X125091163Y-67596836D01*
X125079597Y-67609597D01*
X125066836Y-67621163D01*
X125053003Y-67631423D01*
X125038230Y-67640277D01*
X125022661Y-67647641D01*
X125006445Y-67653443D01*
X124989738Y-67657628D01*
X124972702Y-67660155D01*
X124955500Y-67661000D01*
X123404500Y-67661000D01*
X123387298Y-67660155D01*
X123370262Y-67657628D01*
X123353555Y-67653443D01*
X123337339Y-67647641D01*
X123321770Y-67640277D01*
X123306997Y-67631423D01*
X123293164Y-67621163D01*
X123280403Y-67609597D01*
X123268837Y-67596836D01*
X123258577Y-67583003D01*
X123249723Y-67568230D01*
X123242359Y-67552661D01*
X123236557Y-67536445D01*
X123232372Y-67519738D01*
X123229845Y-67502702D01*
X123229000Y-67485500D01*
X123229000Y-67134500D01*
X123229845Y-67117298D01*
X123232372Y-67100262D01*
X123236557Y-67083555D01*
X123242359Y-67067339D01*
X123249723Y-67051770D01*
X123258577Y-67036997D01*
X123268837Y-67023164D01*
X123280403Y-67010403D01*
X123293164Y-66998837D01*
X123306997Y-66988577D01*
X123321770Y-66979723D01*
X123337339Y-66972359D01*
X123353555Y-66966557D01*
X123370262Y-66962372D01*
X123387298Y-66959845D01*
X123404500Y-66959000D01*
X124955500Y-66959000D01*
X124972702Y-66959845D01*
G37*
G36*
X124972702Y-65689845D02*
G01*
X124989738Y-65692372D01*
X125006445Y-65696557D01*
X125022661Y-65702359D01*
X125038230Y-65709723D01*
X125053003Y-65718577D01*
X125066836Y-65728837D01*
X125079597Y-65740403D01*
X125091163Y-65753164D01*
X125101423Y-65766997D01*
X125110277Y-65781770D01*
X125117641Y-65797339D01*
X125123443Y-65813555D01*
X125127628Y-65830262D01*
X125130155Y-65847298D01*
X125131000Y-65864500D01*
X125131000Y-66215500D01*
X125130155Y-66232702D01*
X125127628Y-66249738D01*
X125123443Y-66266445D01*
X125117641Y-66282661D01*
X125110277Y-66298230D01*
X125101423Y-66313003D01*
X125091163Y-66326836D01*
X125079597Y-66339597D01*
X125066836Y-66351163D01*
X125053003Y-66361423D01*
X125038230Y-66370277D01*
X125022661Y-66377641D01*
X125006445Y-66383443D01*
X124989738Y-66387628D01*
X124972702Y-66390155D01*
X124955500Y-66391000D01*
X123404500Y-66391000D01*
X123387298Y-66390155D01*
X123370262Y-66387628D01*
X123353555Y-66383443D01*
X123337339Y-66377641D01*
X123321770Y-66370277D01*
X123306997Y-66361423D01*
X123293164Y-66351163D01*
X123280403Y-66339597D01*
X123268837Y-66326836D01*
X123258577Y-66313003D01*
X123249723Y-66298230D01*
X123242359Y-66282661D01*
X123236557Y-66266445D01*
X123232372Y-66249738D01*
X123229845Y-66232702D01*
X123229000Y-66215500D01*
X123229000Y-65864500D01*
X123229845Y-65847298D01*
X123232372Y-65830262D01*
X123236557Y-65813555D01*
X123242359Y-65797339D01*
X123249723Y-65781770D01*
X123258577Y-65766997D01*
X123268837Y-65753164D01*
X123280403Y-65740403D01*
X123293164Y-65728837D01*
X123306997Y-65718577D01*
X123321770Y-65709723D01*
X123337339Y-65702359D01*
X123353555Y-65696557D01*
X123370262Y-65692372D01*
X123387298Y-65689845D01*
X123404500Y-65689000D01*
X124955500Y-65689000D01*
X124972702Y-65689845D01*
G37*
G36*
X124972702Y-64419845D02*
G01*
X124989738Y-64422372D01*
X125006445Y-64426557D01*
X125022661Y-64432359D01*
X125038230Y-64439723D01*
X125053003Y-64448577D01*
X125066836Y-64458837D01*
X125079597Y-64470403D01*
X125091163Y-64483164D01*
X125101423Y-64496997D01*
X125110277Y-64511770D01*
X125117641Y-64527339D01*
X125123443Y-64543555D01*
X125127628Y-64560262D01*
X125130155Y-64577298D01*
X125131000Y-64594500D01*
X125131000Y-64945500D01*
X125130155Y-64962702D01*
X125127628Y-64979738D01*
X125123443Y-64996445D01*
X125117641Y-65012661D01*
X125110277Y-65028230D01*
X125101423Y-65043003D01*
X125091163Y-65056836D01*
X125079597Y-65069597D01*
X125066836Y-65081163D01*
X125053003Y-65091423D01*
X125038230Y-65100277D01*
X125022661Y-65107641D01*
X125006445Y-65113443D01*
X124989738Y-65117628D01*
X124972702Y-65120155D01*
X124955500Y-65121000D01*
X123404500Y-65121000D01*
X123387298Y-65120155D01*
X123370262Y-65117628D01*
X123353555Y-65113443D01*
X123337339Y-65107641D01*
X123321770Y-65100277D01*
X123306997Y-65091423D01*
X123293164Y-65081163D01*
X123280403Y-65069597D01*
X123268837Y-65056836D01*
X123258577Y-65043003D01*
X123249723Y-65028230D01*
X123242359Y-65012661D01*
X123236557Y-64996445D01*
X123232372Y-64979738D01*
X123229845Y-64962702D01*
X123229000Y-64945500D01*
X123229000Y-64594500D01*
X123229845Y-64577298D01*
X123232372Y-64560262D01*
X123236557Y-64543555D01*
X123242359Y-64527339D01*
X123249723Y-64511770D01*
X123258577Y-64496997D01*
X123268837Y-64483164D01*
X123280403Y-64470403D01*
X123293164Y-64458837D01*
X123306997Y-64448577D01*
X123321770Y-64439723D01*
X123337339Y-64432359D01*
X123353555Y-64426557D01*
X123370262Y-64422372D01*
X123387298Y-64419845D01*
X123404500Y-64419000D01*
X124955500Y-64419000D01*
X124972702Y-64419845D01*
G37*
G36*
X124972702Y-63149845D02*
G01*
X124989738Y-63152372D01*
X125006445Y-63156557D01*
X125022661Y-63162359D01*
X125038230Y-63169723D01*
X125053003Y-63178577D01*
X125066836Y-63188837D01*
X125079597Y-63200403D01*
X125091163Y-63213164D01*
X125101423Y-63226997D01*
X125110277Y-63241770D01*
X125117641Y-63257339D01*
X125123443Y-63273555D01*
X125127628Y-63290262D01*
X125130155Y-63307298D01*
X125131000Y-63324500D01*
X125131000Y-63675500D01*
X125130155Y-63692702D01*
X125127628Y-63709738D01*
X125123443Y-63726445D01*
X125117641Y-63742661D01*
X125110277Y-63758230D01*
X125101423Y-63773003D01*
X125091163Y-63786836D01*
X125079597Y-63799597D01*
X125066836Y-63811163D01*
X125053003Y-63821423D01*
X125038230Y-63830277D01*
X125022661Y-63837641D01*
X125006445Y-63843443D01*
X124989738Y-63847628D01*
X124972702Y-63850155D01*
X124955500Y-63851000D01*
X123404500Y-63851000D01*
X123387298Y-63850155D01*
X123370262Y-63847628D01*
X123353555Y-63843443D01*
X123337339Y-63837641D01*
X123321770Y-63830277D01*
X123306997Y-63821423D01*
X123293164Y-63811163D01*
X123280403Y-63799597D01*
X123268837Y-63786836D01*
X123258577Y-63773003D01*
X123249723Y-63758230D01*
X123242359Y-63742661D01*
X123236557Y-63726445D01*
X123232372Y-63709738D01*
X123229845Y-63692702D01*
X123229000Y-63675500D01*
X123229000Y-63324500D01*
X123229845Y-63307298D01*
X123232372Y-63290262D01*
X123236557Y-63273555D01*
X123242359Y-63257339D01*
X123249723Y-63241770D01*
X123258577Y-63226997D01*
X123268837Y-63213164D01*
X123280403Y-63200403D01*
X123293164Y-63188837D01*
X123306997Y-63178577D01*
X123321770Y-63169723D01*
X123337339Y-63162359D01*
X123353555Y-63156557D01*
X123370262Y-63152372D01*
X123387298Y-63149845D01*
X123404500Y-63149000D01*
X124955500Y-63149000D01*
X124972702Y-63149845D01*
G37*
G36*
X124972702Y-61879845D02*
G01*
X124989738Y-61882372D01*
X125006445Y-61886557D01*
X125022661Y-61892359D01*
X125038230Y-61899723D01*
X125053003Y-61908577D01*
X125066836Y-61918837D01*
X125079597Y-61930403D01*
X125091163Y-61943164D01*
X125101423Y-61956997D01*
X125110277Y-61971770D01*
X125117641Y-61987339D01*
X125123443Y-62003555D01*
X125127628Y-62020262D01*
X125130155Y-62037298D01*
X125131000Y-62054500D01*
X125131000Y-62405500D01*
X125130155Y-62422702D01*
X125127628Y-62439738D01*
X125123443Y-62456445D01*
X125117641Y-62472661D01*
X125110277Y-62488230D01*
X125101423Y-62503003D01*
X125091163Y-62516836D01*
X125079597Y-62529597D01*
X125066836Y-62541163D01*
X125053003Y-62551423D01*
X125038230Y-62560277D01*
X125022661Y-62567641D01*
X125006445Y-62573443D01*
X124989738Y-62577628D01*
X124972702Y-62580155D01*
X124955500Y-62581000D01*
X123404500Y-62581000D01*
X123387298Y-62580155D01*
X123370262Y-62577628D01*
X123353555Y-62573443D01*
X123337339Y-62567641D01*
X123321770Y-62560277D01*
X123306997Y-62551423D01*
X123293164Y-62541163D01*
X123280403Y-62529597D01*
X123268837Y-62516836D01*
X123258577Y-62503003D01*
X123249723Y-62488230D01*
X123242359Y-62472661D01*
X123236557Y-62456445D01*
X123232372Y-62439738D01*
X123229845Y-62422702D01*
X123229000Y-62405500D01*
X123229000Y-62054500D01*
X123229845Y-62037298D01*
X123232372Y-62020262D01*
X123236557Y-62003555D01*
X123242359Y-61987339D01*
X123249723Y-61971770D01*
X123258577Y-61956997D01*
X123268837Y-61943164D01*
X123280403Y-61930403D01*
X123293164Y-61918837D01*
X123306997Y-61908577D01*
X123321770Y-61899723D01*
X123337339Y-61892359D01*
X123353555Y-61886557D01*
X123370262Y-61882372D01*
X123387298Y-61879845D01*
X123404500Y-61879000D01*
X124955500Y-61879000D01*
X124972702Y-61879845D01*
G37*
G36*
X124972702Y-60609845D02*
G01*
X124989738Y-60612372D01*
X125006445Y-60616557D01*
X125022661Y-60622359D01*
X125038230Y-60629723D01*
X125053003Y-60638577D01*
X125066836Y-60648837D01*
X125079597Y-60660403D01*
X125091163Y-60673164D01*
X125101423Y-60686997D01*
X125110277Y-60701770D01*
X125117641Y-60717339D01*
X125123443Y-60733555D01*
X125127628Y-60750262D01*
X125130155Y-60767298D01*
X125131000Y-60784500D01*
X125131000Y-61135500D01*
X125130155Y-61152702D01*
X125127628Y-61169738D01*
X125123443Y-61186445D01*
X125117641Y-61202661D01*
X125110277Y-61218230D01*
X125101423Y-61233003D01*
X125091163Y-61246836D01*
X125079597Y-61259597D01*
X125066836Y-61271163D01*
X125053003Y-61281423D01*
X125038230Y-61290277D01*
X125022661Y-61297641D01*
X125006445Y-61303443D01*
X124989738Y-61307628D01*
X124972702Y-61310155D01*
X124955500Y-61311000D01*
X123404500Y-61311000D01*
X123387298Y-61310155D01*
X123370262Y-61307628D01*
X123353555Y-61303443D01*
X123337339Y-61297641D01*
X123321770Y-61290277D01*
X123306997Y-61281423D01*
X123293164Y-61271163D01*
X123280403Y-61259597D01*
X123268837Y-61246836D01*
X123258577Y-61233003D01*
X123249723Y-61218230D01*
X123242359Y-61202661D01*
X123236557Y-61186445D01*
X123232372Y-61169738D01*
X123229845Y-61152702D01*
X123229000Y-61135500D01*
X123229000Y-60784500D01*
X123229845Y-60767298D01*
X123232372Y-60750262D01*
X123236557Y-60733555D01*
X123242359Y-60717339D01*
X123249723Y-60701770D01*
X123258577Y-60686997D01*
X123268837Y-60673164D01*
X123280403Y-60660403D01*
X123293164Y-60648837D01*
X123306997Y-60638577D01*
X123321770Y-60629723D01*
X123337339Y-60622359D01*
X123353555Y-60616557D01*
X123370262Y-60612372D01*
X123387298Y-60609845D01*
X123404500Y-60609000D01*
X124955500Y-60609000D01*
X124972702Y-60609845D01*
G37*
G36*
X124972702Y-59339845D02*
G01*
X124989738Y-59342372D01*
X125006445Y-59346557D01*
X125022661Y-59352359D01*
X125038230Y-59359723D01*
X125053003Y-59368577D01*
X125066836Y-59378837D01*
X125079597Y-59390403D01*
X125091163Y-59403164D01*
X125101423Y-59416997D01*
X125110277Y-59431770D01*
X125117641Y-59447339D01*
X125123443Y-59463555D01*
X125127628Y-59480262D01*
X125130155Y-59497298D01*
X125131000Y-59514500D01*
X125131000Y-59865500D01*
X125130155Y-59882702D01*
X125127628Y-59899738D01*
X125123443Y-59916445D01*
X125117641Y-59932661D01*
X125110277Y-59948230D01*
X125101423Y-59963003D01*
X125091163Y-59976836D01*
X125079597Y-59989597D01*
X125066836Y-60001163D01*
X125053003Y-60011423D01*
X125038230Y-60020277D01*
X125022661Y-60027641D01*
X125006445Y-60033443D01*
X124989738Y-60037628D01*
X124972702Y-60040155D01*
X124955500Y-60041000D01*
X123404500Y-60041000D01*
X123387298Y-60040155D01*
X123370262Y-60037628D01*
X123353555Y-60033443D01*
X123337339Y-60027641D01*
X123321770Y-60020277D01*
X123306997Y-60011423D01*
X123293164Y-60001163D01*
X123280403Y-59989597D01*
X123268837Y-59976836D01*
X123258577Y-59963003D01*
X123249723Y-59948230D01*
X123242359Y-59932661D01*
X123236557Y-59916445D01*
X123232372Y-59899738D01*
X123229845Y-59882702D01*
X123229000Y-59865500D01*
X123229000Y-59514500D01*
X123229845Y-59497298D01*
X123232372Y-59480262D01*
X123236557Y-59463555D01*
X123242359Y-59447339D01*
X123249723Y-59431770D01*
X123258577Y-59416997D01*
X123268837Y-59403164D01*
X123280403Y-59390403D01*
X123293164Y-59378837D01*
X123306997Y-59368577D01*
X123321770Y-59359723D01*
X123337339Y-59352359D01*
X123353555Y-59346557D01*
X123370262Y-59342372D01*
X123387298Y-59339845D01*
X123404500Y-59339000D01*
X124955500Y-59339000D01*
X124972702Y-59339845D01*
G37*
G36*
X124972702Y-58069845D02*
G01*
X124989738Y-58072372D01*
X125006445Y-58076557D01*
X125022661Y-58082359D01*
X125038230Y-58089723D01*
X125053003Y-58098577D01*
X125066836Y-58108837D01*
X125079597Y-58120403D01*
X125091163Y-58133164D01*
X125101423Y-58146997D01*
X125110277Y-58161770D01*
X125117641Y-58177339D01*
X125123443Y-58193555D01*
X125127628Y-58210262D01*
X125130155Y-58227298D01*
X125131000Y-58244500D01*
X125131000Y-58595500D01*
X125130155Y-58612702D01*
X125127628Y-58629738D01*
X125123443Y-58646445D01*
X125117641Y-58662661D01*
X125110277Y-58678230D01*
X125101423Y-58693003D01*
X125091163Y-58706836D01*
X125079597Y-58719597D01*
X125066836Y-58731163D01*
X125053003Y-58741423D01*
X125038230Y-58750277D01*
X125022661Y-58757641D01*
X125006445Y-58763443D01*
X124989738Y-58767628D01*
X124972702Y-58770155D01*
X124955500Y-58771000D01*
X123404500Y-58771000D01*
X123387298Y-58770155D01*
X123370262Y-58767628D01*
X123353555Y-58763443D01*
X123337339Y-58757641D01*
X123321770Y-58750277D01*
X123306997Y-58741423D01*
X123293164Y-58731163D01*
X123280403Y-58719597D01*
X123268837Y-58706836D01*
X123258577Y-58693003D01*
X123249723Y-58678230D01*
X123242359Y-58662661D01*
X123236557Y-58646445D01*
X123232372Y-58629738D01*
X123229845Y-58612702D01*
X123229000Y-58595500D01*
X123229000Y-58244500D01*
X123229845Y-58227298D01*
X123232372Y-58210262D01*
X123236557Y-58193555D01*
X123242359Y-58177339D01*
X123249723Y-58161770D01*
X123258577Y-58146997D01*
X123268837Y-58133164D01*
X123280403Y-58120403D01*
X123293164Y-58108837D01*
X123306997Y-58098577D01*
X123321770Y-58089723D01*
X123337339Y-58082359D01*
X123353555Y-58076557D01*
X123370262Y-58072372D01*
X123387298Y-58069845D01*
X123404500Y-58069000D01*
X124955500Y-58069000D01*
X124972702Y-58069845D01*
G37*
G36*
X124972702Y-56799845D02*
G01*
X124989738Y-56802372D01*
X125006445Y-56806557D01*
X125022661Y-56812359D01*
X125038230Y-56819723D01*
X125053003Y-56828577D01*
X125066836Y-56838837D01*
X125079597Y-56850403D01*
X125091163Y-56863164D01*
X125101423Y-56876997D01*
X125110277Y-56891770D01*
X125117641Y-56907339D01*
X125123443Y-56923555D01*
X125127628Y-56940262D01*
X125130155Y-56957298D01*
X125131000Y-56974500D01*
X125131000Y-57325500D01*
X125130155Y-57342702D01*
X125127628Y-57359738D01*
X125123443Y-57376445D01*
X125117641Y-57392661D01*
X125110277Y-57408230D01*
X125101423Y-57423003D01*
X125091163Y-57436836D01*
X125079597Y-57449597D01*
X125066836Y-57461163D01*
X125053003Y-57471423D01*
X125038230Y-57480277D01*
X125022661Y-57487641D01*
X125006445Y-57493443D01*
X124989738Y-57497628D01*
X124972702Y-57500155D01*
X124955500Y-57501000D01*
X123404500Y-57501000D01*
X123387298Y-57500155D01*
X123370262Y-57497628D01*
X123353555Y-57493443D01*
X123337339Y-57487641D01*
X123321770Y-57480277D01*
X123306997Y-57471423D01*
X123293164Y-57461163D01*
X123280403Y-57449597D01*
X123268837Y-57436836D01*
X123258577Y-57423003D01*
X123249723Y-57408230D01*
X123242359Y-57392661D01*
X123236557Y-57376445D01*
X123232372Y-57359738D01*
X123229845Y-57342702D01*
X123229000Y-57325500D01*
X123229000Y-56974500D01*
X123229845Y-56957298D01*
X123232372Y-56940262D01*
X123236557Y-56923555D01*
X123242359Y-56907339D01*
X123249723Y-56891770D01*
X123258577Y-56876997D01*
X123268837Y-56863164D01*
X123280403Y-56850403D01*
X123293164Y-56838837D01*
X123306997Y-56828577D01*
X123321770Y-56819723D01*
X123337339Y-56812359D01*
X123353555Y-56806557D01*
X123370262Y-56802372D01*
X123387298Y-56799845D01*
X123404500Y-56799000D01*
X124955500Y-56799000D01*
X124972702Y-56799845D01*
G37*
G36*
X124972702Y-55529845D02*
G01*
X124989738Y-55532372D01*
X125006445Y-55536557D01*
X125022661Y-55542359D01*
X125038230Y-55549723D01*
X125053003Y-55558577D01*
X125066836Y-55568837D01*
X125079597Y-55580403D01*
X125091163Y-55593164D01*
X125101423Y-55606997D01*
X125110277Y-55621770D01*
X125117641Y-55637339D01*
X125123443Y-55653555D01*
X125127628Y-55670262D01*
X125130155Y-55687298D01*
X125131000Y-55704500D01*
X125131000Y-56055500D01*
X125130155Y-56072702D01*
X125127628Y-56089738D01*
X125123443Y-56106445D01*
X125117641Y-56122661D01*
X125110277Y-56138230D01*
X125101423Y-56153003D01*
X125091163Y-56166836D01*
X125079597Y-56179597D01*
X125066836Y-56191163D01*
X125053003Y-56201423D01*
X125038230Y-56210277D01*
X125022661Y-56217641D01*
X125006445Y-56223443D01*
X124989738Y-56227628D01*
X124972702Y-56230155D01*
X124955500Y-56231000D01*
X123404500Y-56231000D01*
X123387298Y-56230155D01*
X123370262Y-56227628D01*
X123353555Y-56223443D01*
X123337339Y-56217641D01*
X123321770Y-56210277D01*
X123306997Y-56201423D01*
X123293164Y-56191163D01*
X123280403Y-56179597D01*
X123268837Y-56166836D01*
X123258577Y-56153003D01*
X123249723Y-56138230D01*
X123242359Y-56122661D01*
X123236557Y-56106445D01*
X123232372Y-56089738D01*
X123229845Y-56072702D01*
X123229000Y-56055500D01*
X123229000Y-55704500D01*
X123229845Y-55687298D01*
X123232372Y-55670262D01*
X123236557Y-55653555D01*
X123242359Y-55637339D01*
X123249723Y-55621770D01*
X123258577Y-55606997D01*
X123268837Y-55593164D01*
X123280403Y-55580403D01*
X123293164Y-55568837D01*
X123306997Y-55558577D01*
X123321770Y-55549723D01*
X123337339Y-55542359D01*
X123353555Y-55536557D01*
X123370262Y-55532372D01*
X123387298Y-55529845D01*
X123404500Y-55529000D01*
X124955500Y-55529000D01*
X124972702Y-55529845D01*
G37*
G36*
X124972702Y-54259845D02*
G01*
X124989738Y-54262372D01*
X125006445Y-54266557D01*
X125022661Y-54272359D01*
X125038230Y-54279723D01*
X125053003Y-54288577D01*
X125066836Y-54298837D01*
X125079597Y-54310403D01*
X125091163Y-54323164D01*
X125101423Y-54336997D01*
X125110277Y-54351770D01*
X125117641Y-54367339D01*
X125123443Y-54383555D01*
X125127628Y-54400262D01*
X125130155Y-54417298D01*
X125131000Y-54434500D01*
X125131000Y-54785500D01*
X125130155Y-54802702D01*
X125127628Y-54819738D01*
X125123443Y-54836445D01*
X125117641Y-54852661D01*
X125110277Y-54868230D01*
X125101423Y-54883003D01*
X125091163Y-54896836D01*
X125079597Y-54909597D01*
X125066836Y-54921163D01*
X125053003Y-54931423D01*
X125038230Y-54940277D01*
X125022661Y-54947641D01*
X125006445Y-54953443D01*
X124989738Y-54957628D01*
X124972702Y-54960155D01*
X124955500Y-54961000D01*
X123404500Y-54961000D01*
X123387298Y-54960155D01*
X123370262Y-54957628D01*
X123353555Y-54953443D01*
X123337339Y-54947641D01*
X123321770Y-54940277D01*
X123306997Y-54931423D01*
X123293164Y-54921163D01*
X123280403Y-54909597D01*
X123268837Y-54896836D01*
X123258577Y-54883003D01*
X123249723Y-54868230D01*
X123242359Y-54852661D01*
X123236557Y-54836445D01*
X123232372Y-54819738D01*
X123229845Y-54802702D01*
X123229000Y-54785500D01*
X123229000Y-54434500D01*
X123229845Y-54417298D01*
X123232372Y-54400262D01*
X123236557Y-54383555D01*
X123242359Y-54367339D01*
X123249723Y-54351770D01*
X123258577Y-54336997D01*
X123268837Y-54323164D01*
X123280403Y-54310403D01*
X123293164Y-54298837D01*
X123306997Y-54288577D01*
X123321770Y-54279723D01*
X123337339Y-54272359D01*
X123353555Y-54266557D01*
X123370262Y-54262372D01*
X123387298Y-54259845D01*
X123404500Y-54259000D01*
X124955500Y-54259000D01*
X124972702Y-54259845D01*
G37*
G36*
X124972702Y-52989845D02*
G01*
X124989738Y-52992372D01*
X125006445Y-52996557D01*
X125022661Y-53002359D01*
X125038230Y-53009723D01*
X125053003Y-53018577D01*
X125066836Y-53028837D01*
X125079597Y-53040403D01*
X125091163Y-53053164D01*
X125101423Y-53066997D01*
X125110277Y-53081770D01*
X125117641Y-53097339D01*
X125123443Y-53113555D01*
X125127628Y-53130262D01*
X125130155Y-53147298D01*
X125131000Y-53164500D01*
X125131000Y-53515500D01*
X125130155Y-53532702D01*
X125127628Y-53549738D01*
X125123443Y-53566445D01*
X125117641Y-53582661D01*
X125110277Y-53598230D01*
X125101423Y-53613003D01*
X125091163Y-53626836D01*
X125079597Y-53639597D01*
X125066836Y-53651163D01*
X125053003Y-53661423D01*
X125038230Y-53670277D01*
X125022661Y-53677641D01*
X125006445Y-53683443D01*
X124989738Y-53687628D01*
X124972702Y-53690155D01*
X124955500Y-53691000D01*
X123404500Y-53691000D01*
X123387298Y-53690155D01*
X123370262Y-53687628D01*
X123353555Y-53683443D01*
X123337339Y-53677641D01*
X123321770Y-53670277D01*
X123306997Y-53661423D01*
X123293164Y-53651163D01*
X123280403Y-53639597D01*
X123268837Y-53626836D01*
X123258577Y-53613003D01*
X123249723Y-53598230D01*
X123242359Y-53582661D01*
X123236557Y-53566445D01*
X123232372Y-53549738D01*
X123229845Y-53532702D01*
X123229000Y-53515500D01*
X123229000Y-53164500D01*
X123229845Y-53147298D01*
X123232372Y-53130262D01*
X123236557Y-53113555D01*
X123242359Y-53097339D01*
X123249723Y-53081770D01*
X123258577Y-53066997D01*
X123268837Y-53053164D01*
X123280403Y-53040403D01*
X123293164Y-53028837D01*
X123306997Y-53018577D01*
X123321770Y-53009723D01*
X123337339Y-53002359D01*
X123353555Y-52996557D01*
X123370262Y-52992372D01*
X123387298Y-52989845D01*
X123404500Y-52989000D01*
X124955500Y-52989000D01*
X124972702Y-52989845D01*
G37*
G36*
X115372702Y-52989845D02*
G01*
X115389738Y-52992372D01*
X115406445Y-52996557D01*
X115422661Y-53002359D01*
X115438230Y-53009723D01*
X115453003Y-53018577D01*
X115466836Y-53028837D01*
X115479597Y-53040403D01*
X115491163Y-53053164D01*
X115501423Y-53066997D01*
X115510277Y-53081770D01*
X115517641Y-53097339D01*
X115523443Y-53113555D01*
X115527628Y-53130262D01*
X115530155Y-53147298D01*
X115531000Y-53164500D01*
X115531000Y-53515500D01*
X115530155Y-53532702D01*
X115527628Y-53549738D01*
X115523443Y-53566445D01*
X115517641Y-53582661D01*
X115510277Y-53598230D01*
X115501423Y-53613003D01*
X115491163Y-53626836D01*
X115479597Y-53639597D01*
X115466836Y-53651163D01*
X115453003Y-53661423D01*
X115438230Y-53670277D01*
X115422661Y-53677641D01*
X115406445Y-53683443D01*
X115389738Y-53687628D01*
X115372702Y-53690155D01*
X115355500Y-53691000D01*
X113804500Y-53691000D01*
X113787298Y-53690155D01*
X113770262Y-53687628D01*
X113753555Y-53683443D01*
X113737339Y-53677641D01*
X113721770Y-53670277D01*
X113706997Y-53661423D01*
X113693164Y-53651163D01*
X113680403Y-53639597D01*
X113668837Y-53626836D01*
X113658577Y-53613003D01*
X113649723Y-53598230D01*
X113642359Y-53582661D01*
X113636557Y-53566445D01*
X113632372Y-53549738D01*
X113629845Y-53532702D01*
X113629000Y-53515500D01*
X113629000Y-53164500D01*
X113629845Y-53147298D01*
X113632372Y-53130262D01*
X113636557Y-53113555D01*
X113642359Y-53097339D01*
X113649723Y-53081770D01*
X113658577Y-53066997D01*
X113668837Y-53053164D01*
X113680403Y-53040403D01*
X113693164Y-53028837D01*
X113706997Y-53018577D01*
X113721770Y-53009723D01*
X113737339Y-53002359D01*
X113753555Y-52996557D01*
X113770262Y-52992372D01*
X113787298Y-52989845D01*
X113804500Y-52989000D01*
X115355500Y-52989000D01*
X115372702Y-52989845D01*
G37*
G36*
X115372702Y-54259845D02*
G01*
X115389738Y-54262372D01*
X115406445Y-54266557D01*
X115422661Y-54272359D01*
X115438230Y-54279723D01*
X115453003Y-54288577D01*
X115466836Y-54298837D01*
X115479597Y-54310403D01*
X115491163Y-54323164D01*
X115501423Y-54336997D01*
X115510277Y-54351770D01*
X115517641Y-54367339D01*
X115523443Y-54383555D01*
X115527628Y-54400262D01*
X115530155Y-54417298D01*
X115531000Y-54434500D01*
X115531000Y-54785500D01*
X115530155Y-54802702D01*
X115527628Y-54819738D01*
X115523443Y-54836445D01*
X115517641Y-54852661D01*
X115510277Y-54868230D01*
X115501423Y-54883003D01*
X115491163Y-54896836D01*
X115479597Y-54909597D01*
X115466836Y-54921163D01*
X115453003Y-54931423D01*
X115438230Y-54940277D01*
X115422661Y-54947641D01*
X115406445Y-54953443D01*
X115389738Y-54957628D01*
X115372702Y-54960155D01*
X115355500Y-54961000D01*
X113804500Y-54961000D01*
X113787298Y-54960155D01*
X113770262Y-54957628D01*
X113753555Y-54953443D01*
X113737339Y-54947641D01*
X113721770Y-54940277D01*
X113706997Y-54931423D01*
X113693164Y-54921163D01*
X113680403Y-54909597D01*
X113668837Y-54896836D01*
X113658577Y-54883003D01*
X113649723Y-54868230D01*
X113642359Y-54852661D01*
X113636557Y-54836445D01*
X113632372Y-54819738D01*
X113629845Y-54802702D01*
X113629000Y-54785500D01*
X113629000Y-54434500D01*
X113629845Y-54417298D01*
X113632372Y-54400262D01*
X113636557Y-54383555D01*
X113642359Y-54367339D01*
X113649723Y-54351770D01*
X113658577Y-54336997D01*
X113668837Y-54323164D01*
X113680403Y-54310403D01*
X113693164Y-54298837D01*
X113706997Y-54288577D01*
X113721770Y-54279723D01*
X113737339Y-54272359D01*
X113753555Y-54266557D01*
X113770262Y-54262372D01*
X113787298Y-54259845D01*
X113804500Y-54259000D01*
X115355500Y-54259000D01*
X115372702Y-54259845D01*
G37*
G36*
X115372702Y-55529845D02*
G01*
X115389738Y-55532372D01*
X115406445Y-55536557D01*
X115422661Y-55542359D01*
X115438230Y-55549723D01*
X115453003Y-55558577D01*
X115466836Y-55568837D01*
X115479597Y-55580403D01*
X115491163Y-55593164D01*
X115501423Y-55606997D01*
X115510277Y-55621770D01*
X115517641Y-55637339D01*
X115523443Y-55653555D01*
X115527628Y-55670262D01*
X115530155Y-55687298D01*
X115531000Y-55704500D01*
X115531000Y-56055500D01*
X115530155Y-56072702D01*
X115527628Y-56089738D01*
X115523443Y-56106445D01*
X115517641Y-56122661D01*
X115510277Y-56138230D01*
X115501423Y-56153003D01*
X115491163Y-56166836D01*
X115479597Y-56179597D01*
X115466836Y-56191163D01*
X115453003Y-56201423D01*
X115438230Y-56210277D01*
X115422661Y-56217641D01*
X115406445Y-56223443D01*
X115389738Y-56227628D01*
X115372702Y-56230155D01*
X115355500Y-56231000D01*
X113804500Y-56231000D01*
X113787298Y-56230155D01*
X113770262Y-56227628D01*
X113753555Y-56223443D01*
X113737339Y-56217641D01*
X113721770Y-56210277D01*
X113706997Y-56201423D01*
X113693164Y-56191163D01*
X113680403Y-56179597D01*
X113668837Y-56166836D01*
X113658577Y-56153003D01*
X113649723Y-56138230D01*
X113642359Y-56122661D01*
X113636557Y-56106445D01*
X113632372Y-56089738D01*
X113629845Y-56072702D01*
X113629000Y-56055500D01*
X113629000Y-55704500D01*
X113629845Y-55687298D01*
X113632372Y-55670262D01*
X113636557Y-55653555D01*
X113642359Y-55637339D01*
X113649723Y-55621770D01*
X113658577Y-55606997D01*
X113668837Y-55593164D01*
X113680403Y-55580403D01*
X113693164Y-55568837D01*
X113706997Y-55558577D01*
X113721770Y-55549723D01*
X113737339Y-55542359D01*
X113753555Y-55536557D01*
X113770262Y-55532372D01*
X113787298Y-55529845D01*
X113804500Y-55529000D01*
X115355500Y-55529000D01*
X115372702Y-55529845D01*
G37*
G36*
X115372702Y-56799845D02*
G01*
X115389738Y-56802372D01*
X115406445Y-56806557D01*
X115422661Y-56812359D01*
X115438230Y-56819723D01*
X115453003Y-56828577D01*
X115466836Y-56838837D01*
X115479597Y-56850403D01*
X115491163Y-56863164D01*
X115501423Y-56876997D01*
X115510277Y-56891770D01*
X115517641Y-56907339D01*
X115523443Y-56923555D01*
X115527628Y-56940262D01*
X115530155Y-56957298D01*
X115531000Y-56974500D01*
X115531000Y-57325500D01*
X115530155Y-57342702D01*
X115527628Y-57359738D01*
X115523443Y-57376445D01*
X115517641Y-57392661D01*
X115510277Y-57408230D01*
X115501423Y-57423003D01*
X115491163Y-57436836D01*
X115479597Y-57449597D01*
X115466836Y-57461163D01*
X115453003Y-57471423D01*
X115438230Y-57480277D01*
X115422661Y-57487641D01*
X115406445Y-57493443D01*
X115389738Y-57497628D01*
X115372702Y-57500155D01*
X115355500Y-57501000D01*
X113804500Y-57501000D01*
X113787298Y-57500155D01*
X113770262Y-57497628D01*
X113753555Y-57493443D01*
X113737339Y-57487641D01*
X113721770Y-57480277D01*
X113706997Y-57471423D01*
X113693164Y-57461163D01*
X113680403Y-57449597D01*
X113668837Y-57436836D01*
X113658577Y-57423003D01*
X113649723Y-57408230D01*
X113642359Y-57392661D01*
X113636557Y-57376445D01*
X113632372Y-57359738D01*
X113629845Y-57342702D01*
X113629000Y-57325500D01*
X113629000Y-56974500D01*
X113629845Y-56957298D01*
X113632372Y-56940262D01*
X113636557Y-56923555D01*
X113642359Y-56907339D01*
X113649723Y-56891770D01*
X113658577Y-56876997D01*
X113668837Y-56863164D01*
X113680403Y-56850403D01*
X113693164Y-56838837D01*
X113706997Y-56828577D01*
X113721770Y-56819723D01*
X113737339Y-56812359D01*
X113753555Y-56806557D01*
X113770262Y-56802372D01*
X113787298Y-56799845D01*
X113804500Y-56799000D01*
X115355500Y-56799000D01*
X115372702Y-56799845D01*
G37*
G36*
X115372702Y-58069845D02*
G01*
X115389738Y-58072372D01*
X115406445Y-58076557D01*
X115422661Y-58082359D01*
X115438230Y-58089723D01*
X115453003Y-58098577D01*
X115466836Y-58108837D01*
X115479597Y-58120403D01*
X115491163Y-58133164D01*
X115501423Y-58146997D01*
X115510277Y-58161770D01*
X115517641Y-58177339D01*
X115523443Y-58193555D01*
X115527628Y-58210262D01*
X115530155Y-58227298D01*
X115531000Y-58244500D01*
X115531000Y-58595500D01*
X115530155Y-58612702D01*
X115527628Y-58629738D01*
X115523443Y-58646445D01*
X115517641Y-58662661D01*
X115510277Y-58678230D01*
X115501423Y-58693003D01*
X115491163Y-58706836D01*
X115479597Y-58719597D01*
X115466836Y-58731163D01*
X115453003Y-58741423D01*
X115438230Y-58750277D01*
X115422661Y-58757641D01*
X115406445Y-58763443D01*
X115389738Y-58767628D01*
X115372702Y-58770155D01*
X115355500Y-58771000D01*
X113804500Y-58771000D01*
X113787298Y-58770155D01*
X113770262Y-58767628D01*
X113753555Y-58763443D01*
X113737339Y-58757641D01*
X113721770Y-58750277D01*
X113706997Y-58741423D01*
X113693164Y-58731163D01*
X113680403Y-58719597D01*
X113668837Y-58706836D01*
X113658577Y-58693003D01*
X113649723Y-58678230D01*
X113642359Y-58662661D01*
X113636557Y-58646445D01*
X113632372Y-58629738D01*
X113629845Y-58612702D01*
X113629000Y-58595500D01*
X113629000Y-58244500D01*
X113629845Y-58227298D01*
X113632372Y-58210262D01*
X113636557Y-58193555D01*
X113642359Y-58177339D01*
X113649723Y-58161770D01*
X113658577Y-58146997D01*
X113668837Y-58133164D01*
X113680403Y-58120403D01*
X113693164Y-58108837D01*
X113706997Y-58098577D01*
X113721770Y-58089723D01*
X113737339Y-58082359D01*
X113753555Y-58076557D01*
X113770262Y-58072372D01*
X113787298Y-58069845D01*
X113804500Y-58069000D01*
X115355500Y-58069000D01*
X115372702Y-58069845D01*
G37*
G36*
X115372702Y-59339845D02*
G01*
X115389738Y-59342372D01*
X115406445Y-59346557D01*
X115422661Y-59352359D01*
X115438230Y-59359723D01*
X115453003Y-59368577D01*
X115466836Y-59378837D01*
X115479597Y-59390403D01*
X115491163Y-59403164D01*
X115501423Y-59416997D01*
X115510277Y-59431770D01*
X115517641Y-59447339D01*
X115523443Y-59463555D01*
X115527628Y-59480262D01*
X115530155Y-59497298D01*
X115531000Y-59514500D01*
X115531000Y-59865500D01*
X115530155Y-59882702D01*
X115527628Y-59899738D01*
X115523443Y-59916445D01*
X115517641Y-59932661D01*
X115510277Y-59948230D01*
X115501423Y-59963003D01*
X115491163Y-59976836D01*
X115479597Y-59989597D01*
X115466836Y-60001163D01*
X115453003Y-60011423D01*
X115438230Y-60020277D01*
X115422661Y-60027641D01*
X115406445Y-60033443D01*
X115389738Y-60037628D01*
X115372702Y-60040155D01*
X115355500Y-60041000D01*
X113804500Y-60041000D01*
X113787298Y-60040155D01*
X113770262Y-60037628D01*
X113753555Y-60033443D01*
X113737339Y-60027641D01*
X113721770Y-60020277D01*
X113706997Y-60011423D01*
X113693164Y-60001163D01*
X113680403Y-59989597D01*
X113668837Y-59976836D01*
X113658577Y-59963003D01*
X113649723Y-59948230D01*
X113642359Y-59932661D01*
X113636557Y-59916445D01*
X113632372Y-59899738D01*
X113629845Y-59882702D01*
X113629000Y-59865500D01*
X113629000Y-59514500D01*
X113629845Y-59497298D01*
X113632372Y-59480262D01*
X113636557Y-59463555D01*
X113642359Y-59447339D01*
X113649723Y-59431770D01*
X113658577Y-59416997D01*
X113668837Y-59403164D01*
X113680403Y-59390403D01*
X113693164Y-59378837D01*
X113706997Y-59368577D01*
X113721770Y-59359723D01*
X113737339Y-59352359D01*
X113753555Y-59346557D01*
X113770262Y-59342372D01*
X113787298Y-59339845D01*
X113804500Y-59339000D01*
X115355500Y-59339000D01*
X115372702Y-59339845D01*
G37*
G36*
X115372702Y-60609845D02*
G01*
X115389738Y-60612372D01*
X115406445Y-60616557D01*
X115422661Y-60622359D01*
X115438230Y-60629723D01*
X115453003Y-60638577D01*
X115466836Y-60648837D01*
X115479597Y-60660403D01*
X115491163Y-60673164D01*
X115501423Y-60686997D01*
X115510277Y-60701770D01*
X115517641Y-60717339D01*
X115523443Y-60733555D01*
X115527628Y-60750262D01*
X115530155Y-60767298D01*
X115531000Y-60784500D01*
X115531000Y-61135500D01*
X115530155Y-61152702D01*
X115527628Y-61169738D01*
X115523443Y-61186445D01*
X115517641Y-61202661D01*
X115510277Y-61218230D01*
X115501423Y-61233003D01*
X115491163Y-61246836D01*
X115479597Y-61259597D01*
X115466836Y-61271163D01*
X115453003Y-61281423D01*
X115438230Y-61290277D01*
X115422661Y-61297641D01*
X115406445Y-61303443D01*
X115389738Y-61307628D01*
X115372702Y-61310155D01*
X115355500Y-61311000D01*
X113804500Y-61311000D01*
X113787298Y-61310155D01*
X113770262Y-61307628D01*
X113753555Y-61303443D01*
X113737339Y-61297641D01*
X113721770Y-61290277D01*
X113706997Y-61281423D01*
X113693164Y-61271163D01*
X113680403Y-61259597D01*
X113668837Y-61246836D01*
X113658577Y-61233003D01*
X113649723Y-61218230D01*
X113642359Y-61202661D01*
X113636557Y-61186445D01*
X113632372Y-61169738D01*
X113629845Y-61152702D01*
X113629000Y-61135500D01*
X113629000Y-60784500D01*
X113629845Y-60767298D01*
X113632372Y-60750262D01*
X113636557Y-60733555D01*
X113642359Y-60717339D01*
X113649723Y-60701770D01*
X113658577Y-60686997D01*
X113668837Y-60673164D01*
X113680403Y-60660403D01*
X113693164Y-60648837D01*
X113706997Y-60638577D01*
X113721770Y-60629723D01*
X113737339Y-60622359D01*
X113753555Y-60616557D01*
X113770262Y-60612372D01*
X113787298Y-60609845D01*
X113804500Y-60609000D01*
X115355500Y-60609000D01*
X115372702Y-60609845D01*
G37*
G36*
X115372702Y-61879845D02*
G01*
X115389738Y-61882372D01*
X115406445Y-61886557D01*
X115422661Y-61892359D01*
X115438230Y-61899723D01*
X115453003Y-61908577D01*
X115466836Y-61918837D01*
X115479597Y-61930403D01*
X115491163Y-61943164D01*
X115501423Y-61956997D01*
X115510277Y-61971770D01*
X115517641Y-61987339D01*
X115523443Y-62003555D01*
X115527628Y-62020262D01*
X115530155Y-62037298D01*
X115531000Y-62054500D01*
X115531000Y-62405500D01*
X115530155Y-62422702D01*
X115527628Y-62439738D01*
X115523443Y-62456445D01*
X115517641Y-62472661D01*
X115510277Y-62488230D01*
X115501423Y-62503003D01*
X115491163Y-62516836D01*
X115479597Y-62529597D01*
X115466836Y-62541163D01*
X115453003Y-62551423D01*
X115438230Y-62560277D01*
X115422661Y-62567641D01*
X115406445Y-62573443D01*
X115389738Y-62577628D01*
X115372702Y-62580155D01*
X115355500Y-62581000D01*
X113804500Y-62581000D01*
X113787298Y-62580155D01*
X113770262Y-62577628D01*
X113753555Y-62573443D01*
X113737339Y-62567641D01*
X113721770Y-62560277D01*
X113706997Y-62551423D01*
X113693164Y-62541163D01*
X113680403Y-62529597D01*
X113668837Y-62516836D01*
X113658577Y-62503003D01*
X113649723Y-62488230D01*
X113642359Y-62472661D01*
X113636557Y-62456445D01*
X113632372Y-62439738D01*
X113629845Y-62422702D01*
X113629000Y-62405500D01*
X113629000Y-62054500D01*
X113629845Y-62037298D01*
X113632372Y-62020262D01*
X113636557Y-62003555D01*
X113642359Y-61987339D01*
X113649723Y-61971770D01*
X113658577Y-61956997D01*
X113668837Y-61943164D01*
X113680403Y-61930403D01*
X113693164Y-61918837D01*
X113706997Y-61908577D01*
X113721770Y-61899723D01*
X113737339Y-61892359D01*
X113753555Y-61886557D01*
X113770262Y-61882372D01*
X113787298Y-61879845D01*
X113804500Y-61879000D01*
X115355500Y-61879000D01*
X115372702Y-61879845D01*
G37*
G36*
X115372702Y-63149845D02*
G01*
X115389738Y-63152372D01*
X115406445Y-63156557D01*
X115422661Y-63162359D01*
X115438230Y-63169723D01*
X115453003Y-63178577D01*
X115466836Y-63188837D01*
X115479597Y-63200403D01*
X115491163Y-63213164D01*
X115501423Y-63226997D01*
X115510277Y-63241770D01*
X115517641Y-63257339D01*
X115523443Y-63273555D01*
X115527628Y-63290262D01*
X115530155Y-63307298D01*
X115531000Y-63324500D01*
X115531000Y-63675500D01*
X115530155Y-63692702D01*
X115527628Y-63709738D01*
X115523443Y-63726445D01*
X115517641Y-63742661D01*
X115510277Y-63758230D01*
X115501423Y-63773003D01*
X115491163Y-63786836D01*
X115479597Y-63799597D01*
X115466836Y-63811163D01*
X115453003Y-63821423D01*
X115438230Y-63830277D01*
X115422661Y-63837641D01*
X115406445Y-63843443D01*
X115389738Y-63847628D01*
X115372702Y-63850155D01*
X115355500Y-63851000D01*
X113804500Y-63851000D01*
X113787298Y-63850155D01*
X113770262Y-63847628D01*
X113753555Y-63843443D01*
X113737339Y-63837641D01*
X113721770Y-63830277D01*
X113706997Y-63821423D01*
X113693164Y-63811163D01*
X113680403Y-63799597D01*
X113668837Y-63786836D01*
X113658577Y-63773003D01*
X113649723Y-63758230D01*
X113642359Y-63742661D01*
X113636557Y-63726445D01*
X113632372Y-63709738D01*
X113629845Y-63692702D01*
X113629000Y-63675500D01*
X113629000Y-63324500D01*
X113629845Y-63307298D01*
X113632372Y-63290262D01*
X113636557Y-63273555D01*
X113642359Y-63257339D01*
X113649723Y-63241770D01*
X113658577Y-63226997D01*
X113668837Y-63213164D01*
X113680403Y-63200403D01*
X113693164Y-63188837D01*
X113706997Y-63178577D01*
X113721770Y-63169723D01*
X113737339Y-63162359D01*
X113753555Y-63156557D01*
X113770262Y-63152372D01*
X113787298Y-63149845D01*
X113804500Y-63149000D01*
X115355500Y-63149000D01*
X115372702Y-63149845D01*
G37*
G36*
X115372702Y-64419845D02*
G01*
X115389738Y-64422372D01*
X115406445Y-64426557D01*
X115422661Y-64432359D01*
X115438230Y-64439723D01*
X115453003Y-64448577D01*
X115466836Y-64458837D01*
X115479597Y-64470403D01*
X115491163Y-64483164D01*
X115501423Y-64496997D01*
X115510277Y-64511770D01*
X115517641Y-64527339D01*
X115523443Y-64543555D01*
X115527628Y-64560262D01*
X115530155Y-64577298D01*
X115531000Y-64594500D01*
X115531000Y-64945500D01*
X115530155Y-64962702D01*
X115527628Y-64979738D01*
X115523443Y-64996445D01*
X115517641Y-65012661D01*
X115510277Y-65028230D01*
X115501423Y-65043003D01*
X115491163Y-65056836D01*
X115479597Y-65069597D01*
X115466836Y-65081163D01*
X115453003Y-65091423D01*
X115438230Y-65100277D01*
X115422661Y-65107641D01*
X115406445Y-65113443D01*
X115389738Y-65117628D01*
X115372702Y-65120155D01*
X115355500Y-65121000D01*
X113804500Y-65121000D01*
X113787298Y-65120155D01*
X113770262Y-65117628D01*
X113753555Y-65113443D01*
X113737339Y-65107641D01*
X113721770Y-65100277D01*
X113706997Y-65091423D01*
X113693164Y-65081163D01*
X113680403Y-65069597D01*
X113668837Y-65056836D01*
X113658577Y-65043003D01*
X113649723Y-65028230D01*
X113642359Y-65012661D01*
X113636557Y-64996445D01*
X113632372Y-64979738D01*
X113629845Y-64962702D01*
X113629000Y-64945500D01*
X113629000Y-64594500D01*
X113629845Y-64577298D01*
X113632372Y-64560262D01*
X113636557Y-64543555D01*
X113642359Y-64527339D01*
X113649723Y-64511770D01*
X113658577Y-64496997D01*
X113668837Y-64483164D01*
X113680403Y-64470403D01*
X113693164Y-64458837D01*
X113706997Y-64448577D01*
X113721770Y-64439723D01*
X113737339Y-64432359D01*
X113753555Y-64426557D01*
X113770262Y-64422372D01*
X113787298Y-64419845D01*
X113804500Y-64419000D01*
X115355500Y-64419000D01*
X115372702Y-64419845D01*
G37*
G36*
X115372702Y-65689845D02*
G01*
X115389738Y-65692372D01*
X115406445Y-65696557D01*
X115422661Y-65702359D01*
X115438230Y-65709723D01*
X115453003Y-65718577D01*
X115466836Y-65728837D01*
X115479597Y-65740403D01*
X115491163Y-65753164D01*
X115501423Y-65766997D01*
X115510277Y-65781770D01*
X115517641Y-65797339D01*
X115523443Y-65813555D01*
X115527628Y-65830262D01*
X115530155Y-65847298D01*
X115531000Y-65864500D01*
X115531000Y-66215500D01*
X115530155Y-66232702D01*
X115527628Y-66249738D01*
X115523443Y-66266445D01*
X115517641Y-66282661D01*
X115510277Y-66298230D01*
X115501423Y-66313003D01*
X115491163Y-66326836D01*
X115479597Y-66339597D01*
X115466836Y-66351163D01*
X115453003Y-66361423D01*
X115438230Y-66370277D01*
X115422661Y-66377641D01*
X115406445Y-66383443D01*
X115389738Y-66387628D01*
X115372702Y-66390155D01*
X115355500Y-66391000D01*
X113804500Y-66391000D01*
X113787298Y-66390155D01*
X113770262Y-66387628D01*
X113753555Y-66383443D01*
X113737339Y-66377641D01*
X113721770Y-66370277D01*
X113706997Y-66361423D01*
X113693164Y-66351163D01*
X113680403Y-66339597D01*
X113668837Y-66326836D01*
X113658577Y-66313003D01*
X113649723Y-66298230D01*
X113642359Y-66282661D01*
X113636557Y-66266445D01*
X113632372Y-66249738D01*
X113629845Y-66232702D01*
X113629000Y-66215500D01*
X113629000Y-65864500D01*
X113629845Y-65847298D01*
X113632372Y-65830262D01*
X113636557Y-65813555D01*
X113642359Y-65797339D01*
X113649723Y-65781770D01*
X113658577Y-65766997D01*
X113668837Y-65753164D01*
X113680403Y-65740403D01*
X113693164Y-65728837D01*
X113706997Y-65718577D01*
X113721770Y-65709723D01*
X113737339Y-65702359D01*
X113753555Y-65696557D01*
X113770262Y-65692372D01*
X113787298Y-65689845D01*
X113804500Y-65689000D01*
X115355500Y-65689000D01*
X115372702Y-65689845D01*
G37*
G36*
X115372702Y-66959845D02*
G01*
X115389738Y-66962372D01*
X115406445Y-66966557D01*
X115422661Y-66972359D01*
X115438230Y-66979723D01*
X115453003Y-66988577D01*
X115466836Y-66998837D01*
X115479597Y-67010403D01*
X115491163Y-67023164D01*
X115501423Y-67036997D01*
X115510277Y-67051770D01*
X115517641Y-67067339D01*
X115523443Y-67083555D01*
X115527628Y-67100262D01*
X115530155Y-67117298D01*
X115531000Y-67134500D01*
X115531000Y-67485500D01*
X115530155Y-67502702D01*
X115527628Y-67519738D01*
X115523443Y-67536445D01*
X115517641Y-67552661D01*
X115510277Y-67568230D01*
X115501423Y-67583003D01*
X115491163Y-67596836D01*
X115479597Y-67609597D01*
X115466836Y-67621163D01*
X115453003Y-67631423D01*
X115438230Y-67640277D01*
X115422661Y-67647641D01*
X115406445Y-67653443D01*
X115389738Y-67657628D01*
X115372702Y-67660155D01*
X115355500Y-67661000D01*
X113804500Y-67661000D01*
X113787298Y-67660155D01*
X113770262Y-67657628D01*
X113753555Y-67653443D01*
X113737339Y-67647641D01*
X113721770Y-67640277D01*
X113706997Y-67631423D01*
X113693164Y-67621163D01*
X113680403Y-67609597D01*
X113668837Y-67596836D01*
X113658577Y-67583003D01*
X113649723Y-67568230D01*
X113642359Y-67552661D01*
X113636557Y-67536445D01*
X113632372Y-67519738D01*
X113629845Y-67502702D01*
X113629000Y-67485500D01*
X113629000Y-67134500D01*
X113629845Y-67117298D01*
X113632372Y-67100262D01*
X113636557Y-67083555D01*
X113642359Y-67067339D01*
X113649723Y-67051770D01*
X113658577Y-67036997D01*
X113668837Y-67023164D01*
X113680403Y-67010403D01*
X113693164Y-66998837D01*
X113706997Y-66988577D01*
X113721770Y-66979723D01*
X113737339Y-66972359D01*
X113753555Y-66966557D01*
X113770262Y-66962372D01*
X113787298Y-66959845D01*
X113804500Y-66959000D01*
X115355500Y-66959000D01*
X115372702Y-66959845D01*
G37*
G36*
X115372702Y-68229845D02*
G01*
X115389738Y-68232372D01*
X115406445Y-68236557D01*
X115422661Y-68242359D01*
X115438230Y-68249723D01*
X115453003Y-68258577D01*
X115466836Y-68268837D01*
X115479597Y-68280403D01*
X115491163Y-68293164D01*
X115501423Y-68306997D01*
X115510277Y-68321770D01*
X115517641Y-68337339D01*
X115523443Y-68353555D01*
X115527628Y-68370262D01*
X115530155Y-68387298D01*
X115531000Y-68404500D01*
X115531000Y-68755500D01*
X115530155Y-68772702D01*
X115527628Y-68789738D01*
X115523443Y-68806445D01*
X115517641Y-68822661D01*
X115510277Y-68838230D01*
X115501423Y-68853003D01*
X115491163Y-68866836D01*
X115479597Y-68879597D01*
X115466836Y-68891163D01*
X115453003Y-68901423D01*
X115438230Y-68910277D01*
X115422661Y-68917641D01*
X115406445Y-68923443D01*
X115389738Y-68927628D01*
X115372702Y-68930155D01*
X115355500Y-68931000D01*
X113804500Y-68931000D01*
X113787298Y-68930155D01*
X113770262Y-68927628D01*
X113753555Y-68923443D01*
X113737339Y-68917641D01*
X113721770Y-68910277D01*
X113706997Y-68901423D01*
X113693164Y-68891163D01*
X113680403Y-68879597D01*
X113668837Y-68866836D01*
X113658577Y-68853003D01*
X113649723Y-68838230D01*
X113642359Y-68822661D01*
X113636557Y-68806445D01*
X113632372Y-68789738D01*
X113629845Y-68772702D01*
X113629000Y-68755500D01*
X113629000Y-68404500D01*
X113629845Y-68387298D01*
X113632372Y-68370262D01*
X113636557Y-68353555D01*
X113642359Y-68337339D01*
X113649723Y-68321770D01*
X113658577Y-68306997D01*
X113668837Y-68293164D01*
X113680403Y-68280403D01*
X113693164Y-68268837D01*
X113706997Y-68258577D01*
X113721770Y-68249723D01*
X113737339Y-68242359D01*
X113753555Y-68236557D01*
X113770262Y-68232372D01*
X113787298Y-68229845D01*
X113804500Y-68229000D01*
X115355500Y-68229000D01*
X115372702Y-68229845D01*
G37*
G36*
X115372702Y-69499845D02*
G01*
X115389738Y-69502372D01*
X115406445Y-69506557D01*
X115422661Y-69512359D01*
X115438230Y-69519723D01*
X115453003Y-69528577D01*
X115466836Y-69538837D01*
X115479597Y-69550403D01*
X115491163Y-69563164D01*
X115501423Y-69576997D01*
X115510277Y-69591770D01*
X115517641Y-69607339D01*
X115523443Y-69623555D01*
X115527628Y-69640262D01*
X115530155Y-69657298D01*
X115531000Y-69674500D01*
X115531000Y-70025500D01*
X115530155Y-70042702D01*
X115527628Y-70059738D01*
X115523443Y-70076445D01*
X115517641Y-70092661D01*
X115510277Y-70108230D01*
X115501423Y-70123003D01*
X115491163Y-70136836D01*
X115479597Y-70149597D01*
X115466836Y-70161163D01*
X115453003Y-70171423D01*
X115438230Y-70180277D01*
X115422661Y-70187641D01*
X115406445Y-70193443D01*
X115389738Y-70197628D01*
X115372702Y-70200155D01*
X115355500Y-70201000D01*
X113804500Y-70201000D01*
X113787298Y-70200155D01*
X113770262Y-70197628D01*
X113753555Y-70193443D01*
X113737339Y-70187641D01*
X113721770Y-70180277D01*
X113706997Y-70171423D01*
X113693164Y-70161163D01*
X113680403Y-70149597D01*
X113668837Y-70136836D01*
X113658577Y-70123003D01*
X113649723Y-70108230D01*
X113642359Y-70092661D01*
X113636557Y-70076445D01*
X113632372Y-70059738D01*
X113629845Y-70042702D01*
X113629000Y-70025500D01*
X113629000Y-69674500D01*
X113629845Y-69657298D01*
X113632372Y-69640262D01*
X113636557Y-69623555D01*
X113642359Y-69607339D01*
X113649723Y-69591770D01*
X113658577Y-69576997D01*
X113668837Y-69563164D01*
X113680403Y-69550403D01*
X113693164Y-69538837D01*
X113706997Y-69528577D01*
X113721770Y-69519723D01*
X113737339Y-69512359D01*
X113753555Y-69506557D01*
X113770262Y-69502372D01*
X113787298Y-69499845D01*
X113804500Y-69499000D01*
X115355500Y-69499000D01*
X115372702Y-69499845D01*
G37*
D15*
X73660000Y-40640000D03*
X119380000Y-40640000D03*
X119380000Y-78740000D03*
X73660000Y-78740000D03*
D14*
G36*
X122215351Y-35839484D02*
G01*
X122225107Y-35840931D01*
X122234674Y-35843327D01*
X122243960Y-35846650D01*
X122252875Y-35850867D01*
X122261335Y-35855937D01*
X122269257Y-35861812D01*
X122276564Y-35868436D01*
X122283188Y-35875743D01*
X122289063Y-35883665D01*
X122294133Y-35892125D01*
X122298350Y-35901040D01*
X122301673Y-35910326D01*
X122304069Y-35919893D01*
X122305516Y-35929649D01*
X122306000Y-35939500D01*
X122306000Y-36140500D01*
X122305516Y-36150351D01*
X122304069Y-36160107D01*
X122301673Y-36169674D01*
X122298350Y-36178960D01*
X122294133Y-36187875D01*
X122289063Y-36196335D01*
X122283188Y-36204257D01*
X122276564Y-36211564D01*
X122269257Y-36218188D01*
X122261335Y-36224063D01*
X122252875Y-36229133D01*
X122243960Y-36233350D01*
X122234674Y-36236673D01*
X122225107Y-36239069D01*
X122215351Y-36240516D01*
X122205500Y-36241000D01*
X120854500Y-36241000D01*
X120844649Y-36240516D01*
X120834893Y-36239069D01*
X120825326Y-36236673D01*
X120816040Y-36233350D01*
X120807125Y-36229133D01*
X120798665Y-36224063D01*
X120790743Y-36218188D01*
X120783436Y-36211564D01*
X120776812Y-36204257D01*
X120770937Y-36196335D01*
X120765867Y-36187875D01*
X120761650Y-36178960D01*
X120758327Y-36169674D01*
X120755931Y-36160107D01*
X120754484Y-36150351D01*
X120754000Y-36140500D01*
X120754000Y-35939500D01*
X120754484Y-35929649D01*
X120755931Y-35919893D01*
X120758327Y-35910326D01*
X120761650Y-35901040D01*
X120765867Y-35892125D01*
X120770937Y-35883665D01*
X120776812Y-35875743D01*
X120783436Y-35868436D01*
X120790743Y-35861812D01*
X120798665Y-35855937D01*
X120807125Y-35850867D01*
X120816040Y-35846650D01*
X120825326Y-35843327D01*
X120834893Y-35840931D01*
X120844649Y-35839484D01*
X120854500Y-35839000D01*
X122205500Y-35839000D01*
X122215351Y-35839484D01*
G37*
G36*
X122215351Y-35339484D02*
G01*
X122225107Y-35340931D01*
X122234674Y-35343327D01*
X122243960Y-35346650D01*
X122252875Y-35350867D01*
X122261335Y-35355937D01*
X122269257Y-35361812D01*
X122276564Y-35368436D01*
X122283188Y-35375743D01*
X122289063Y-35383665D01*
X122294133Y-35392125D01*
X122298350Y-35401040D01*
X122301673Y-35410326D01*
X122304069Y-35419893D01*
X122305516Y-35429649D01*
X122306000Y-35439500D01*
X122306000Y-35640500D01*
X122305516Y-35650351D01*
X122304069Y-35660107D01*
X122301673Y-35669674D01*
X122298350Y-35678960D01*
X122294133Y-35687875D01*
X122289063Y-35696335D01*
X122283188Y-35704257D01*
X122276564Y-35711564D01*
X122269257Y-35718188D01*
X122261335Y-35724063D01*
X122252875Y-35729133D01*
X122243960Y-35733350D01*
X122234674Y-35736673D01*
X122225107Y-35739069D01*
X122215351Y-35740516D01*
X122205500Y-35741000D01*
X120854500Y-35741000D01*
X120844649Y-35740516D01*
X120834893Y-35739069D01*
X120825326Y-35736673D01*
X120816040Y-35733350D01*
X120807125Y-35729133D01*
X120798665Y-35724063D01*
X120790743Y-35718188D01*
X120783436Y-35711564D01*
X120776812Y-35704257D01*
X120770937Y-35696335D01*
X120765867Y-35687875D01*
X120761650Y-35678960D01*
X120758327Y-35669674D01*
X120755931Y-35660107D01*
X120754484Y-35650351D01*
X120754000Y-35640500D01*
X120754000Y-35439500D01*
X120754484Y-35429649D01*
X120755931Y-35419893D01*
X120758327Y-35410326D01*
X120761650Y-35401040D01*
X120765867Y-35392125D01*
X120770937Y-35383665D01*
X120776812Y-35375743D01*
X120783436Y-35368436D01*
X120790743Y-35361812D01*
X120798665Y-35355937D01*
X120807125Y-35350867D01*
X120816040Y-35346650D01*
X120825326Y-35343327D01*
X120834893Y-35340931D01*
X120844649Y-35339484D01*
X120854500Y-35339000D01*
X122205500Y-35339000D01*
X122215351Y-35339484D01*
G37*
G36*
X122215351Y-34839484D02*
G01*
X122225107Y-34840931D01*
X122234674Y-34843327D01*
X122243960Y-34846650D01*
X122252875Y-34850867D01*
X122261335Y-34855937D01*
X122269257Y-34861812D01*
X122276564Y-34868436D01*
X122283188Y-34875743D01*
X122289063Y-34883665D01*
X122294133Y-34892125D01*
X122298350Y-34901040D01*
X122301673Y-34910326D01*
X122304069Y-34919893D01*
X122305516Y-34929649D01*
X122306000Y-34939500D01*
X122306000Y-35140500D01*
X122305516Y-35150351D01*
X122304069Y-35160107D01*
X122301673Y-35169674D01*
X122298350Y-35178960D01*
X122294133Y-35187875D01*
X122289063Y-35196335D01*
X122283188Y-35204257D01*
X122276564Y-35211564D01*
X122269257Y-35218188D01*
X122261335Y-35224063D01*
X122252875Y-35229133D01*
X122243960Y-35233350D01*
X122234674Y-35236673D01*
X122225107Y-35239069D01*
X122215351Y-35240516D01*
X122205500Y-35241000D01*
X120854500Y-35241000D01*
X120844649Y-35240516D01*
X120834893Y-35239069D01*
X120825326Y-35236673D01*
X120816040Y-35233350D01*
X120807125Y-35229133D01*
X120798665Y-35224063D01*
X120790743Y-35218188D01*
X120783436Y-35211564D01*
X120776812Y-35204257D01*
X120770937Y-35196335D01*
X120765867Y-35187875D01*
X120761650Y-35178960D01*
X120758327Y-35169674D01*
X120755931Y-35160107D01*
X120754484Y-35150351D01*
X120754000Y-35140500D01*
X120754000Y-34939500D01*
X120754484Y-34929649D01*
X120755931Y-34919893D01*
X120758327Y-34910326D01*
X120761650Y-34901040D01*
X120765867Y-34892125D01*
X120770937Y-34883665D01*
X120776812Y-34875743D01*
X120783436Y-34868436D01*
X120790743Y-34861812D01*
X120798665Y-34855937D01*
X120807125Y-34850867D01*
X120816040Y-34846650D01*
X120825326Y-34843327D01*
X120834893Y-34840931D01*
X120844649Y-34839484D01*
X120854500Y-34839000D01*
X122205500Y-34839000D01*
X122215351Y-34839484D01*
G37*
G36*
X122215351Y-34339484D02*
G01*
X122225107Y-34340931D01*
X122234674Y-34343327D01*
X122243960Y-34346650D01*
X122252875Y-34350867D01*
X122261335Y-34355937D01*
X122269257Y-34361812D01*
X122276564Y-34368436D01*
X122283188Y-34375743D01*
X122289063Y-34383665D01*
X122294133Y-34392125D01*
X122298350Y-34401040D01*
X122301673Y-34410326D01*
X122304069Y-34419893D01*
X122305516Y-34429649D01*
X122306000Y-34439500D01*
X122306000Y-34640500D01*
X122305516Y-34650351D01*
X122304069Y-34660107D01*
X122301673Y-34669674D01*
X122298350Y-34678960D01*
X122294133Y-34687875D01*
X122289063Y-34696335D01*
X122283188Y-34704257D01*
X122276564Y-34711564D01*
X122269257Y-34718188D01*
X122261335Y-34724063D01*
X122252875Y-34729133D01*
X122243960Y-34733350D01*
X122234674Y-34736673D01*
X122225107Y-34739069D01*
X122215351Y-34740516D01*
X122205500Y-34741000D01*
X120854500Y-34741000D01*
X120844649Y-34740516D01*
X120834893Y-34739069D01*
X120825326Y-34736673D01*
X120816040Y-34733350D01*
X120807125Y-34729133D01*
X120798665Y-34724063D01*
X120790743Y-34718188D01*
X120783436Y-34711564D01*
X120776812Y-34704257D01*
X120770937Y-34696335D01*
X120765867Y-34687875D01*
X120761650Y-34678960D01*
X120758327Y-34669674D01*
X120755931Y-34660107D01*
X120754484Y-34650351D01*
X120754000Y-34640500D01*
X120754000Y-34439500D01*
X120754484Y-34429649D01*
X120755931Y-34419893D01*
X120758327Y-34410326D01*
X120761650Y-34401040D01*
X120765867Y-34392125D01*
X120770937Y-34383665D01*
X120776812Y-34375743D01*
X120783436Y-34368436D01*
X120790743Y-34361812D01*
X120798665Y-34355937D01*
X120807125Y-34350867D01*
X120816040Y-34346650D01*
X120825326Y-34343327D01*
X120834893Y-34340931D01*
X120844649Y-34339484D01*
X120854500Y-34339000D01*
X122205500Y-34339000D01*
X122215351Y-34339484D01*
G37*
G36*
X122215351Y-33839484D02*
G01*
X122225107Y-33840931D01*
X122234674Y-33843327D01*
X122243960Y-33846650D01*
X122252875Y-33850867D01*
X122261335Y-33855937D01*
X122269257Y-33861812D01*
X122276564Y-33868436D01*
X122283188Y-33875743D01*
X122289063Y-33883665D01*
X122294133Y-33892125D01*
X122298350Y-33901040D01*
X122301673Y-33910326D01*
X122304069Y-33919893D01*
X122305516Y-33929649D01*
X122306000Y-33939500D01*
X122306000Y-34140500D01*
X122305516Y-34150351D01*
X122304069Y-34160107D01*
X122301673Y-34169674D01*
X122298350Y-34178960D01*
X122294133Y-34187875D01*
X122289063Y-34196335D01*
X122283188Y-34204257D01*
X122276564Y-34211564D01*
X122269257Y-34218188D01*
X122261335Y-34224063D01*
X122252875Y-34229133D01*
X122243960Y-34233350D01*
X122234674Y-34236673D01*
X122225107Y-34239069D01*
X122215351Y-34240516D01*
X122205500Y-34241000D01*
X120854500Y-34241000D01*
X120844649Y-34240516D01*
X120834893Y-34239069D01*
X120825326Y-34236673D01*
X120816040Y-34233350D01*
X120807125Y-34229133D01*
X120798665Y-34224063D01*
X120790743Y-34218188D01*
X120783436Y-34211564D01*
X120776812Y-34204257D01*
X120770937Y-34196335D01*
X120765867Y-34187875D01*
X120761650Y-34178960D01*
X120758327Y-34169674D01*
X120755931Y-34160107D01*
X120754484Y-34150351D01*
X120754000Y-34140500D01*
X120754000Y-33939500D01*
X120754484Y-33929649D01*
X120755931Y-33919893D01*
X120758327Y-33910326D01*
X120761650Y-33901040D01*
X120765867Y-33892125D01*
X120770937Y-33883665D01*
X120776812Y-33875743D01*
X120783436Y-33868436D01*
X120790743Y-33861812D01*
X120798665Y-33855937D01*
X120807125Y-33850867D01*
X120816040Y-33846650D01*
X120825326Y-33843327D01*
X120834893Y-33840931D01*
X120844649Y-33839484D01*
X120854500Y-33839000D01*
X122205500Y-33839000D01*
X122215351Y-33839484D01*
G37*
G36*
X122215351Y-33339484D02*
G01*
X122225107Y-33340931D01*
X122234674Y-33343327D01*
X122243960Y-33346650D01*
X122252875Y-33350867D01*
X122261335Y-33355937D01*
X122269257Y-33361812D01*
X122276564Y-33368436D01*
X122283188Y-33375743D01*
X122289063Y-33383665D01*
X122294133Y-33392125D01*
X122298350Y-33401040D01*
X122301673Y-33410326D01*
X122304069Y-33419893D01*
X122305516Y-33429649D01*
X122306000Y-33439500D01*
X122306000Y-33640500D01*
X122305516Y-33650351D01*
X122304069Y-33660107D01*
X122301673Y-33669674D01*
X122298350Y-33678960D01*
X122294133Y-33687875D01*
X122289063Y-33696335D01*
X122283188Y-33704257D01*
X122276564Y-33711564D01*
X122269257Y-33718188D01*
X122261335Y-33724063D01*
X122252875Y-33729133D01*
X122243960Y-33733350D01*
X122234674Y-33736673D01*
X122225107Y-33739069D01*
X122215351Y-33740516D01*
X122205500Y-33741000D01*
X120854500Y-33741000D01*
X120844649Y-33740516D01*
X120834893Y-33739069D01*
X120825326Y-33736673D01*
X120816040Y-33733350D01*
X120807125Y-33729133D01*
X120798665Y-33724063D01*
X120790743Y-33718188D01*
X120783436Y-33711564D01*
X120776812Y-33704257D01*
X120770937Y-33696335D01*
X120765867Y-33687875D01*
X120761650Y-33678960D01*
X120758327Y-33669674D01*
X120755931Y-33660107D01*
X120754484Y-33650351D01*
X120754000Y-33640500D01*
X120754000Y-33439500D01*
X120754484Y-33429649D01*
X120755931Y-33419893D01*
X120758327Y-33410326D01*
X120761650Y-33401040D01*
X120765867Y-33392125D01*
X120770937Y-33383665D01*
X120776812Y-33375743D01*
X120783436Y-33368436D01*
X120790743Y-33361812D01*
X120798665Y-33355937D01*
X120807125Y-33350867D01*
X120816040Y-33346650D01*
X120825326Y-33343327D01*
X120834893Y-33340931D01*
X120844649Y-33339484D01*
X120854500Y-33339000D01*
X122205500Y-33339000D01*
X122215351Y-33339484D01*
G37*
G36*
X122215351Y-32839484D02*
G01*
X122225107Y-32840931D01*
X122234674Y-32843327D01*
X122243960Y-32846650D01*
X122252875Y-32850867D01*
X122261335Y-32855937D01*
X122269257Y-32861812D01*
X122276564Y-32868436D01*
X122283188Y-32875743D01*
X122289063Y-32883665D01*
X122294133Y-32892125D01*
X122298350Y-32901040D01*
X122301673Y-32910326D01*
X122304069Y-32919893D01*
X122305516Y-32929649D01*
X122306000Y-32939500D01*
X122306000Y-33140500D01*
X122305516Y-33150351D01*
X122304069Y-33160107D01*
X122301673Y-33169674D01*
X122298350Y-33178960D01*
X122294133Y-33187875D01*
X122289063Y-33196335D01*
X122283188Y-33204257D01*
X122276564Y-33211564D01*
X122269257Y-33218188D01*
X122261335Y-33224063D01*
X122252875Y-33229133D01*
X122243960Y-33233350D01*
X122234674Y-33236673D01*
X122225107Y-33239069D01*
X122215351Y-33240516D01*
X122205500Y-33241000D01*
X120854500Y-33241000D01*
X120844649Y-33240516D01*
X120834893Y-33239069D01*
X120825326Y-33236673D01*
X120816040Y-33233350D01*
X120807125Y-33229133D01*
X120798665Y-33224063D01*
X120790743Y-33218188D01*
X120783436Y-33211564D01*
X120776812Y-33204257D01*
X120770937Y-33196335D01*
X120765867Y-33187875D01*
X120761650Y-33178960D01*
X120758327Y-33169674D01*
X120755931Y-33160107D01*
X120754484Y-33150351D01*
X120754000Y-33140500D01*
X120754000Y-32939500D01*
X120754484Y-32929649D01*
X120755931Y-32919893D01*
X120758327Y-32910326D01*
X120761650Y-32901040D01*
X120765867Y-32892125D01*
X120770937Y-32883665D01*
X120776812Y-32875743D01*
X120783436Y-32868436D01*
X120790743Y-32861812D01*
X120798665Y-32855937D01*
X120807125Y-32850867D01*
X120816040Y-32846650D01*
X120825326Y-32843327D01*
X120834893Y-32840931D01*
X120844649Y-32839484D01*
X120854500Y-32839000D01*
X122205500Y-32839000D01*
X122215351Y-32839484D01*
G37*
G36*
X122215351Y-32339484D02*
G01*
X122225107Y-32340931D01*
X122234674Y-32343327D01*
X122243960Y-32346650D01*
X122252875Y-32350867D01*
X122261335Y-32355937D01*
X122269257Y-32361812D01*
X122276564Y-32368436D01*
X122283188Y-32375743D01*
X122289063Y-32383665D01*
X122294133Y-32392125D01*
X122298350Y-32401040D01*
X122301673Y-32410326D01*
X122304069Y-32419893D01*
X122305516Y-32429649D01*
X122306000Y-32439500D01*
X122306000Y-32640500D01*
X122305516Y-32650351D01*
X122304069Y-32660107D01*
X122301673Y-32669674D01*
X122298350Y-32678960D01*
X122294133Y-32687875D01*
X122289063Y-32696335D01*
X122283188Y-32704257D01*
X122276564Y-32711564D01*
X122269257Y-32718188D01*
X122261335Y-32724063D01*
X122252875Y-32729133D01*
X122243960Y-32733350D01*
X122234674Y-32736673D01*
X122225107Y-32739069D01*
X122215351Y-32740516D01*
X122205500Y-32741000D01*
X120854500Y-32741000D01*
X120844649Y-32740516D01*
X120834893Y-32739069D01*
X120825326Y-32736673D01*
X120816040Y-32733350D01*
X120807125Y-32729133D01*
X120798665Y-32724063D01*
X120790743Y-32718188D01*
X120783436Y-32711564D01*
X120776812Y-32704257D01*
X120770937Y-32696335D01*
X120765867Y-32687875D01*
X120761650Y-32678960D01*
X120758327Y-32669674D01*
X120755931Y-32660107D01*
X120754484Y-32650351D01*
X120754000Y-32640500D01*
X120754000Y-32439500D01*
X120754484Y-32429649D01*
X120755931Y-32419893D01*
X120758327Y-32410326D01*
X120761650Y-32401040D01*
X120765867Y-32392125D01*
X120770937Y-32383665D01*
X120776812Y-32375743D01*
X120783436Y-32368436D01*
X120790743Y-32361812D01*
X120798665Y-32355937D01*
X120807125Y-32350867D01*
X120816040Y-32346650D01*
X120825326Y-32343327D01*
X120834893Y-32340931D01*
X120844649Y-32339484D01*
X120854500Y-32339000D01*
X122205500Y-32339000D01*
X122215351Y-32339484D01*
G37*
G36*
X117915351Y-32339484D02*
G01*
X117925107Y-32340931D01*
X117934674Y-32343327D01*
X117943960Y-32346650D01*
X117952875Y-32350867D01*
X117961335Y-32355937D01*
X117969257Y-32361812D01*
X117976564Y-32368436D01*
X117983188Y-32375743D01*
X117989063Y-32383665D01*
X117994133Y-32392125D01*
X117998350Y-32401040D01*
X118001673Y-32410326D01*
X118004069Y-32419893D01*
X118005516Y-32429649D01*
X118006000Y-32439500D01*
X118006000Y-32640500D01*
X118005516Y-32650351D01*
X118004069Y-32660107D01*
X118001673Y-32669674D01*
X117998350Y-32678960D01*
X117994133Y-32687875D01*
X117989063Y-32696335D01*
X117983188Y-32704257D01*
X117976564Y-32711564D01*
X117969257Y-32718188D01*
X117961335Y-32724063D01*
X117952875Y-32729133D01*
X117943960Y-32733350D01*
X117934674Y-32736673D01*
X117925107Y-32739069D01*
X117915351Y-32740516D01*
X117905500Y-32741000D01*
X116554500Y-32741000D01*
X116544649Y-32740516D01*
X116534893Y-32739069D01*
X116525326Y-32736673D01*
X116516040Y-32733350D01*
X116507125Y-32729133D01*
X116498665Y-32724063D01*
X116490743Y-32718188D01*
X116483436Y-32711564D01*
X116476812Y-32704257D01*
X116470937Y-32696335D01*
X116465867Y-32687875D01*
X116461650Y-32678960D01*
X116458327Y-32669674D01*
X116455931Y-32660107D01*
X116454484Y-32650351D01*
X116454000Y-32640500D01*
X116454000Y-32439500D01*
X116454484Y-32429649D01*
X116455931Y-32419893D01*
X116458327Y-32410326D01*
X116461650Y-32401040D01*
X116465867Y-32392125D01*
X116470937Y-32383665D01*
X116476812Y-32375743D01*
X116483436Y-32368436D01*
X116490743Y-32361812D01*
X116498665Y-32355937D01*
X116507125Y-32350867D01*
X116516040Y-32346650D01*
X116525326Y-32343327D01*
X116534893Y-32340931D01*
X116544649Y-32339484D01*
X116554500Y-32339000D01*
X117905500Y-32339000D01*
X117915351Y-32339484D01*
G37*
G36*
X117915351Y-32839484D02*
G01*
X117925107Y-32840931D01*
X117934674Y-32843327D01*
X117943960Y-32846650D01*
X117952875Y-32850867D01*
X117961335Y-32855937D01*
X117969257Y-32861812D01*
X117976564Y-32868436D01*
X117983188Y-32875743D01*
X117989063Y-32883665D01*
X117994133Y-32892125D01*
X117998350Y-32901040D01*
X118001673Y-32910326D01*
X118004069Y-32919893D01*
X118005516Y-32929649D01*
X118006000Y-32939500D01*
X118006000Y-33140500D01*
X118005516Y-33150351D01*
X118004069Y-33160107D01*
X118001673Y-33169674D01*
X117998350Y-33178960D01*
X117994133Y-33187875D01*
X117989063Y-33196335D01*
X117983188Y-33204257D01*
X117976564Y-33211564D01*
X117969257Y-33218188D01*
X117961335Y-33224063D01*
X117952875Y-33229133D01*
X117943960Y-33233350D01*
X117934674Y-33236673D01*
X117925107Y-33239069D01*
X117915351Y-33240516D01*
X117905500Y-33241000D01*
X116554500Y-33241000D01*
X116544649Y-33240516D01*
X116534893Y-33239069D01*
X116525326Y-33236673D01*
X116516040Y-33233350D01*
X116507125Y-33229133D01*
X116498665Y-33224063D01*
X116490743Y-33218188D01*
X116483436Y-33211564D01*
X116476812Y-33204257D01*
X116470937Y-33196335D01*
X116465867Y-33187875D01*
X116461650Y-33178960D01*
X116458327Y-33169674D01*
X116455931Y-33160107D01*
X116454484Y-33150351D01*
X116454000Y-33140500D01*
X116454000Y-32939500D01*
X116454484Y-32929649D01*
X116455931Y-32919893D01*
X116458327Y-32910326D01*
X116461650Y-32901040D01*
X116465867Y-32892125D01*
X116470937Y-32883665D01*
X116476812Y-32875743D01*
X116483436Y-32868436D01*
X116490743Y-32861812D01*
X116498665Y-32855937D01*
X116507125Y-32850867D01*
X116516040Y-32846650D01*
X116525326Y-32843327D01*
X116534893Y-32840931D01*
X116544649Y-32839484D01*
X116554500Y-32839000D01*
X117905500Y-32839000D01*
X117915351Y-32839484D01*
G37*
G36*
X117915351Y-33339484D02*
G01*
X117925107Y-33340931D01*
X117934674Y-33343327D01*
X117943960Y-33346650D01*
X117952875Y-33350867D01*
X117961335Y-33355937D01*
X117969257Y-33361812D01*
X117976564Y-33368436D01*
X117983188Y-33375743D01*
X117989063Y-33383665D01*
X117994133Y-33392125D01*
X117998350Y-33401040D01*
X118001673Y-33410326D01*
X118004069Y-33419893D01*
X118005516Y-33429649D01*
X118006000Y-33439500D01*
X118006000Y-33640500D01*
X118005516Y-33650351D01*
X118004069Y-33660107D01*
X118001673Y-33669674D01*
X117998350Y-33678960D01*
X117994133Y-33687875D01*
X117989063Y-33696335D01*
X117983188Y-33704257D01*
X117976564Y-33711564D01*
X117969257Y-33718188D01*
X117961335Y-33724063D01*
X117952875Y-33729133D01*
X117943960Y-33733350D01*
X117934674Y-33736673D01*
X117925107Y-33739069D01*
X117915351Y-33740516D01*
X117905500Y-33741000D01*
X116554500Y-33741000D01*
X116544649Y-33740516D01*
X116534893Y-33739069D01*
X116525326Y-33736673D01*
X116516040Y-33733350D01*
X116507125Y-33729133D01*
X116498665Y-33724063D01*
X116490743Y-33718188D01*
X116483436Y-33711564D01*
X116476812Y-33704257D01*
X116470937Y-33696335D01*
X116465867Y-33687875D01*
X116461650Y-33678960D01*
X116458327Y-33669674D01*
X116455931Y-33660107D01*
X116454484Y-33650351D01*
X116454000Y-33640500D01*
X116454000Y-33439500D01*
X116454484Y-33429649D01*
X116455931Y-33419893D01*
X116458327Y-33410326D01*
X116461650Y-33401040D01*
X116465867Y-33392125D01*
X116470937Y-33383665D01*
X116476812Y-33375743D01*
X116483436Y-33368436D01*
X116490743Y-33361812D01*
X116498665Y-33355937D01*
X116507125Y-33350867D01*
X116516040Y-33346650D01*
X116525326Y-33343327D01*
X116534893Y-33340931D01*
X116544649Y-33339484D01*
X116554500Y-33339000D01*
X117905500Y-33339000D01*
X117915351Y-33339484D01*
G37*
G36*
X117915351Y-33839484D02*
G01*
X117925107Y-33840931D01*
X117934674Y-33843327D01*
X117943960Y-33846650D01*
X117952875Y-33850867D01*
X117961335Y-33855937D01*
X117969257Y-33861812D01*
X117976564Y-33868436D01*
X117983188Y-33875743D01*
X117989063Y-33883665D01*
X117994133Y-33892125D01*
X117998350Y-33901040D01*
X118001673Y-33910326D01*
X118004069Y-33919893D01*
X118005516Y-33929649D01*
X118006000Y-33939500D01*
X118006000Y-34140500D01*
X118005516Y-34150351D01*
X118004069Y-34160107D01*
X118001673Y-34169674D01*
X117998350Y-34178960D01*
X117994133Y-34187875D01*
X117989063Y-34196335D01*
X117983188Y-34204257D01*
X117976564Y-34211564D01*
X117969257Y-34218188D01*
X117961335Y-34224063D01*
X117952875Y-34229133D01*
X117943960Y-34233350D01*
X117934674Y-34236673D01*
X117925107Y-34239069D01*
X117915351Y-34240516D01*
X117905500Y-34241000D01*
X116554500Y-34241000D01*
X116544649Y-34240516D01*
X116534893Y-34239069D01*
X116525326Y-34236673D01*
X116516040Y-34233350D01*
X116507125Y-34229133D01*
X116498665Y-34224063D01*
X116490743Y-34218188D01*
X116483436Y-34211564D01*
X116476812Y-34204257D01*
X116470937Y-34196335D01*
X116465867Y-34187875D01*
X116461650Y-34178960D01*
X116458327Y-34169674D01*
X116455931Y-34160107D01*
X116454484Y-34150351D01*
X116454000Y-34140500D01*
X116454000Y-33939500D01*
X116454484Y-33929649D01*
X116455931Y-33919893D01*
X116458327Y-33910326D01*
X116461650Y-33901040D01*
X116465867Y-33892125D01*
X116470937Y-33883665D01*
X116476812Y-33875743D01*
X116483436Y-33868436D01*
X116490743Y-33861812D01*
X116498665Y-33855937D01*
X116507125Y-33850867D01*
X116516040Y-33846650D01*
X116525326Y-33843327D01*
X116534893Y-33840931D01*
X116544649Y-33839484D01*
X116554500Y-33839000D01*
X117905500Y-33839000D01*
X117915351Y-33839484D01*
G37*
G36*
X117915351Y-34339484D02*
G01*
X117925107Y-34340931D01*
X117934674Y-34343327D01*
X117943960Y-34346650D01*
X117952875Y-34350867D01*
X117961335Y-34355937D01*
X117969257Y-34361812D01*
X117976564Y-34368436D01*
X117983188Y-34375743D01*
X117989063Y-34383665D01*
X117994133Y-34392125D01*
X117998350Y-34401040D01*
X118001673Y-34410326D01*
X118004069Y-34419893D01*
X118005516Y-34429649D01*
X118006000Y-34439500D01*
X118006000Y-34640500D01*
X118005516Y-34650351D01*
X118004069Y-34660107D01*
X118001673Y-34669674D01*
X117998350Y-34678960D01*
X117994133Y-34687875D01*
X117989063Y-34696335D01*
X117983188Y-34704257D01*
X117976564Y-34711564D01*
X117969257Y-34718188D01*
X117961335Y-34724063D01*
X117952875Y-34729133D01*
X117943960Y-34733350D01*
X117934674Y-34736673D01*
X117925107Y-34739069D01*
X117915351Y-34740516D01*
X117905500Y-34741000D01*
X116554500Y-34741000D01*
X116544649Y-34740516D01*
X116534893Y-34739069D01*
X116525326Y-34736673D01*
X116516040Y-34733350D01*
X116507125Y-34729133D01*
X116498665Y-34724063D01*
X116490743Y-34718188D01*
X116483436Y-34711564D01*
X116476812Y-34704257D01*
X116470937Y-34696335D01*
X116465867Y-34687875D01*
X116461650Y-34678960D01*
X116458327Y-34669674D01*
X116455931Y-34660107D01*
X116454484Y-34650351D01*
X116454000Y-34640500D01*
X116454000Y-34439500D01*
X116454484Y-34429649D01*
X116455931Y-34419893D01*
X116458327Y-34410326D01*
X116461650Y-34401040D01*
X116465867Y-34392125D01*
X116470937Y-34383665D01*
X116476812Y-34375743D01*
X116483436Y-34368436D01*
X116490743Y-34361812D01*
X116498665Y-34355937D01*
X116507125Y-34350867D01*
X116516040Y-34346650D01*
X116525326Y-34343327D01*
X116534893Y-34340931D01*
X116544649Y-34339484D01*
X116554500Y-34339000D01*
X117905500Y-34339000D01*
X117915351Y-34339484D01*
G37*
G36*
X117915351Y-34839484D02*
G01*
X117925107Y-34840931D01*
X117934674Y-34843327D01*
X117943960Y-34846650D01*
X117952875Y-34850867D01*
X117961335Y-34855937D01*
X117969257Y-34861812D01*
X117976564Y-34868436D01*
X117983188Y-34875743D01*
X117989063Y-34883665D01*
X117994133Y-34892125D01*
X117998350Y-34901040D01*
X118001673Y-34910326D01*
X118004069Y-34919893D01*
X118005516Y-34929649D01*
X118006000Y-34939500D01*
X118006000Y-35140500D01*
X118005516Y-35150351D01*
X118004069Y-35160107D01*
X118001673Y-35169674D01*
X117998350Y-35178960D01*
X117994133Y-35187875D01*
X117989063Y-35196335D01*
X117983188Y-35204257D01*
X117976564Y-35211564D01*
X117969257Y-35218188D01*
X117961335Y-35224063D01*
X117952875Y-35229133D01*
X117943960Y-35233350D01*
X117934674Y-35236673D01*
X117925107Y-35239069D01*
X117915351Y-35240516D01*
X117905500Y-35241000D01*
X116554500Y-35241000D01*
X116544649Y-35240516D01*
X116534893Y-35239069D01*
X116525326Y-35236673D01*
X116516040Y-35233350D01*
X116507125Y-35229133D01*
X116498665Y-35224063D01*
X116490743Y-35218188D01*
X116483436Y-35211564D01*
X116476812Y-35204257D01*
X116470937Y-35196335D01*
X116465867Y-35187875D01*
X116461650Y-35178960D01*
X116458327Y-35169674D01*
X116455931Y-35160107D01*
X116454484Y-35150351D01*
X116454000Y-35140500D01*
X116454000Y-34939500D01*
X116454484Y-34929649D01*
X116455931Y-34919893D01*
X116458327Y-34910326D01*
X116461650Y-34901040D01*
X116465867Y-34892125D01*
X116470937Y-34883665D01*
X116476812Y-34875743D01*
X116483436Y-34868436D01*
X116490743Y-34861812D01*
X116498665Y-34855937D01*
X116507125Y-34850867D01*
X116516040Y-34846650D01*
X116525326Y-34843327D01*
X116534893Y-34840931D01*
X116544649Y-34839484D01*
X116554500Y-34839000D01*
X117905500Y-34839000D01*
X117915351Y-34839484D01*
G37*
G36*
X117915351Y-35339484D02*
G01*
X117925107Y-35340931D01*
X117934674Y-35343327D01*
X117943960Y-35346650D01*
X117952875Y-35350867D01*
X117961335Y-35355937D01*
X117969257Y-35361812D01*
X117976564Y-35368436D01*
X117983188Y-35375743D01*
X117989063Y-35383665D01*
X117994133Y-35392125D01*
X117998350Y-35401040D01*
X118001673Y-35410326D01*
X118004069Y-35419893D01*
X118005516Y-35429649D01*
X118006000Y-35439500D01*
X118006000Y-35640500D01*
X118005516Y-35650351D01*
X118004069Y-35660107D01*
X118001673Y-35669674D01*
X117998350Y-35678960D01*
X117994133Y-35687875D01*
X117989063Y-35696335D01*
X117983188Y-35704257D01*
X117976564Y-35711564D01*
X117969257Y-35718188D01*
X117961335Y-35724063D01*
X117952875Y-35729133D01*
X117943960Y-35733350D01*
X117934674Y-35736673D01*
X117925107Y-35739069D01*
X117915351Y-35740516D01*
X117905500Y-35741000D01*
X116554500Y-35741000D01*
X116544649Y-35740516D01*
X116534893Y-35739069D01*
X116525326Y-35736673D01*
X116516040Y-35733350D01*
X116507125Y-35729133D01*
X116498665Y-35724063D01*
X116490743Y-35718188D01*
X116483436Y-35711564D01*
X116476812Y-35704257D01*
X116470937Y-35696335D01*
X116465867Y-35687875D01*
X116461650Y-35678960D01*
X116458327Y-35669674D01*
X116455931Y-35660107D01*
X116454484Y-35650351D01*
X116454000Y-35640500D01*
X116454000Y-35439500D01*
X116454484Y-35429649D01*
X116455931Y-35419893D01*
X116458327Y-35410326D01*
X116461650Y-35401040D01*
X116465867Y-35392125D01*
X116470937Y-35383665D01*
X116476812Y-35375743D01*
X116483436Y-35368436D01*
X116490743Y-35361812D01*
X116498665Y-35355937D01*
X116507125Y-35350867D01*
X116516040Y-35346650D01*
X116525326Y-35343327D01*
X116534893Y-35340931D01*
X116544649Y-35339484D01*
X116554500Y-35339000D01*
X117905500Y-35339000D01*
X117915351Y-35339484D01*
G37*
G36*
X117915351Y-35839484D02*
G01*
X117925107Y-35840931D01*
X117934674Y-35843327D01*
X117943960Y-35846650D01*
X117952875Y-35850867D01*
X117961335Y-35855937D01*
X117969257Y-35861812D01*
X117976564Y-35868436D01*
X117983188Y-35875743D01*
X117989063Y-35883665D01*
X117994133Y-35892125D01*
X117998350Y-35901040D01*
X118001673Y-35910326D01*
X118004069Y-35919893D01*
X118005516Y-35929649D01*
X118006000Y-35939500D01*
X118006000Y-36140500D01*
X118005516Y-36150351D01*
X118004069Y-36160107D01*
X118001673Y-36169674D01*
X117998350Y-36178960D01*
X117994133Y-36187875D01*
X117989063Y-36196335D01*
X117983188Y-36204257D01*
X117976564Y-36211564D01*
X117969257Y-36218188D01*
X117961335Y-36224063D01*
X117952875Y-36229133D01*
X117943960Y-36233350D01*
X117934674Y-36236673D01*
X117925107Y-36239069D01*
X117915351Y-36240516D01*
X117905500Y-36241000D01*
X116554500Y-36241000D01*
X116544649Y-36240516D01*
X116534893Y-36239069D01*
X116525326Y-36236673D01*
X116516040Y-36233350D01*
X116507125Y-36229133D01*
X116498665Y-36224063D01*
X116490743Y-36218188D01*
X116483436Y-36211564D01*
X116476812Y-36204257D01*
X116470937Y-36196335D01*
X116465867Y-36187875D01*
X116461650Y-36178960D01*
X116458327Y-36169674D01*
X116455931Y-36160107D01*
X116454484Y-36150351D01*
X116454000Y-36140500D01*
X116454000Y-35939500D01*
X116454484Y-35929649D01*
X116455931Y-35919893D01*
X116458327Y-35910326D01*
X116461650Y-35901040D01*
X116465867Y-35892125D01*
X116470937Y-35883665D01*
X116476812Y-35875743D01*
X116483436Y-35868436D01*
X116490743Y-35861812D01*
X116498665Y-35855937D01*
X116507125Y-35850867D01*
X116516040Y-35846650D01*
X116525326Y-35843327D01*
X116534893Y-35840931D01*
X116544649Y-35839484D01*
X116554500Y-35839000D01*
X117905500Y-35839000D01*
X117915351Y-35839484D01*
G37*
D16*
X77470000Y-27940000D03*
X69850000Y-60960000D03*
X77470000Y-30480000D03*
X69850000Y-58420000D03*
X77470000Y-33020000D03*
X69850000Y-55880000D03*
X77470000Y-35560000D03*
X69850000Y-53340000D03*
X77470000Y-38100000D03*
X69850000Y-50800000D03*
X77470000Y-40640000D03*
X69850000Y-48260000D03*
X77470000Y-43180000D03*
X69850000Y-45720000D03*
X77470000Y-45720000D03*
X69850000Y-43180000D03*
X77470000Y-48260000D03*
X69850000Y-40640000D03*
X77470000Y-50800000D03*
X69850000Y-38100000D03*
X77470000Y-53340000D03*
X69850000Y-35560000D03*
X77470000Y-55880000D03*
X69850000Y-33020000D03*
X77470000Y-58420000D03*
X69850000Y-30480000D03*
X77470000Y-60960000D03*
D17*
X69850000Y-27940000D03*
D12*
X99060000Y-101600000D03*
X96520000Y-101600000D03*
X99060000Y-99060000D03*
X96520000Y-99060000D03*
X99060000Y-96520000D03*
X96520000Y-96520000D03*
X99060000Y-93980000D03*
X96520000Y-93980000D03*
X99060000Y-91440000D03*
X96520000Y-91440000D03*
X99060000Y-88900000D03*
X96520000Y-88900000D03*
X99060000Y-86360000D03*
X96520000Y-86360000D03*
X99060000Y-83820000D03*
X96520000Y-83820000D03*
X99060000Y-81280000D03*
X96520000Y-81280000D03*
X99060000Y-78740000D03*
X96520000Y-78740000D03*
X99060000Y-76200000D03*
X96520000Y-76200000D03*
X99060000Y-73660000D03*
X96520000Y-73660000D03*
X99060000Y-71120000D03*
X96520000Y-71120000D03*
X99060000Y-68580000D03*
X96520000Y-68580000D03*
X99060000Y-66040000D03*
X96520000Y-66040000D03*
X99060000Y-63500000D03*
X96520000Y-63500000D03*
X99060000Y-60960000D03*
X96520000Y-60960000D03*
X99060000Y-58420000D03*
X96520000Y-58420000D03*
X99060000Y-55880000D03*
X96520000Y-55880000D03*
X99060000Y-53340000D03*
X96520000Y-53340000D03*
X99060000Y-50800000D03*
X96520000Y-50800000D03*
X99060000Y-48260000D03*
X96520000Y-48260000D03*
X99060000Y-45720000D03*
X96520000Y-45720000D03*
X99060000Y-43180000D03*
X96520000Y-43180000D03*
X99060000Y-40640000D03*
X96520000Y-40640000D03*
X99060000Y-38100000D03*
X96520000Y-38100000D03*
X99060000Y-35560000D03*
X96520000Y-35560000D03*
X99060000Y-33020000D03*
X96520000Y-33020000D03*
X99060000Y-30480000D03*
X96520000Y-30480000D03*
X99060000Y-27940000D03*
D13*
X96520000Y-27940000D03*
D12*
X53340000Y-101600000D03*
X50800000Y-101600000D03*
X53340000Y-99060000D03*
X50800000Y-99060000D03*
X53340000Y-96520000D03*
X50800000Y-96520000D03*
X53340000Y-93980000D03*
X50800000Y-93980000D03*
X53340000Y-91440000D03*
X50800000Y-91440000D03*
X53340000Y-88900000D03*
X50800000Y-88900000D03*
X53340000Y-86360000D03*
X50800000Y-86360000D03*
X53340000Y-83820000D03*
X50800000Y-83820000D03*
X53340000Y-81280000D03*
X50800000Y-81280000D03*
X53340000Y-78740000D03*
X50800000Y-78740000D03*
X53340000Y-76200000D03*
X50800000Y-76200000D03*
X53340000Y-73660000D03*
X50800000Y-73660000D03*
X53340000Y-71120000D03*
X50800000Y-71120000D03*
X53340000Y-68580000D03*
X50800000Y-68580000D03*
X53340000Y-66040000D03*
X50800000Y-66040000D03*
X53340000Y-63500000D03*
X50800000Y-63500000D03*
X53340000Y-60960000D03*
X50800000Y-60960000D03*
X53340000Y-58420000D03*
X50800000Y-58420000D03*
X53340000Y-55880000D03*
X50800000Y-55880000D03*
X53340000Y-53340000D03*
X50800000Y-53340000D03*
X53340000Y-50800000D03*
X50800000Y-50800000D03*
X53340000Y-48260000D03*
X50800000Y-48260000D03*
X53340000Y-45720000D03*
X50800000Y-45720000D03*
X53340000Y-43180000D03*
X50800000Y-43180000D03*
X53340000Y-40640000D03*
X50800000Y-40640000D03*
X53340000Y-38100000D03*
X50800000Y-38100000D03*
X53340000Y-35560000D03*
X50800000Y-35560000D03*
X53340000Y-33020000D03*
X50800000Y-33020000D03*
X53340000Y-30480000D03*
X50800000Y-30480000D03*
X53340000Y-27940000D03*
D13*
X50800000Y-27940000D03*
M02*
