%FSLAX45Y45*%
G04 Gerber Fmt 4.5, Leading zero omitted, Abs format (unit mm)*
G04 Created by KiCad (PCBNEW 5.1.5+dfsg1-2build2) date 2021-12-31 02:47:54*
%MOMM*%
%LPD*%
G04 APERTURE LIST*
%TA.AperFunction,Profile*%
%ADD10C,0.050000*%
%TD*%
%ADD11C,0.200000*%
%ADD12C,0.300000*%
G04 APERTURE END LIST*
D10*
X4953000Y-2667000D02*
X4953000Y-10287000D01*
X14351000Y-2667000D02*
X4953000Y-2667000D01*
X14351000Y-10287000D02*
X14351000Y-2667000D01*
X4953000Y-10287000D02*
X14351000Y-10287000D01*
D11*
X7206000Y-3904000D02*
X7526000Y-4224000D01*
X7526000Y-3904000D02*
X7206000Y-4224000D01*
X11778000Y-7714000D02*
X12098000Y-8034000D01*
X12098000Y-7714000D02*
X11778000Y-8034000D01*
X11778000Y-3904000D02*
X12098000Y-4224000D01*
X12098000Y-3904000D02*
X11778000Y-4224000D01*
X7206000Y-7714000D02*
X7526000Y-8034000D01*
X7526000Y-7714000D02*
X7206000Y-8034000D01*
D12*
X5236928Y-10755214D02*
X5236928Y-10455214D01*
X5308357Y-10455214D01*
X5351214Y-10469500D01*
X5379786Y-10498072D01*
X5394071Y-10526643D01*
X5408357Y-10583786D01*
X5408357Y-10626643D01*
X5394071Y-10683786D01*
X5379786Y-10712357D01*
X5351214Y-10740929D01*
X5308357Y-10755214D01*
X5236928Y-10755214D01*
X5536928Y-10755214D02*
X5536928Y-10555214D01*
X5536928Y-10612357D02*
X5551214Y-10583786D01*
X5565500Y-10569500D01*
X5594071Y-10555214D01*
X5622643Y-10555214D01*
X5722643Y-10755214D02*
X5722643Y-10555214D01*
X5722643Y-10455214D02*
X5708357Y-10469500D01*
X5722643Y-10483786D01*
X5736928Y-10469500D01*
X5722643Y-10455214D01*
X5722643Y-10483786D01*
X5908357Y-10755214D02*
X5879786Y-10740929D01*
X5865500Y-10712357D01*
X5865500Y-10455214D01*
X6065500Y-10755214D02*
X6036928Y-10740929D01*
X6022643Y-10712357D01*
X6022643Y-10455214D01*
X6408357Y-10755214D02*
X6408357Y-10455214D01*
X6508357Y-10669500D01*
X6608357Y-10455214D01*
X6608357Y-10755214D01*
X6879786Y-10755214D02*
X6879786Y-10598072D01*
X6865500Y-10569500D01*
X6836928Y-10555214D01*
X6779786Y-10555214D01*
X6751214Y-10569500D01*
X6879786Y-10740929D02*
X6851214Y-10755214D01*
X6779786Y-10755214D01*
X6751214Y-10740929D01*
X6736928Y-10712357D01*
X6736928Y-10683786D01*
X6751214Y-10655214D01*
X6779786Y-10640929D01*
X6851214Y-10640929D01*
X6879786Y-10626643D01*
X7022643Y-10555214D02*
X7022643Y-10855214D01*
X7022643Y-10569500D02*
X7051214Y-10555214D01*
X7108357Y-10555214D01*
X7136928Y-10569500D01*
X7151214Y-10583786D01*
X7165500Y-10612357D01*
X7165500Y-10698072D01*
X7151214Y-10726643D01*
X7136928Y-10740929D01*
X7108357Y-10755214D01*
X7051214Y-10755214D01*
X7022643Y-10740929D01*
X7294071Y-10726643D02*
X7308357Y-10740929D01*
X7294071Y-10755214D01*
X7279786Y-10740929D01*
X7294071Y-10726643D01*
X7294071Y-10755214D01*
X7294071Y-10569500D02*
X7308357Y-10583786D01*
X7294071Y-10598072D01*
X7279786Y-10583786D01*
X7294071Y-10569500D01*
X7294071Y-10598072D01*
X4630500Y-11089500D02*
X4950500Y-11409500D01*
X4950500Y-11089500D02*
X4630500Y-11409500D01*
X5208357Y-11085214D02*
X5394071Y-11085214D01*
X5294071Y-11199500D01*
X5336928Y-11199500D01*
X5365500Y-11213786D01*
X5379786Y-11228071D01*
X5394071Y-11256643D01*
X5394071Y-11328071D01*
X5379786Y-11356643D01*
X5365500Y-11370929D01*
X5336928Y-11385214D01*
X5251214Y-11385214D01*
X5222643Y-11370929D01*
X5208357Y-11356643D01*
X5522643Y-11356643D02*
X5536928Y-11370929D01*
X5522643Y-11385214D01*
X5508357Y-11370929D01*
X5522643Y-11356643D01*
X5522643Y-11385214D01*
X5651214Y-11113786D02*
X5665500Y-11099500D01*
X5694071Y-11085214D01*
X5765500Y-11085214D01*
X5794071Y-11099500D01*
X5808357Y-11113786D01*
X5822643Y-11142357D01*
X5822643Y-11170929D01*
X5808357Y-11213786D01*
X5636928Y-11385214D01*
X5822643Y-11385214D01*
X6008357Y-11085214D02*
X6036928Y-11085214D01*
X6065500Y-11099500D01*
X6079786Y-11113786D01*
X6094071Y-11142357D01*
X6108357Y-11199500D01*
X6108357Y-11270929D01*
X6094071Y-11328071D01*
X6079786Y-11356643D01*
X6065500Y-11370929D01*
X6036928Y-11385214D01*
X6008357Y-11385214D01*
X5979786Y-11370929D01*
X5965500Y-11356643D01*
X5951214Y-11328071D01*
X5936928Y-11270929D01*
X5936928Y-11199500D01*
X5951214Y-11142357D01*
X5965500Y-11113786D01*
X5979786Y-11099500D01*
X6008357Y-11085214D01*
X6236928Y-11385214D02*
X6236928Y-11185214D01*
X6236928Y-11213786D02*
X6251214Y-11199500D01*
X6279786Y-11185214D01*
X6322643Y-11185214D01*
X6351214Y-11199500D01*
X6365500Y-11228071D01*
X6365500Y-11385214D01*
X6365500Y-11228071D02*
X6379786Y-11199500D01*
X6408357Y-11185214D01*
X6451214Y-11185214D01*
X6479786Y-11199500D01*
X6494071Y-11228071D01*
X6494071Y-11385214D01*
X6636928Y-11385214D02*
X6636928Y-11185214D01*
X6636928Y-11213786D02*
X6651214Y-11199500D01*
X6679786Y-11185214D01*
X6722643Y-11185214D01*
X6751214Y-11199500D01*
X6765500Y-11228071D01*
X6765500Y-11385214D01*
X6765500Y-11228071D02*
X6779786Y-11199500D01*
X6808357Y-11185214D01*
X6851214Y-11185214D01*
X6879786Y-11199500D01*
X6894071Y-11228071D01*
X6894071Y-11385214D01*
X7479786Y-11070929D02*
X7222643Y-11456643D01*
X7865500Y-11085214D02*
X7894071Y-11085214D01*
X7922643Y-11099500D01*
X7936928Y-11113786D01*
X7951214Y-11142357D01*
X7965500Y-11199500D01*
X7965500Y-11270929D01*
X7951214Y-11328071D01*
X7936928Y-11356643D01*
X7922643Y-11370929D01*
X7894071Y-11385214D01*
X7865500Y-11385214D01*
X7836928Y-11370929D01*
X7822643Y-11356643D01*
X7808357Y-11328071D01*
X7794071Y-11270929D01*
X7794071Y-11199500D01*
X7808357Y-11142357D01*
X7822643Y-11113786D01*
X7836928Y-11099500D01*
X7865500Y-11085214D01*
X8094071Y-11356643D02*
X8108357Y-11370929D01*
X8094071Y-11385214D01*
X8079786Y-11370929D01*
X8094071Y-11356643D01*
X8094071Y-11385214D01*
X8394071Y-11385214D02*
X8222643Y-11385214D01*
X8308357Y-11385214D02*
X8308357Y-11085214D01*
X8279786Y-11128072D01*
X8251214Y-11156643D01*
X8222643Y-11170929D01*
X8508357Y-11113786D02*
X8522643Y-11099500D01*
X8551214Y-11085214D01*
X8622643Y-11085214D01*
X8651214Y-11099500D01*
X8665500Y-11113786D01*
X8679786Y-11142357D01*
X8679786Y-11170929D01*
X8665500Y-11213786D01*
X8494071Y-11385214D01*
X8679786Y-11385214D01*
X8936928Y-11085214D02*
X8879786Y-11085214D01*
X8851214Y-11099500D01*
X8836928Y-11113786D01*
X8808357Y-11156643D01*
X8794071Y-11213786D01*
X8794071Y-11328071D01*
X8808357Y-11356643D01*
X8822643Y-11370929D01*
X8851214Y-11385214D01*
X8908357Y-11385214D01*
X8936928Y-11370929D01*
X8951214Y-11356643D01*
X8965500Y-11328071D01*
X8965500Y-11256643D01*
X8951214Y-11228071D01*
X8936928Y-11213786D01*
X8908357Y-11199500D01*
X8851214Y-11199500D01*
X8822643Y-11213786D01*
X8808357Y-11228071D01*
X8794071Y-11256643D01*
X9079786Y-11085214D02*
X9079786Y-11142357D01*
X9194071Y-11085214D02*
X9194071Y-11142357D01*
X9636928Y-11499500D02*
X9622643Y-11485214D01*
X9594071Y-11442357D01*
X9579786Y-11413786D01*
X9565500Y-11370929D01*
X9551214Y-11299500D01*
X9551214Y-11242357D01*
X9565500Y-11170929D01*
X9579786Y-11128072D01*
X9594071Y-11099500D01*
X9622643Y-11056643D01*
X9636928Y-11042357D01*
X9879786Y-11185214D02*
X9879786Y-11385214D01*
X9808357Y-11070929D02*
X9736928Y-11285214D01*
X9922643Y-11285214D01*
X10265500Y-11385214D02*
X10265500Y-11085214D01*
X10394071Y-11385214D02*
X10394071Y-11228071D01*
X10379786Y-11199500D01*
X10351214Y-11185214D01*
X10308357Y-11185214D01*
X10279786Y-11199500D01*
X10265500Y-11213786D01*
X10579786Y-11385214D02*
X10551214Y-11370929D01*
X10536928Y-11356643D01*
X10522643Y-11328071D01*
X10522643Y-11242357D01*
X10536928Y-11213786D01*
X10551214Y-11199500D01*
X10579786Y-11185214D01*
X10622643Y-11185214D01*
X10651214Y-11199500D01*
X10665500Y-11213786D01*
X10679786Y-11242357D01*
X10679786Y-11328071D01*
X10665500Y-11356643D01*
X10651214Y-11370929D01*
X10622643Y-11385214D01*
X10579786Y-11385214D01*
X10851214Y-11385214D02*
X10822643Y-11370929D01*
X10808357Y-11342357D01*
X10808357Y-11085214D01*
X11079786Y-11370929D02*
X11051214Y-11385214D01*
X10994071Y-11385214D01*
X10965500Y-11370929D01*
X10951214Y-11342357D01*
X10951214Y-11228071D01*
X10965500Y-11199500D01*
X10994071Y-11185214D01*
X11051214Y-11185214D01*
X11079786Y-11199500D01*
X11094071Y-11228071D01*
X11094071Y-11256643D01*
X10951214Y-11285214D01*
X11208357Y-11370929D02*
X11236928Y-11385214D01*
X11294071Y-11385214D01*
X11322643Y-11370929D01*
X11336928Y-11342357D01*
X11336928Y-11328071D01*
X11322643Y-11299500D01*
X11294071Y-11285214D01*
X11251214Y-11285214D01*
X11222643Y-11270929D01*
X11208357Y-11242357D01*
X11208357Y-11228071D01*
X11222643Y-11199500D01*
X11251214Y-11185214D01*
X11294071Y-11185214D01*
X11322643Y-11199500D01*
X11436928Y-11499500D02*
X11451214Y-11485214D01*
X11479786Y-11442357D01*
X11494071Y-11413786D01*
X11508357Y-11370929D01*
X11522643Y-11299500D01*
X11522643Y-11242357D01*
X11508357Y-11170929D01*
X11494071Y-11128072D01*
X11479786Y-11099500D01*
X11451214Y-11056643D01*
X11436928Y-11042357D01*
X11979786Y-11499500D02*
X11965500Y-11485214D01*
X11936928Y-11442357D01*
X11922643Y-11413786D01*
X11908357Y-11370929D01*
X11894071Y-11299500D01*
X11894071Y-11242357D01*
X11908357Y-11170929D01*
X11922643Y-11128072D01*
X11936928Y-11099500D01*
X11965500Y-11056643D01*
X11979786Y-11042357D01*
X12094071Y-11185214D02*
X12094071Y-11385214D01*
X12094071Y-11213786D02*
X12108357Y-11199500D01*
X12136928Y-11185214D01*
X12179786Y-11185214D01*
X12208357Y-11199500D01*
X12222643Y-11228071D01*
X12222643Y-11385214D01*
X12408357Y-11385214D02*
X12379786Y-11370929D01*
X12365500Y-11356643D01*
X12351214Y-11328071D01*
X12351214Y-11242357D01*
X12365500Y-11213786D01*
X12379786Y-11199500D01*
X12408357Y-11185214D01*
X12451214Y-11185214D01*
X12479786Y-11199500D01*
X12494071Y-11213786D01*
X12508357Y-11242357D01*
X12508357Y-11328071D01*
X12494071Y-11356643D01*
X12479786Y-11370929D01*
X12451214Y-11385214D01*
X12408357Y-11385214D01*
X12594071Y-11185214D02*
X12708357Y-11185214D01*
X12636928Y-11085214D02*
X12636928Y-11342357D01*
X12651214Y-11370929D01*
X12679786Y-11385214D01*
X12708357Y-11385214D01*
X13036928Y-11185214D02*
X13036928Y-11485214D01*
X13036928Y-11199500D02*
X13065500Y-11185214D01*
X13122643Y-11185214D01*
X13151214Y-11199500D01*
X13165500Y-11213786D01*
X13179786Y-11242357D01*
X13179786Y-11328071D01*
X13165500Y-11356643D01*
X13151214Y-11370929D01*
X13122643Y-11385214D01*
X13065500Y-11385214D01*
X13036928Y-11370929D01*
X13351214Y-11385214D02*
X13322643Y-11370929D01*
X13308357Y-11342357D01*
X13308357Y-11085214D01*
X13594071Y-11385214D02*
X13594071Y-11228071D01*
X13579786Y-11199500D01*
X13551214Y-11185214D01*
X13494071Y-11185214D01*
X13465500Y-11199500D01*
X13594071Y-11370929D02*
X13565500Y-11385214D01*
X13494071Y-11385214D01*
X13465500Y-11370929D01*
X13451214Y-11342357D01*
X13451214Y-11313786D01*
X13465500Y-11285214D01*
X13494071Y-11270929D01*
X13565500Y-11270929D01*
X13594071Y-11256643D01*
X13694071Y-11185214D02*
X13808357Y-11185214D01*
X13736928Y-11085214D02*
X13736928Y-11342357D01*
X13751214Y-11370929D01*
X13779786Y-11385214D01*
X13808357Y-11385214D01*
X14022643Y-11370929D02*
X13994071Y-11385214D01*
X13936928Y-11385214D01*
X13908357Y-11370929D01*
X13894071Y-11342357D01*
X13894071Y-11228071D01*
X13908357Y-11199500D01*
X13936928Y-11185214D01*
X13994071Y-11185214D01*
X14022643Y-11199500D01*
X14036928Y-11228071D01*
X14036928Y-11256643D01*
X13894071Y-11285214D01*
X14294071Y-11385214D02*
X14294071Y-11085214D01*
X14294071Y-11370929D02*
X14265500Y-11385214D01*
X14208357Y-11385214D01*
X14179786Y-11370929D01*
X14165500Y-11356643D01*
X14151214Y-11328071D01*
X14151214Y-11242357D01*
X14165500Y-11213786D01*
X14179786Y-11199500D01*
X14208357Y-11185214D01*
X14265500Y-11185214D01*
X14294071Y-11199500D01*
X14408357Y-11499500D02*
X14422643Y-11485214D01*
X14451214Y-11442357D01*
X14465500Y-11413786D01*
X14479786Y-11370929D01*
X14494071Y-11299500D01*
X14494071Y-11242357D01*
X14479786Y-11170929D01*
X14465500Y-11128072D01*
X14451214Y-11099500D01*
X14422643Y-11056643D01*
X14408357Y-11042357D01*
M02*
